<?xml version="1.0" encoding="UTF-8" standalone="no"?>
<!-- Created with Inkscape (http://www.inkscape.org/) -->

<svg
   width="31.340277mm"
   height="31.286566mm"
   viewBox="0 0 31.340277 31.286566"
   version="1.1"
   id="svg12814"
   xmlns="http://www.w3.org/2000/svg"
   xmlns:svg="http://www.w3.org/2000/svg">
  <defs
     id="defs12811" />
  <g
     id="layer1"
     transform="translate(-84.469997,-99.181405)">
    <g
       id="g63922"
       transform="matrix(22.471013,0,0,22.471013,28.206366,102.05538)">
      <path
         style="fill:#4aa1cc;fill-opacity:1;fill-rule:evenodd;stroke:none;stroke-width:0.0138889"
         d="M 3.7079499,1.0460293 C 3.6096416,1.149762 3.4910985,1.2195862 3.3511791,1.247798 3.098954,1.2986335 2.8793901,1.2328239 2.6979665,1.0500441 2.5940165,0.94528059 2.5324943,0.81724238 2.5112804,0.67086654 c -0.051813,-0.35720489 0.1714417,-0.690267 0.5212681,-0.77783215 0.1038944,-0.0260417 0.20855,-0.027832 0.3133681,-0.0051 5.972e-4,0.001247 0.00141,0.00255 0.00119,0.003852 -0.00526,0.03352862 -0.011176,0.06694876 -0.021431,0.09944654 -0.028862,0.01812069 -0.059082,0.02864583 -0.093479,0.01741542 -0.0064,-0.00206167 -0.012803,-0.0041775 -0.019585,-0.00499125 -0.019857,-0.00233292 -0.03559,0.00320083 -0.045247,0.02191833 -0.00477,0.0092231 -0.012153,0.01567931 -0.022787,0.0175782 -0.016656,0.0029839 -0.026204,-0.0078125 -0.021213,-0.02381737 0.00656,-0.02083333 3.75e-4,-0.0307075 -0.021972,-0.03168403 -0.034235,-0.0014105 -0.068522,-0.0015733 -0.1023764,0.00585945 -0.021974,0.00488278 -0.042156,0.01312931 -0.059408,0.02788625 -0.0038,0.0032551 -0.0083,0.0064561 -0.00743,0.01204431 0.00108,0.0063476 0.00694,0.0077039 0.012099,0.0094943 0.00727,0.0025499 0.014214,5.4306e-4 0.021104,-0.0018989 0.011447,-0.0040147 0.022569,-0.0092231 0.034722,-0.01112195 0.016439,-0.0026042 0.025065,0.0053711 0.023981,0.02197264 -0.00136,0.02115889 -0.017525,0.03472223 -0.038467,0.03152125 -0.029622,-0.0046115 -0.056261,0.0012472 -0.083171,0.01540806 -0.024901,0.013075 -0.050835,0.02766931 -0.081433,0.02305764 -0.0057,-8.1389e-4 -0.00939,0.002333 -0.012099,0.006944 -0.00228,0.003906 -0.00418,0.008084 -0.00548,0.0123699 -0.00418,0.0142144 -0.013021,0.0231119 -0.02756,0.0269097 -0.0083,0.00217 -0.015843,0.006456 -0.023221,0.0108507 -0.00434,0.00255 -0.00808,0.005805 -0.011231,0.009657 -0.0057,0.007053 -0.010254,0.0157878 -0.00396,0.023329 0.00559,0.006727 0.01351,7.5972e-4 0.01964,-0.002441 0.00841,-0.00434 0.016331,-0.009766 0.023112,-0.0163846 0.017035,-0.0164931 0.037706,-0.0261501 0.060113,-0.0325521 0.018067,-0.0051 0.023057,-0.00255 0.030219,0.0147026 0.00434,0.0104167 0.00819,0.0210504 0.012694,0.0313586 0.00206,0.004612 0.00363,0.0118272 0.011176,0.007921 0.00646,-0.003364 0.00412,-0.009169 0.00179,-0.0142145 -0.0032,-0.006999 -0.00705,-0.0136718 -0.0102,-0.0206705 -0.00304,-0.00689 -0.00575,-0.0145399 0.00331,-0.0186089 0.00836,-0.003798 0.013564,0.002007 0.017199,0.008843 0.011122,0.0211588 0.022026,0.0424261 0.026422,0.0671115 0.00526,-0.004883 0.007,-0.010471 0.00787,-0.0161133 0.00141,-0.009766 0.00586,-0.0154622 0.016439,-0.016059 0.015569,-9.2222e-4 0.023763,0.002279 0.027994,0.0134006 0.0032,0.008464 0.00591,0.0170357 0.0134,0.0230035 0.00977,0.007813 0.0204,0.0129667 0.033475,0.0123156 0.00852,-3.7917e-4 0.017089,-3.25e-4 0.025661,2.1666e-4 0.00825,4.8889e-4 0.012804,0.004449 0.011285,0.013075 -0.00412,0.0230035 -0.013781,0.0438368 -0.026638,0.0630968 -0.00483,0.00727 -0.013075,0.00906 -0.021593,0.009223 -0.014919,3.25e-4 -0.028375,-0.005046 -0.041504,-0.0110133 -0.018121,-0.008247 -0.036458,-0.0156793 -0.054796,-0.023329 -0.018881,-0.007813 -0.037489,-0.009169 -0.056153,4.3333e-4 -0.00711,0.003581 -0.012967,0.003689 -0.016547,-0.004774 -0.00282,-0.00651 -0.00933,-0.008084 -0.014919,-0.0108507 -0.017145,-0.008409 -0.018554,-0.0115018 -0.01275,-0.0294597 0.00108,-0.003418 0.00266,-0.006727 0.00293,-0.0103081 -0.00228,-0.003743 -0.0057,-0.00217 -0.00857,-0.001736 -0.038846,0.005642 -0.077908,0.0106336 -0.1156695,0.0212674 -0.020128,0.005697 -0.039985,0.0145942 -0.046983,0.0379232 -0.00353,0.0118272 -0.01085,0.0199653 -0.021918,0.0260417 -0.01123,0.006131 -0.016331,0.0180664 -0.020182,0.0296224 -0.011936,0.035536 -0.02284,0.0715603 -0.027126,0.1087782 -0.0038,0.032769 0.00461,0.0649414 0.016872,0.0950521 0.012424,0.0305447 0.049154,0.040039 0.074815,0.0223524 0.00298,-0.002007 0.00618,-0.003743 0.00944,-0.005371 0.00657,-0.003364 0.012099,-0.003255 0.015354,0.004612 0.00543,0.0131293 0.015028,0.0206163 0.029133,0.0234375 0.00977,0.001899 0.014811,0.009657 0.017796,0.0187174 0.00412,0.0126954 0.00499,0.0258247 0.00201,0.0387371 -0.00342,0.0150282 -5.972e-4,0.0272895 0.00825,0.0404731 0.024306,0.03597 0.036946,0.0765517 0.036078,0.11995445 -4.861e-4,0.0236003 0.00873,0.0430772 0.018283,0.0628254 0.020671,0.0428061 0.04579,0.0827908 0.076551,0.11924918 0.014757,0.017524 0.034235,0.027886 0.053711,0.038032 0.011774,0.00613 0.024632,0.00309 0.035265,-0.00602 0.011774,-0.00998 0.0185,-0.023112 0.023763,-0.037218 0.00537,-0.0143771 0.00901,-0.0292968 0.01275,-0.0441624 0.00912,-0.0362955 0.030599,-0.0619032 0.066081,-0.0745442 0.0102,-0.003635 0.013075,-0.008681 0.011014,-0.0190972 -0.00716,-0.0362956 -0.013672,-0.0726997 -0.011828,-0.11002612 0.00108,-0.0220811 0.00624,-0.0332574 0.027724,-0.0395507 0.022028,-0.006402 0.032661,-0.0199653 0.040257,-0.040636 0.013454,-0.0367838 0.030056,-0.0724826 0.045139,-0.1087239 0.00206,-0.004937 0.00423,-0.009928 0.00759,-0.0142686 0.00819,-0.005968 0.012425,0.001301 0.016819,0.005642 0.023492,0.0230035 0.046115,0.0469835 0.069986,0.0695529 0.07015,0.0662435 0.1363389,0.1363932 0.2060556,0.20290793 0.057779,0.0550131 0.1130639,0.11246751 0.1701931,0.16813159 0.00901,0.00879 0.017903,0.017741 0.027724,0.025716 0.00602,0.00488 0.013562,0.00933 0.014485,0.018501"
         id="path63902" />
      <path
         style="fill:#eb1c23;fill-opacity:1;fill-rule:evenodd;stroke:none;stroke-width:0.0138889"
         d="m 3.3235096,-0.00871255 c 0.00749,-0.03445097 0.014974,-0.06890195 0.022407,-0.10335292 0.078179,0.01540806 0.15115,0.04432514 0.2184236,0.08658862 0.1784944,0.11197917 0.2899306,0.27153863 0.3239472,0.47960073 0.036458,0.2230903 -0.024901,0.41992184 -0.1763236,0.58827042 -0.00119,0.00136 -0.00266,0.00244 -0.00401,0.00364 -0.013297,-0.012809 -0.026805,-0.02545 -0.039934,-0.038417 C 3.5169777,0.85880058 3.3659902,0.70998321 3.2150027,0.56122028 c -0.00293,-0.002876 -0.00591,-0.005588 -0.00884,-0.008355 -0.0045,-0.002658 -9.167e-4,-0.005588 -4.306e-4,-0.008463 0.022189,-0.0518121 0.043674,-0.10394974 0.0657,-0.15581599 0.00326,-0.007758 0.00711,-0.0144857 0.015842,-0.0171983 0.013076,-0.004069 0.018935,-0.002333 0.025174,0.009983 0.00423,0.008084 0.010308,0.0104167 0.018664,0.0103624 0.022569,-1.1111e-4 0.045139,1.1111e-4 0.067708,-1.1111e-4 0.00987,-5.556e-5 0.018554,0.002496 0.026585,0.008192 0.016547,0.0117188 0.033203,0.023329 0.050183,0.034451 0.010254,0.006727 0.016168,0.0167643 0.0204,0.0279406 0.013726,0.0362413 0.028265,0.0722656 0.042968,0.1081814 0.00223,0.00548 0.00131,0.0148654 0.010743,0.0147569 0.00798,-5.556e-5 0.019043,-0.0126953 0.019911,-0.0211589 0.00168,-0.0166015 0.00309,-0.0332031 0.00608,-0.0496418 0.00635,-0.034451 0.02436,-0.0616319 0.051053,-0.0836047 0.00212,-0.001736 0.00428,-0.003309 0.00662,-0.004774 0.011393,-0.007053 0.016168,-0.005208 0.018826,0.007704 0.00157,0.007487 0.00244,0.015191 0.00456,0.0225694 0.00434,0.0152994 0.012424,0.0265842 0.029949,0.0288629 0.029079,0.003852 0.038736,0.0267469 0.046875,0.0502386 0.00521,0.0152996 0.00743,0.031684 0.018283,0.0446507 0.00114,0.001357 0.0019,0.003092 0.00412,0.003635 0.00391,-0.004557 0.00282,-0.009983 0.00228,-0.0152996 -0.00228,-0.0228949 -0.00694,-0.0454101 -0.010906,-0.0680881 -0.00217,-0.0120985 -0.00705,-0.0232204 -0.012532,-0.0341797 -0.013781,-0.0273979 -0.013672,-0.0273979 0.00841,-0.0494792 0.00857,-0.008626 0.017035,-0.0173611 0.025824,-0.0258246 0.00857,-0.008247 0.010362,-0.0174696 0.00548,-0.0282118 -0.00765,-0.0168729 -0.013889,-0.0342882 -0.021106,-0.0513238 -0.00304,-0.007107 -0.00705,-0.0131836 -0.013237,-0.0183378 -0.0096,-0.008029 -0.015463,-0.0190972 -0.016926,-0.0314669 -9.722e-4,-0.00803 -0.00407,-0.0144314 -0.00819,-0.0210504 C 3.6905916,0.2012458 3.6626513,0.16457039 3.6303166,0.13180135 3.598036,0.09908649 3.5619569,0.07076621 3.522786,0.0461894 3.4952249,0.02882829 3.4667957,0.01342023 3.4381499,-0.00182504 c -0.031521,-0.01671001 -0.063801,-0.01708973 -0.097222,-0.00873473 -0.00521,0.00124722 -0.010145,0.00390625 -0.015788,0.00309236 -5.417e-4,-4.3333e-4 -0.00108,-8.1389e-4 -0.00163,-0.00124722"
         id="path63904" />
      <path
         style="fill:#1e632e;fill-opacity:1;fill-rule:evenodd;stroke:none;stroke-width:0.0138889"
         d="m 3.207461,0.54700583 c -4.306e-4,0.001953 -8.611e-4,0.003906 -0.00136,0.005859 -0.020942,0.049859 -0.041937,0.0996636 -0.062608,0.14957682 -0.00304,0.007324 -0.00684,0.0123699 -0.01519,0.0131836 -0.00309,2.7083e-4 -0.00602,0.001845 -0.00901,0.00293 -0.029893,0.0108507 -0.033203,0.0162761 -0.034071,0.0482314 -8.611e-4,0.0359157 0.00646,0.0707465 0.013129,0.10563154 0.00174,0.009332 0.00119,0.0145399 -0.00977,0.0175781 C 3.051906,0.90025019 3.029986,0.92536959 3.0206,0.96182799 3.01452,0.98537399 3.009696,1.0092997 2.996837,1.0304585 2.986204,1.0480365 2.97188,1.0587785 2.950179,1.0559575 2.947579,1.0555783 2.944699,1.0554686 2.942479,1.0543275 2.909222,1.0373465 2.883723,1.0120095 2.862673,0.98141089 2.836684,0.94375899 2.814712,0.90404549 2.796809,0.86199907 2.794309,0.85614007 2.792959,0.85017167 2.793169,0.84366127 2.794479,0.79065567 2.781125,0.7420446 2.748844,0.69929279 c -0.00749,-0.009874 -0.00131,-0.0200738 -2.222e-4,-0.0298394 0.00141,-0.0131835 0.00174,-0.0260417 -0.00184,-0.0388454 -0.0025,-0.008952 -0.00776,-0.0149197 -0.017686,-0.0161133 -0.014324,-0.001682 -0.024849,-0.009006 -0.028375,-0.0232204 -0.0026,-0.0105251 -0.00722,-0.007053 -0.013021,-0.003689 -0.010687,0.006185 -0.020617,0.0123699 -0.034288,0.0137261 -0.029081,0.002876 -0.050999,-0.0217014 -0.058051,-0.04324 -0.016601,-0.0506726 -0.015733,-0.10080292 0.00125,-0.15104168 0.00494,-0.0144857 0.00787,-0.0296767 0.012857,-0.0441081 0.00564,-0.0158963 0.013293,-0.0307617 0.030654,-0.0374349 0.00613,-0.002387 0.00727,-0.008518 0.01009,-0.0136719 0.00651,-0.0118814 0.00836,-0.0262043 0.022624,-0.0339626 0.030274,-0.0164388 0.063803,-0.0196397 0.096572,-0.0258789 0.020561,-0.003906 0.041449,-0.006348 0.063856,-0.009711 -0.00222,0.007541 -0.00353,0.0127496 -0.00515,0.0177951 -0.00662,0.0200738 -0.00673,0.0201824 0.013293,0.028049 0.00705,0.002767 0.014703,0.003527 0.015082,0.0142144 2.222e-4,0.006076 0.00526,0.002713 0.00808,0.001031 0.0204,-0.0124783 0.041125,-0.0107964 0.062121,-0.001682 0.021104,0.009115 0.042156,0.0182292 0.063368,0.0270724 0.00581,0.002442 0.011828,0.004503 0.017958,0.005859 0.019965,0.004449 0.029079,1.625e-4 0.038682,-0.0177408 0.00857,-0.0159506 0.014811,-0.0327692 0.01926,-0.0503472 0.00174,-0.007053 0,-0.010254 -0.0077,-0.00982 -0.00808,4.8889e-4 -0.016221,4.8889e-4 -0.024306,6.5139e-4 -0.027235,4.8889e-4 -0.043347,-0.011339 -0.051432,-0.0379232 -0.00418,-0.0137261 -0.015517,-0.0109592 -0.025661,-0.011556 -0.010146,-5.9722e-4 -0.011611,0.004991 -0.011882,0.0134549 -2.223e-4,0.00944 -0.00711,0.016059 -0.013564,0.0263129 -0.00423,-0.0281033 -0.01492,-0.0507813 -0.026313,-0.0731879 -0.00147,-0.002821 -0.0026,-0.005805 -0.00418,-0.008518 -0.00293,-0.004937 -0.00743,-0.004612 -0.011881,-0.002658 -0.00494,0.002279 -0.00429,0.006131 -0.00228,0.0101997 0.00499,0.0101454 0.00944,0.0205078 0.014974,0.0303276 0.00548,0.009603 -0.00103,0.0128039 -0.00749,0.0164931 -0.00808,0.004666 -0.00998,-9.2222e-4 -0.012262,-0.00689 -0.00532,-0.0138889 -0.011393,-0.0275065 -0.016437,-0.0415039 -0.00315,-0.008681 -0.0077,-0.0120986 -0.017145,-0.009657 -0.023004,0.005914 -0.044651,0.0140517 -0.062283,0.0307618 -0.011501,0.0109592 -0.024197,0.020345 -0.03966,0.0249565 -0.012532,0.003689 -0.016547,1.1112e-4 -0.016113,-0.0130208 3.194e-4,-0.0105251 0.00613,-0.0176324 0.0134,-0.0240343 0.00792,-0.006999 0.016982,-0.0131835 0.026964,-0.0149739 0.018229,-0.003309 0.026585,-0.0143772 0.031196,-0.030816 0.00358,-0.0126411 0.00912,-0.0224067 0.025825,-0.0164931 0.00846,0.002984 0.018772,0.001357 0.026475,-0.002875 0.022515,-0.0123155 0.048015,-0.01730694 0.070096,-0.03119583 0.017688,-0.01112195 0.039768,-0.0092772 0.059354,-0.0045572 0.019585,0.00472 0.037162,-0.0103082 0.037162,-0.02989362 0,-0.01345486 -0.00575,-0.01898875 -0.019206,-0.01681861 -0.0134,0.0022243 -0.025879,0.007704 -0.038411,0.01264097 -0.00971,0.0037978 -0.0185,0.0023329 -0.027344,-0.0021158 -0.012097,-0.0061307 -0.013129,-0.01199 -0.00309,-0.02148431 0.01964,-0.01855472 0.043511,-0.02826611 0.069715,-0.03336597 0.032607,-0.0062933 0.065485,-0.0061306 0.098417,-0.005154 0.00564,1.625e-4 0.011556,0.0018446 0.016926,0.0040147 0.013672,0.00542542 0.016547,0.01329209 0.010851,0.02821181 -0.00309,0.007921 -0.0089,0.01654736 0.00201,0.0223525 0.00982,0.0052083 0.019368,0.0018988 0.027289,-0.0053169 0.00266,-0.0023329 0.00434,-0.0057508 0.00618,-0.0088433 0.01351,-0.02273208 0.029786,-0.032335 0.054146,-0.0232747214 0.035047,0.0130208314 0.066894,0.008734861 0.09885,-0.007215699 0.00206,-0.00103055 0.00423,-0.00162764 0.00635,-0.00244139 l 0.00103,3.25e-4 c 0.00282,0.01014542 -0.00125,0.01969403 -0.00331,0.02924265 -0.030761,0.14518223 -0.06098,0.29052724 -0.091851,0.43576392 -0.00651,0.0303276 -0.011556,0.0609808 -0.021918,0.0903863"
         id="path63906" />
      <path
         style="fill:#1e632e;fill-opacity:1;fill-rule:evenodd;stroke:none;stroke-width:0.0138889"
         d="m 3.148379,0.99107045 c -0.015354,0 -0.02436,-0.0105251 -0.021647,-0.0244682 0.00456,-0.0229493 0.010525,-0.0455729 0.016656,-0.0681424 0.00298,-0.0109593 0.011936,-0.0152996 0.022788,-0.0156793 0.012694,-4.3333e-4 0.023492,-0.003852 0.031683,-0.0148113 0.00618,-0.008192 0.013672,-0.005968 0.018772,0.001899 0.00396,0.006131 0.00537,0.0131293 0.00325,0.0207249 -0.00928,0.0336914 -0.025119,0.0635308 -0.050129,0.0882704 -0.00694,0.006836 -0.014757,0.0117729 -0.021376,0.0122069"
         id="path63908" />
      <path
         style="fill:#751417;fill-opacity:1;fill-rule:evenodd;stroke:none;stroke-width:0.0138889"
         d="M 3.207461,0.54700583 C 3.214731,0.51087303 3.221785,0.47474013 3.229325,0.43866166 3.254499,0.31854443 3.279672,0.19842719 3.305226,0.07836427 3.311356,0.04939288 3.315968,0.02004176 3.32454,-0.00838699 3.3642,-0.02379505 3.403154,-0.0246631 3.4417816,-0.00404671 c 0.026639,0.01421444 0.052789,0.02897139 0.078614,0.04459639 0.08024,0.04855681 0.1432834,0.11382376 0.1936306,0.19205724 0.00602,0.009386 0.012749,0.0176324 0.013346,0.0306532 5.417e-4,0.0115018 0.00591,0.0244683 0.019803,0.0294596 0.0038,0.001357 0.00429,0.00548 0.00564,0.008789 0.00868,0.020779 0.017144,0.0416124 0.026206,0.0622287 0.00488,0.0111219 0.00244,0.0197482 -0.00602,0.0279404 -0.013618,0.0131836 -0.02653,0.0270725 -0.040149,0.0402561 -0.00575,0.005642 -0.00694,0.010905 -0.00255,0.0178494 0.023818,0.0374892 0.025879,0.0807292 0.031901,0.12288404 9.722e-4,0.006673 -0.00125,0.0130751 -0.00467,0.022461 -0.00868,-0.0142144 -0.018664,-0.0243597 -0.021864,-0.0387369 -0.0026,-0.0118815 -0.00597,-0.0234918 -0.010851,-0.0346679 -0.00852,-0.0196399 -0.021593,-0.0328235 -0.044271,-0.0342882 -0.014432,-9.2222e-4 -0.020344,-0.0123156 -0.025065,-0.0236546 -0.00396,-0.009549 -0.0057,-0.0198568 -0.00656,-0.0302192 -7.638e-4,-0.009277 -0.0038,-0.0118272 -0.012425,-0.005751 -0.031304,0.0221896 -0.051269,0.0514322 -0.057725,0.0894097 -0.00282,0.0163844 -0.00515,0.0328775 -0.00532,0.0495876 0,0.007107 -0.020237,0.0253364 -0.02729,0.0242513 -0.00542,-8.1389e-4 -0.00564,-0.006456 -0.00716,-0.0102539 -0.015679,-0.0392794 -0.031304,-0.0786132 -0.046604,-0.11805557 -0.00461,-0.0117729 -0.011447,-0.0212131 -0.022135,-0.0281033 -0.012479,-0.008029 -0.02512,-0.016059 -0.036785,-0.0252821 -0.014051,-0.0111762 -0.029025,-0.016276 -0.047308,-0.0149197 -0.019749,0.001519 -0.03966,3.7916e-4 -0.059517,9.2222e-4 -0.00825,2.1667e-4 -0.013508,-0.001953 -0.016547,-0.0103082 -0.00179,-0.004991 -0.00119,-0.0133464 -0.011121,-0.0120443 -0.00949,0.001193 -0.018339,0.001247 -0.022896,0.0126411 -0.014268,0.0354818 -0.029133,0.0708008 -0.044271,0.10590279 -0.00798,0.0185547 -0.014214,0.0378689 -0.02436,0.0554471"
         id="path63910" />
      <path
         style="fill:#751417;fill-opacity:1;fill-rule:evenodd;stroke:none;stroke-width:0.0138889"
         d="m 3.8135805,0.63093598 c -0.0025,0.0497504 -0.013943,0.0977647 -0.027724,0.14539932 -0.00271,0.009549 -0.00798,0.009711 -0.014865,0.004449 C 3.7626415,0.7743823 3.7554205,0.7672751 3.7543355,0.7557192 3.7534744,0.7461162 3.7488055,0.7388464 3.7392535,0.7351571 3.7288905,0.7311971 3.7245505,0.7222449 3.7223795,0.7122622 3.7162995,0.6841589 3.7105535,0.6559471 3.7045305,0.6278437 c -0.00103,-0.004937 -0.00174,-0.009874 -1.667e-4,-0.0146485 0.00212,-0.006185 0.0026,-0.008735 0.012478,-0.00548 0.014974,0.004991 0.028158,0.007813 0.035374,0.0240343 0.00255,0.005642 0.01161,0.006131 0.018175,0.001301 0.00689,-0.0051 0.013835,-0.0100911 0.020942,-0.0148654 0.00553,-0.003689 0.011556,-0.005425 0.017794,-0.001736 0.00559,0.003418 0.0051,0.00906 0.00445,0.0144857"
         id="path63912" />
      <path
         style="fill:#751417;fill-opacity:1;fill-rule:evenodd;stroke:none;stroke-width:0.0138889"
         d="m 3.256561,0.50414555 c 0.00646,-0.0289171 0.012532,-0.0572917 0.019151,-0.0855578 0.0032,-0.0136718 0.016872,-0.0182833 0.027994,-0.009766 0.011718,0.009006 0.022949,0.0187175 0.034885,0.0274522 0.0077,0.005642 0.00613,0.009494 5.972e-4,0.0160049 -0.021756,0.0258246 -0.048936,0.0429144 -0.082628,0.0518663"
         id="path63914" />
      <path
         style="fill:#479eca;fill-opacity:1;fill-rule:evenodd;stroke:none;stroke-width:0.0138889"
         d="m 3.0609221,0.36883735 c 0.00564,0.0135635 0.010906,0.0263129 0.016276,0.0390083 0.00591,0.0141058 0.014649,0.025065 0.02946,0.0316297 0.014919,0.006619 0.014865,0.014106 0.00477,0.0270182 -0.00792,0.0100369 -0.013075,0.0124783 -0.023328,0.00217 -0.00873,-0.008789 -0.016439,-0.0167643 -0.019315,-0.0295681 -0.00347,-0.0157336 -0.00917,-0.0310331 -0.013943,-0.046441 -0.00277,-0.008735 -0.00228,-0.0165474 0.00608,-0.0238174"
         id="path63916" />
      <path
         style="fill:#ffffff;fill-opacity:1;fill-rule:nonzero;stroke:none;stroke-width:0.0138889"
         d="M 3.6853263,0.98830365 3.6183221,1.0553609 3.0592943,0.49627874 3.1262985,0.42927582 Z m 0,0"
         id="path63918" />
      <path
         style="fill:#ffffff;fill-opacity:1;fill-rule:nonzero;stroke:none;stroke-width:0.0138889"
         d="M 3.2358902,0.14542163 3.3286092,0.16527833 3.2084911,0.7265306 3.1158271,0.7066738 Z m 0,0"
         id="path63920" />
    </g>
  </g>
</svg>
