<?xml version="1.0" encoding="UTF-8" standalone="no"?>
<svg
   xmlns:dc="http://purl.org/dc/elements/1.1/"
   xmlns:cc="http://creativecommons.org/ns#"
   xmlns:rdf="http://www.w3.org/1999/02/22-rdf-syntax-ns#"
   xmlns:svg="http://www.w3.org/2000/svg"
   xmlns="http://www.w3.org/2000/svg"
   xmlns:sodipodi="http://sodipodi.sourceforge.net/DTD/sodipodi-0.dtd"
   xmlns:inkscape="http://www.inkscape.org/namespaces/inkscape"
   id="svg8"
   version="1.1"
   viewBox="0 0 66.341538 31.608602"
   height="31.608603mm"
   width="66.341537mm"
   sodipodi:docname="climateclockurl.svg"
   inkscape:version="0.92.4 5da689c313, 2019-01-14">
  <sodipodi:namedview
     pagecolor="#ffffff"
     bordercolor="#666666"
     borderopacity="1"
     objecttolerance="10"
     gridtolerance="10"
     guidetolerance="10"
     inkscape:pageopacity="0"
     inkscape:pageshadow="2"
     inkscape:window-width="2463"
     inkscape:window-height="1423"
     id="namedview922"
     showgrid="false"
     inkscape:zoom="2.6818996"
     inkscape:cx="183.84729"
     inkscape:cy="32.269625"
     inkscape:window-x="0"
     inkscape:window-y="0"
     inkscape:window-maximized="1"
     inkscape:current-layer="layer1"
     fit-margin-top="0"
     fit-margin-left="0"
     fit-margin-right="0"
     fit-margin-bottom="0" />
  <defs
     id="defs2" />
  <metadata
     id="metadata5">
    <rdf:RDF>
      <cc:Work
         rdf:about="">
        <dc:format>image/svg+xml</dc:format>
        <dc:type
           rdf:resource="http://purl.org/dc/dcmitype/StillImage" />
        <dc:title></dc:title>
      </cc:Work>
    </rdf:RDF>
  </metadata>
  <g
     transform="translate(-62.778287,-157.3952)"
     id="layer1">
    <g
       id="g4690">
      <path
         d="m 68.366287,169.04745 q -0.968375,0 -1.9685,-0.33338 -1.000125,-0.33337 -1.80975,-1.03187 -0.79375,-0.71438 -1.30175,-1.80975 -0.508,-1.11125 -0.508,-2.65113 0,-1.36525 0.4445,-2.44475 0.460375,-1.09537 1.222375,-1.8415 0.762,-0.74612 1.778,-1.143 1.016,-0.39687 2.143125,-0.39687 1.5875,0 2.841625,0.65087 1.254125,0.635 2.032,1.92088 l -2.6035,1.88912 q -0.428625,-0.6985 -1.000125,-1.04775 -0.555625,-0.36512 -1.23825,-0.36512 -0.333375,0 -0.714375,0.14287 -0.381,0.127 -0.714375,0.4445 -0.3175,0.3175 -0.53975,0.85725 -0.206375,0.53975 -0.206375,1.3335 0,0.77788 0.22225,1.31763 0.22225,0.53975 0.53975,0.87312 0.333375,0.3175 0.73025,0.46038 0.41275,0.14287 0.762,0.14287 0.66675,0 1.190625,-0.33337 0.523875,-0.33338 1.031875,-0.87313 l 2.4765,1.95263 q -0.873125,1.30175 -2.19075,1.79387 -1.30175,0.49213 -2.619375,0.49213 z"
         style="fill:#00dd72"
         id="path852"
         inkscape:connector-curvature="0" />
      <path
         d="m 74.033649,168.87282 v -11.27125 h 3.413125 v 8.128 h 4.445 v 3.14325 z"
         style="fill:#00dd72"
         id="path854"
         inkscape:connector-curvature="0" />
      <path
         d="m 83.003,168.87282 v -11.27125 h 3.413125 v 11.27125 z"
         style="fill:#00dd72"
         id="path856"
         inkscape:connector-curvature="0" />
      <path
         d="m 87.686096,168.87282 v -11.27125 h 3.063875 l 3.048,5.09588 3.175,-5.09588 h 3.047999 v 11.27125 h -3.413124 v -4.84187 l -2.57175,3.85762 h -0.4445 l -2.492375,-3.8735 v 4.85775 z"
         style="fill:#00dd72"
         id="path858"
         inkscape:connector-curvature="0" />
      <path
         d="m 108.79982,168.87282 -0.42862,-1.36525 h -3.66713 l -0.42862,1.36525 h -3.6195 l 3.96875,-11.27125 h 3.60362 l 4.064,11.27125 z m -2.30187,-7.20725 -0.98425,3.19088 h 2.00025 z"
         style="fill:#00dd72"
         id="path860"
         inkscape:connector-curvature="0" />
      <path
         d="m 113.87982,168.87282 v -8.33437 h -2.8575 v -2.921 h 9.11225 v 2.921 h -2.8575 v 8.33437 z"
         style="fill:#00dd72"
         id="path862"
         inkscape:connector-curvature="0" />
      <path
         d="m 120.92832,168.87282 v -11.27125 h 8.1915 v 3.03213 h -4.77838 v 1.25412 h 4.01638 v 2.69875 h -4.01638 v 1.25413 h 4.74663 v 3.03212 z"
         style="fill:#00dd72"
         id="path864"
         inkscape:connector-curvature="0" />
    </g>
    <g
       id="g4681">
      <path
         d="m 75.150962,182.18212 q -0.968375,0 -1.9685,-0.33337 -1.000125,-0.33338 -1.80975,-1.03188 -0.79375,-0.71437 -1.30175,-1.80975 -0.508,-1.11125 -0.508,-2.65112 0,-1.36525 0.4445,-2.44475 0.460375,-1.09538 1.222375,-1.8415 0.762,-0.74613 1.778,-1.143 1.016,-0.39688 2.143125,-0.39688 1.5875,0 2.841625,0.65088 1.254125,0.635 2.032,1.92087 l -2.6035,1.88913 q -0.428625,-0.6985 -1.000125,-1.04775 -0.555625,-0.36513 -1.23825,-0.36513 -0.333375,0 -0.714375,0.14288 -0.381,0.127 -0.714375,0.4445 -0.3175,0.3175 -0.53975,0.85725 -0.206375,0.53975 -0.206375,1.3335 0,0.77787 0.22225,1.31762 0.22225,0.53975 0.53975,0.87313 0.333375,0.3175 0.73025,0.46037 0.41275,0.14288 0.762,0.14288 0.66675,0 1.190625,-0.33338 0.523875,-0.33337 1.031875,-0.87312 l 2.4765,1.95262 q -0.873125,1.30175 -2.19075,1.79388 -1.30175,0.49212 -2.619375,0.49212 z"
         style="fill:#ff0000"
         id="path867"
         inkscape:connector-curvature="0" />
      <path
         d="m 80.818324,182.0075 v -11.27125 h 3.413125 v 8.128 h 4.445 v 3.14325 z"
         style="fill:#ff0000"
         id="path869"
         inkscape:connector-curvature="0" />
      <path
         d="m 94.756526,182.198 q -1.190625,0 -2.238375,-0.39688 -1.031875,-0.39687 -1.793875,-1.143 -0.762,-0.762 -1.2065,-1.8415 -0.4445,-1.09537 -0.4445,-2.4765 0,-1.397 0.4445,-2.4765 0.4445,-1.09537 1.2065,-1.82562 0.762,-0.74613 1.793875,-1.12713 1.04775,-0.39687 2.238375,-0.39687 1.17475,0 2.206625,0.39687 1.04775,0.381 1.80975,1.12713 0.777875,0.73025 1.222375,1.82562 0.460374,1.0795 0.460374,2.4765 0,1.38113 -0.460374,2.4765 -0.4445,1.0795 -1.222375,1.8415 -0.762,0.74613 -1.80975,1.143 -1.031875,0.39688 -2.206625,0.39688 z m 0,-3.14325 q 0.34925,0 0.73025,-0.14288 0.396875,-0.14287 0.73025,-0.46037 0.333375,-0.3175 0.555625,-0.84138 0.22225,-0.52387 0.22225,-1.27 0,-0.762 -0.22225,-1.27 -0.22225,-0.508 -0.555625,-0.80962 -0.333375,-0.30163 -0.73025,-0.41275 -0.381,-0.127 -0.73025,-0.127 -0.365125,0 -0.762,0.127 -0.396875,0.11112 -0.73025,0.41275 -0.3175,0.30162 -0.53975,0.80962 -0.206375,0.508 -0.206375,1.27 0,0.74613 0.206375,1.27 0.206375,0.52388 0.523875,0.84138 0.333375,0.3175 0.73025,0.46037 0.41275,0.14288 0.777875,0.14288 z"
         style="fill:#ff0000"
         id="path871"
         inkscape:connector-curvature="0" />
      <path
         d="m 106.67865,182.18212 q -0.96837,0 -1.9685,-0.33337 -1.00012,-0.33338 -1.80975,-1.03188 -0.79375,-0.71437 -1.30175,-1.80975 -0.508,-1.11125 -0.508,-2.65112 0,-1.36525 0.4445,-2.44475 0.46038,-1.09538 1.22238,-1.8415 0.762,-0.74613 1.778,-1.143 1.016,-0.39688 2.14312,-0.39688 1.5875,0 2.84163,0.65088 1.25412,0.635 2.032,1.92087 l -2.6035,1.88913 q -0.42863,-0.6985 -1.00013,-1.04775 -0.55562,-0.36513 -1.23825,-0.36513 -0.33337,0 -0.71437,0.14288 -0.381,0.127 -0.71438,0.4445 -0.3175,0.3175 -0.53975,0.85725 -0.20637,0.53975 -0.20637,1.3335 0,0.77787 0.22225,1.31762 0.22225,0.53975 0.53975,0.87313 0.33337,0.3175 0.73025,0.46037 0.41275,0.14288 0.762,0.14288 0.66675,0 1.19062,-0.33338 0.52388,-0.33337 1.03188,-0.87312 l 2.4765,1.95262 q -0.87313,1.30175 -2.19075,1.79388 -1.30175,0.49212 -2.61938,0.49212 z"
         style="fill:#ff0000"
         id="path873"
         inkscape:connector-curvature="0" />
      <path
         d="m 112.34602,182.0075 v -11.27125 h 3.41312 v 3.95287 l 2.52413,-3.95287 h 4.28625 l -4.01638,5.55625 4.42913,5.715 h -4.20688 l -2.57175,-3.556 -0.4445,0.6985 v 2.8575 z"
         style="fill:#ff0000"
         id="path875"
         inkscape:connector-curvature="0" />
    </g>
    <g
       aria-label=".WORLD"
       transform="matrix(0.10187851,0,0,0.10187851,95.711147,186.75573)"
       style="font-style:normal;font-variant:normal;font-weight:bold;font-stretch:normal;font-size:68.15733337px;line-height:1.25;font-family:Helvetica;-inkscape-font-specification:'Helvetica, Bold';font-variant-ligatures:normal;font-variant-caps:normal;font-variant-numeric:normal;font-feature-settings:normal;text-align:start;letter-spacing:0px;word-spacing:0px;writing-mode:lr-tb;text-anchor:start;fill:#ffffff;fill-opacity:1;stroke:none"
       id="flowRoot943">
      <path
         d="m -128.2341,21.998053 q -3.27156,0 -5.04365,-1.703934 -1.70393,-1.77209 -1.70393,-5.1118 0,-3.407866 1.70393,-5.1118 1.77209,-1.7039331 5.04365,-1.7039331 3.20339,0 4.97548,1.7039331 1.84025,1.703934 1.84025,5.1118 0,3.33971 -1.84025,5.1118 -1.77209,1.703934 -4.97548,1.703934 z"
         style="font-style:normal;font-variant:normal;font-weight:normal;font-stretch:normal;font-family:'Klima Ultra';-inkscape-font-specification:'Klima Ultra';fill:#ffffff;fill-opacity:1"
         id="path838" />
      <path
         d="m -104.58357,21.248322 -14.44936,-48.391707 h 15.8125 l 6.066007,25.1500562 7.769936,-25.1500562 h 9.746499 l 7.769936,25.1500562 5.452587,-25.1500562 h 15.744344 l -14.381198,48.391707 h -13.01805 L -84.817945,0.66480724 -91.565521,21.248322 Z"
         style="font-style:normal;font-variant:normal;font-weight:normal;font-stretch:normal;font-family:'Klima Ultra';-inkscape-font-specification:'Klima Ultra';fill:#ffffff;fill-opacity:1"
         id="path840" />
      <path
         d="m -26.611803,22.06621 q -5.1118,0 -9.610184,-1.703933 -4.430226,-1.703934 -7.701778,-4.907328 -3.271552,-3.271552 -5.179958,-7.9062511 -1.908405,-4.702856 -1.908405,-10.632544 0,-5.9978453 1.908405,-10.6325439 1.908406,-4.702856 5.179958,-7.838093 3.271552,-3.203395 7.701778,-4.839171 4.498384,-1.703933 9.610184,-1.703933 5.043643,0 9.47387,1.703933 4.498384,1.635776 7.7699357,4.839171 3.3397093,3.135237 5.2481147,7.838093 1.9765626,4.6346986 1.9765626,10.6325439 0,5.929688 -1.9765626,10.632544 -1.9084054,4.6346991 -5.2481147,7.9062511 -3.2715517,3.203394 -7.7699357,4.907328 -4.430227,1.703933 -9.47387,1.703933 z m 0,-13.4951521 q 1.499462,0 3.135238,-0.613416 1.703933,-0.613416 3.135237,-1.9765627 1.431304,-1.3631466 2.385507,-3.6123386 0.954202,-2.24919203 0.954202,-5.4525867 0,-3.271552 -0.954202,-5.4525867 -0.954203,-2.1810342 -2.385507,-3.4760242 -1.431304,-1.294989 -3.135237,-1.77209 -1.635776,-0.545259 -3.135238,-0.545259 -1.567618,0 -3.271552,0.545259 -1.703933,0.477101 -3.135237,1.77209 -1.363147,1.29499 -2.317349,3.4760242 -0.886046,2.1810347 -0.886046,5.4525867 0,3.20339467 0.886046,5.4525867 0.886045,2.249192 2.249192,3.6123386 1.431304,1.3631467 3.135237,1.9765627 1.772091,0.613416 3.339709,0.613416 z"
         style="font-style:normal;font-variant:normal;font-weight:normal;font-stretch:normal;font-family:'Klima Ultra';-inkscape-font-specification:'Klima Ultra';fill:#ffffff;fill-opacity:1"
         id="path842" />
      <path
         d="M 1.9461267,21.248322 V -27.143385 H 22.734113 q 5.316272,0 9.133083,1.499462 3.884968,1.499461 6.338632,3.953125 2.453664,2.385507 3.612339,5.520744 1.158674,3.06708 1.158674,6.2704746 0,3.884968 -2.181034,7.6336213 -2.112878,3.680496 -6.13416,6.13416 L 43.999201,21.248322 H 28.868273 L 22.257012,6.9352819 H 16.531796 V 21.248322 Z M 16.531796,-14.261649 v 8.3833522 h 5.725216 q 1.976563,0 3.953125,-0.6815733 1.976563,-0.6815733 1.976563,-3.6123389 0,-1.499461 -0.681573,-2.317349 -0.613416,-0.817888 -1.499462,-1.226832 -0.886045,-0.408944 -1.908405,-0.477101 -1.02236,-0.06816 -1.840248,-0.06816 z"
         style="font-style:normal;font-variant:normal;font-weight:normal;font-stretch:normal;font-family:'Klima Ultra';-inkscape-font-specification:'Klima Ultra';fill:#ffffff;fill-opacity:1"
         id="path844" />
      <path
         d="M 47.747778,21.248322 V -27.143385 H 62.401604 V 7.7531699 H 81.485658 V 21.248322 Z"
         style="font-style:normal;font-variant:normal;font-weight:normal;font-stretch:normal;font-family:'Klima Ultra';-inkscape-font-specification:'Klima Ultra';fill:#ffffff;fill-opacity:1"
         id="path846" />
      <path
         d="m 86.256582,21.248322 v -48.391707 h 17.516438 q 5.5889,0 10.29175,1.635776 4.77102,1.635776 8.11073,4.702856 3.33971,3.06708 5.17995,7.497307 1.90841,4.4302266 1.90841,9.9509706 0,6.338632 -1.84025,10.9733306 -1.84025,4.6346988 -5.17996,7.7017788 -3.33971,2.998923 -8.11072,4.498384 -4.70285,1.431304 -10.35991,1.431304 z M 100.91041,7.6850126 h 2.79445 q 4.77101,0 7.83809,-2.5218214 3.13524,-2.5218213 3.13524,-8.5196666 0,-5.725216 -3.13524,-7.9744076 -3.13523,-2.249192 -7.83809,-2.249192 h -2.79445 z"
         style="font-style:normal;font-variant:normal;font-weight:normal;font-stretch:normal;font-family:'Klima Ultra';-inkscape-font-specification:'Klima Ultra';fill:#ffffff;fill-opacity:1"
         id="path848" />
    </g>
  </g>
</svg>
