<?xml version="1.0" encoding="UTF-8" standalone="no"?>
<svg
   xmlns:dc="http://purl.org/dc/elements/1.1/"
   xmlns:cc="http://creativecommons.org/ns#"
   xmlns:rdf="http://www.w3.org/1999/02/22-rdf-syntax-ns#"
   xmlns:svg="http://www.w3.org/2000/svg"
   xmlns="http://www.w3.org/2000/svg"
   id="svg2580"
   version="1.1"
   viewBox="0 0 279.09027 158.58089"
   height="158.58089mm"
   width="279.09027mm">
  <defs
     id="defs2574" />
  <metadata
     id="metadata2577">
    <rdf:RDF>
      <cc:Work
         rdf:about="">
        <dc:format>image/svg+xml</dc:format>
        <dc:type
           rdf:resource="http://purl.org/dc/dcmitype/StillImage" />
        <dc:title></dc:title>
      </cc:Work>
    </rdf:RDF>
  </metadata>
  <g
     transform="translate(90.952623,-230.01988)"
     id="layer1">
    <g
       transform="translate(105.07738,232.07738)"
       id="g3175">
      <path
         id="path3181"
         d="M -81.245983,156.45741 C -90.593234,155.31749 -97.130858,149.74934 -99.539206,140.87693 -100.02168,139.09947 -100.11474,138.03944 -100.1199,134.26234 -100.12511,130.43987 -100.0391,129.44872 -99.547112,127.66204 -97.486058,120.17725 -92.433077,115.04141 -85.234799,113.11502 -76.430813,110.75892 -67.221357,113.33777 -62.021853,119.61515 -60.484698,121.47097 -58.623571,125.25947 -57.945804,127.91234 -57.239525,130.67683 -57.01436,134.94822 -57.415801,137.96651 -58.087808,143.01906 -60.018418,147.03664 -63.391527,150.40193 -66.440387,153.44372 -69.470739,155.09457 -73.603676,155.96521 -75.639195,156.39401 -79.648527,156.65223 -81.245983,156.45741 Z M -76.067595,144.00539 C -74.219764,143.377 -71.998219,141.10475 -71.196285,139.02289 -70.060329,136.0739 -70.197245,131.40868 -71.491939,128.94897 -72.912627,126.2499 -75.080535,124.84209 -78.093468,124.66204 -81.949336,124.43162 -84.472244,125.79054 -85.9905,128.91564 -88.43126,133.93956 -87.048732,140.76423 -83.083102,143.26762 -81.139872,144.49433 -78.36384,144.78626 -76.067595,144.00539 Z M -166.5949,155.86631 C -167.97615,155.22234 -168.72624,154.25602 -169.25396,152.44073 -170.03284,149.76148 -169.16102,146.61764 -167.2971,145.38416 -165.48121,144.18246 -162.15038,144.04573 -160.13098,145.09001 -158.33573,146.01837 -157.24927,148.55181 -157.52029,151.17771 -157.71733,153.08689 -158.55337,154.61732 -159.87863,155.49486 -160.82971,156.12462 -161.28382,156.23265 -163.24684,156.2961 -165.03348,156.35384 -165.74516,156.26249 -166.5949,155.86631 Z M -147.61399,155.36286 C -147.90371,154.80575 -148.82489,151.77657 -155.07664,130.82276 -157.7251,121.94599 -159.90721,114.32599 -159.92577,113.88943 L -159.95953,113.09568 -153.53481,113.02481 C -149.88057,112.9845 -146.90975,113.06116 -146.64549,113.20259 -146.32437,113.37445 -145.9902,114.29518 -145.56347,116.18388 -145.2239,117.68683 -144.37448,121.23823 -143.67587,124.07589 -142.97726,126.91354 -142.14698,130.34272 -141.83079,131.69629 -141.48984,133.15588 -141.13787,134.11797 -140.96583,134.06063 -140.80628,134.00744 -139.25766,129.38764 -137.52444,123.79439 -135.79122,118.20114 -134.25166,113.47602 -134.1032,113.29412 -133.79898,112.92137 -126.33846,112.81543 -125.77133,113.1758 -125.5945,113.28817 -124.03454,117.95955 -122.30477,123.55664 -120.18998,130.39956 -119.0422,133.73318 -118.80095,133.73318 -118.54799,133.73318 -118.07089,132.01641 -117.18331,127.91234 -116.49093,124.71089 -115.50156,120.13271 -114.98471,117.73861 -114.46785,115.34452 -113.89824,113.29251 -113.71891,113.1786 -113.53958,113.06469 -110.50186,112.96966 -106.96841,112.96744 -101.34263,112.96389 -100.52392,113.01559 -100.38281,113.38333 -100.29418,113.61429 -101.42801,117.87077 -102.90242,122.84218 -104.37683,127.81358 -107.13577,137.1122 -109.0334,143.50577 -110.93102,149.89934 -112.61348,155.28692 -112.7722,155.47817 -112.9928,155.74397 -114.29461,155.82588 -118.29841,155.82588 -121.1791,155.82588 -123.7227,155.75425 -123.95085,155.66671 -124.22298,155.56228 -125.28621,152.67263 -127.0418,147.26618 -128.51367,142.73345 -129.81489,138.92186 -129.9334,138.79601 -130.29286,138.41424 -130.81768,139.76549 -133.36212,147.6238 -134.70498,151.77114 -135.92528,155.31325 -136.0739,155.49515 -136.27436,155.74052 -137.76752,155.82588 -141.85865,155.82588 -146.84248,155.82588 -147.39637,155.78132 -147.61399,155.36286 Z M -53.60755,155.49515 C -53.676966,155.31325 -53.702993,145.69896 -53.665393,134.13005 L -53.597025,113.09568 -42.616817,113.11451 C -32.193993,113.13239 -31.529161,113.1626 -29.519942,113.70963 -23.101306,115.45715 -19.068969,119.36945 -17.881164,125.00193 -17.15229,128.4582 -17.456341,131.0034 -18.971618,134.13005 -19.730234,135.69539 -20.431885,136.60159 -22.294377,138.42146 L -24.655442,140.7285 -20.788866,147.91507 C -18.662251,151.86769 -16.984822,155.2646 -17.06125,155.46376 -17.25475,155.96802 -29.3447,155.99746 -29.948929,155.49515 -30.167737,155.31325 -30.802644,154.15239 -31.359833,152.91547 -31.917022,151.67854 -33.150668,149.02521 -34.101268,147.01917 L -35.829632,143.37183 -38.231036,143.44729 -40.632442,143.52276 -40.703874,149.32285 C -40.749869,153.0575 -40.879179,155.24811 -41.067001,155.47441 -41.478315,155.97002 -53.418802,155.98977 -53.60755,155.49515 Z M -33.205286,131.45188 C -31.498173,131.02202 -30.710567,129.98809 -30.710567,128.17693 -30.710567,127.04322 -30.845787,126.60162 -31.391525,125.95305 -32.346335,124.81832 -33.516407,124.56257 -37.32515,124.65612 L -40.632442,124.73734 -40.707422,127.89694 C -40.748663,129.63472 -40.722633,131.2123 -40.649581,131.40267 -40.479055,131.84705 -34.920598,131.8838 -33.205286,131.45188 Z M -13.19515,155.50838 C -13.695895,155.00764 -13.650477,113.67173 -13.148724,113.25531 -12.893649,113.04362 -10.974574,112.97458 -6.7325777,113.02448 L -0.68035833,113.09568 -0.54264271,128.30922 C -0.46690044,136.67667 -0.37760356,143.55253 -0.34420521,143.58891 -0.3108095,143.62529 3.278655,143.65505 7.6323764,143.65505 11.9861,143.65505 15.736569,143.72732 15.966751,143.81565 16.330662,143.9553 16.385267,144.72833 16.385267,149.74047 16.385267,154.7526 16.330662,155.52564 15.966751,155.66528 15.736569,155.75362 9.1524129,155.82588 1.3352931,155.82588 -9.3664413,155.82588 -12.956086,155.74745 -13.19515,155.50838 Z M 20.749563,155.51912 C 20.675089,155.32404 20.644923,145.69896 20.682523,134.13005 L 20.750892,113.09568 28.5561,113.01893 C 32.848965,112.97671 37.492402,113.06275 38.87485,113.21013 48.683912,114.2558 55.056391,119.10105 57.701539,127.52479 58.259156,129.30058 58.321431,129.99367 58.318828,134.39464 58.316293,138.67563 58.241366,139.54793 57.721314,141.35092 56.609672,145.20491 54.407233,148.86161 51.978554,150.8856 50.07009,152.47605 46.583978,154.19188 43.722543,154.94913 41.189594,155.61945 40.867639,155.63986 31.004387,155.75534 22.705774,155.8525 20.860606,155.81 20.749563,155.51912 Z M 40.747036,142.8144 C 42.746146,141.89918 43.984031,140.74114 44.725129,139.09292 45.282344,137.85364 45.350919,137.31234 45.35385,134.13005 45.357025,130.6843 45.330175,130.50952 44.593467,129.1801 43.744228,127.64762 42.542155,126.69389 40.465192,125.90471 38.971336,125.33709 35.406681,124.95121 34.276744,125.23481 L 33.583183,125.40888 V 134.35558 C 33.583183,139.27626 33.67248,143.39448 33.781621,143.50717 33.890761,143.61986 35.174298,143.6604 36.633922,143.59727 38.74485,143.50596 39.586325,143.3458 40.747036,142.8144 Z M -65.912009,103.69475 C -74.95965,102.43006 -82.71563,96.709192 -86.589281,88.443032 -88.294023,84.80521 -88.97637,81.715969 -89.004329,77.509222 -89.036711,72.636483 -88.308982,69.426093 -86.215462,65.206097 -84.853037,62.459802 -83.514674,60.669589 -80.8656,58.05005 -77.442886,54.6655 -73.415375,52.43756 -68.618564,51.275235 -65.332264,50.478927 -59.796982,50.466351 -56.639733,51.248023 -45.314429,54.051942 -37.353254,63.13187 -35.997852,74.790628 -35.437607,79.609667 -36.355,84.386136 -38.781358,89.283179 -42.353186,96.492085 -49.052542,101.65442 -57.007618,103.32783 -59.369924,103.82475 -63.704217,104.00335 -65.912009,103.69475 Z M -53.806183,98.822734 C -48.6951,96.443092 -44.37474,91.250264 -43.007723,85.843596 -41.296572,79.075851 -43.28091,71.519754 -47.814366,67.540535 -51.186671,64.580511 -53.05805,62.726846 -52.866966,62.535758 -52.514027,62.18282 -50.64215,62.944122 -48.624771,64.261082 -46.072127,65.927465 -44.056917,68.356417 -42.357631,71.814926 -40.832393,74.919194 -40.287742,76.819038 -40.057841,79.837047 -39.84996,82.56592 -39.475488,82.329718 -39.26703,79.338236 -39.001878,75.53311 -40.007946,71.193157 -41.895121,68.001238 -43.169566,65.845675 -46.393559,62.585238 -48.627171,61.193088 -49.703425,60.522287 -51.619116,59.611322 -52.884261,59.168716 -54.936912,58.450608 -55.526301,58.362264 -58.359525,58.348029 -60.105775,58.339255 -62.100072,58.386579 -62.791296,58.453193 L -64.048067,58.574309 -64.030795,60.17041 C -64.021293,61.048268 -63.863305,64.981202 -63.679708,68.910264 -63.354618,75.867347 -63.367675,76.820794 -63.785835,76.660507 -63.896791,76.617978 -66.982984,73.785211 -70.644042,70.365472 -74.3051,66.945733 -77.39673,64.113945 -77.514332,64.072612 -77.631931,64.031276 -78.247161,64.670192 -78.881505,65.492422 -79.515852,66.314649 -80.079787,66.852599 -80.134699,66.687865 -80.274764,66.267674 -79.476431,64.016044 -79.001197,63.490915 -78.646309,63.098771 -78.697427,62.966659 -79.508052,62.180971 L -80.409601,61.307155 -81.016052,62.462876 C -83.027685,66.296466 -83.627233,68.612126 -83.627233,72.548131 -83.627233,75.760908 -82.610847,80.93856 -81.361548,84.089946 -80.993954,85.017207 -80.744323,85.827007 -80.806815,85.889496 -81.022977,86.105658 -82.56663,84.00339 -83.510131,82.207901 -84.854826,79.648941 -85.71038,76.957327 -86.009946,74.343345 -86.152274,73.101401 -86.269701,71.916592 -86.270897,71.710436 -86.275982,70.831983 -86.588307,71.761197 -86.809906,73.314081 -87.121461,75.497325 -86.696056,79.371576 -85.879888,81.783959 -83.736602,88.11897 -78.433793,92.920226 -71.588692,94.72346 -69.723345,95.214857 -69.01415,95.26222 -65.615715,95.122364 -63.012458,95.015231 -61.143645,94.793029 -59.864377,94.438527 -57.534567,93.792904 -57.257168,93.779011 -57.715196,94.330903 -59.096704,95.995518 -65.528791,97.61468 -69.194123,97.220515 -71.922217,96.92714 -75.185125,96.055166 -77.223449,95.074771 -78.297043,94.558391 -79.230721,94.191179 -79.298282,94.258743 -79.731675,94.692135 -75.183212,97.427353 -72.317267,98.456778 -70.185278,99.222572 -64.15204,99.437533 -61.601642,98.838569 -54.768473,97.233797 -48.3106,90.972007 -47.381134,85.049846 -47.244101,84.176721 -46.921294,82.003831 -46.663788,80.221201 -46.40628,78.438571 -46.113976,76.980055 -46.014223,76.980055 -45.511956,76.980055 -45.13157,79.185185 -45.147046,82.007138 -45.161063,84.56359 -45.276027,85.388111 -45.866408,87.166513 -47.255328,91.35034 -50.766396,95.909462 -54.48707,98.360443 -56.35823,99.59306 -55.993134,99.840943 -53.806183,98.822734 Z M -47.269089,58.590768 C -50.776916,55.453538 -56.193709,53.765721 -61.613657,54.121146 L -64.338624,54.299843 -64.25949,55.519639 C -64.16891,56.915892 -64.405156,56.858316 -60.827746,56.355986 -56.922922,55.80768 -52.286274,56.634257 -48.569942,58.541185 -46.231308,59.74119 -45.971704,59.751083 -47.269089,58.590768 Z M -151.31816,102.23281 C -158.92323,100.84422 -164.7174,96.612209 -167.96111,90.076929 -171.58862,82.768397 -171.47715,72.505052 -167.69124,65.22805 -165.3474,60.722889 -162.1683,57.633985 -157.57828,55.402005 -148.68185,51.075962 -136.74258,52.590683 -129.91525,58.911578 -127.67561,60.985094 -125.81973,63.619492 -126.12519,64.291533 -126.40034,64.896884 -136.44934,72.217555 -137.00515,72.217555 -137.21556,72.217555 -138.19787,71.35005 -139.18805,70.28977 -141.97873,67.301539 -144.77185,66.114261 -147.70326,66.670193 -152.42153,67.564995 -155.33806,71.708756 -155.32472,77.498665 -155.31257,82.774213 -153.20276,86.759864 -149.52193,88.460741 -148.59195,88.890474 -147.80592,89.015717 -146.0689,89.010928 -144.02653,89.005298 -143.66808,88.923013 -142.16674,88.115139 -141.25748,87.625866 -139.7914,86.527658 -138.90879,85.674678 -138.02617,84.821699 -137.14685,84.123805 -136.95474,84.123805 -136.63657,84.123805 -127.8584,90.891483 -126.62848,92.085011 -126.11296,92.585285 -126.11267,92.605063 -126.60794,93.524722 -127.43127,95.053543 -131.18413,98.444369 -133.23661,99.513923 -138.36607,102.18691 -145.60664,103.27566 -151.31816,102.23281 Z M -10.734525,102.08748 C -12.515951,101.98615 -14.803557,101.66861 -15.946412,101.36403 -26.708424,98.495846 -33.098029,89.539796 -33.08942,77.335369 -33.082913,68.112119 -29.050777,60.266964 -22.174873,56.099402 -18.414784,53.820371 -15.147317,52.880547 -10.345238,52.696842 -2.8375803,52.409634 3.120196,54.374559 7.6433831,58.629651 9.8150487,60.672597 11.358183,62.76447 11.358183,63.665431 11.358183,64.049217 9.991793,65.180637 6.3972458,67.77327 3.6687302,69.741259 1.1736591,71.488165 0.85264279,71.655279 0.32049162,71.932305 0.08907646,71.771928 -1.7693595,69.838139 -4.4831326,67.014329 -5.9798567,66.26319 -8.8836826,66.267772 -10.6562,66.270569 -11.245634,66.390515 -12.498036,67.003256 -14.355589,67.912073 -15.706668,69.38045 -16.778868,71.655744 -17.521114,73.230849 -17.614816,73.712536 -17.704875,76.415887 -17.827062,80.083678 -17.449933,82.046434 -16.23376,84.072264 -14.99184,86.140977 -14.190296,86.918725 -12.355048,87.835808 -11.040354,88.492768 -10.4641,88.621721 -8.8430187,88.621721 -5.8312799,88.621721 -3.9334475,87.717703 -0.90022179,84.838238 -0.03503165,84.016905 0.33582423,83.827924 0.81956988,83.961861 1.1587763,84.055778 3.5794333,85.828737 6.1988083,87.901769 9.5254754,90.534566 10.987372,91.853802 11.047764,92.277532 11.239843,93.62528 6.9419965,97.86105 3.8175583,99.403306 1.5126062,100.54105 -3.4169067,101.84801 -6.6334833,102.17418 -7.1428063,102.22583 -8.988275,102.18682 -10.734525,102.08748 Z M -122.9854,77.841925 -122.91786,53.829015 -115.96339,53.758458 C -111.46919,53.712863 -108.82496,53.786356 -108.48891,53.966204 -107.98034,54.238386 -107.9689,54.613809 -107.9689,71.036238 V 87.827971 L -99.039213,87.832022 C -94.127884,87.83425 -89.958607,87.931865 -89.774152,88.048946 -89.514641,88.213665 -89.454792,89.783784 -89.509569,94.990204 L -89.580358,101.7186 -106.31665,101.78671 -123.05295,101.85483 Z M 14.370102,101.20253 C 14.311936,101.0498 14.295066,90.268752 14.332619,77.244638 L 14.400892,53.564431 21.658637,53.493946 C 27.288664,53.439268 28.96408,53.498608 29.129063,53.75853 29.246041,53.942817 29.343571,57.22891 29.345799,61.060958 29.348858,66.32411 29.426778,68.002677 29.664358,67.923484 29.837337,67.865824 32.025594,64.611449 34.527151,60.691539 L 39.075433,53.564431 H 48.298081 C 56.288873,53.564431 57.529962,53.617441 57.589866,53.961306 57.62789,54.179588 54.078787,59.299275 49.702968,65.338389 45.327146,71.377503 41.636933,76.518307 41.502491,76.762398 41.310797,77.110436 41.847251,77.966819 43.988587,80.731148 45.490378,82.669869 49.39707,87.708909 52.670124,91.929013 59.510389,100.7485 59.648081,100.94202 59.255424,101.1847 59.098301,101.28181 54.954407,101.36005 50.046775,101.35858 41.725061,101.35608 41.101938,101.32355 40.799217,100.87579 38.775753,97.882822 30.99283,87.435856 30.797698,87.450813 30.656225,87.461658 30.272584,87.866219 29.945163,88.349838 29.3719,89.196576 29.34985,89.447607 29.34985,95.127526 29.34985,98.491465 29.243792,101.09145 29.103025,101.17845 28.62768,101.47223 14.481629,101.49535 14.370102,101.20253 Z M -175.96682,46.887571 C -184.60712,45.287321 -190.39494,41.088838 -193.7086,34.017683 -195.53869,30.112367 -196.25151,25.975482 -195.9709,20.888392 -195.74751,16.838782 -195.01719,13.914334 -193.42706,10.701934 -189.98821,3.7547223 -184.18361,-0.46308403 -176.27137,-1.7639381 -170.43611,-2.7233148 -163.17772,-1.2756633 -158.57047,1.7664236 -155.78894,3.603011 -152.15432,7.5250771 -152.15432,8.6899833 -152.15432,8.9699397 -154.06664,10.515223 -157.23069,12.792027 -160.0227,14.801114 -162.44178,16.496607 -162.60644,16.559793 -162.7711,16.622978 -163.53079,15.95612 -164.29466,15.077888 -166.69342,12.319964 -169.05322,11.078889 -171.98563,11.033015 -174.34702,10.996073 -176.175,11.655424 -177.82566,13.139509 -180.20194,15.275985 -181.25848,18.200087 -181.25848,22.640198 -181.25848,26.770364 -180.14564,29.735055 -177.79978,31.854396 -175.98712,33.492027 -174.62073,33.982382 -171.86578,33.98393 -168.95768,33.985562 -167.53586,33.384521 -164.71971,30.96311 -163.70234,30.088345 -162.72575,29.368676 -162.54951,29.363845 -162.37327,29.359011 -161.59936,29.863682 -160.82972,30.485331 -160.06007,31.106983 -157.85278,32.850378 -155.92463,34.359545 -153.99648,35.868713 -152.4189,37.282802 -152.4189,37.501967 -152.4189,38.057944 -154.45624,40.474013 -156.15611,41.933896 -159.748,45.0187 -166.55783,47.128006 -172.65952,47.045747 -174.11473,47.026128 -175.60301,46.95495 -175.96682,46.887571 Z M -148.39723,45.97089 C -148.81784,45.550285 -148.86032,-0.04102495 -148.44084,-0.82483451 -148.18132,-1.3097596 -147.82157,-1.3366072 -141.58331,-1.3366072 -137.96232,-1.3366072 -134.81135,-1.2643376 -134.58117,-1.176008 -134.20564,-1.0319043 -134.16265,0.70400569 -134.16265,15.724927 -134.16265,29.370367 -134.09729,32.519509 -133.80911,32.758673 -133.56941,32.957606 -130.56637,33.074528 -124.48255,33.121798 L -115.50953,33.191516 -115.43842,39.37614 C -115.38853,43.71604 -115.45738,45.669281 -115.66926,45.924577 -116.08477,46.425241 -147.89786,46.470259 -148.39723,45.97089 Z M -110.70293,46.112 C -110.79994,46.014988 -110.87932,35.361163 -110.87932,22.436836 V -1.0619422 L -110.27733,-1.213032 C -109.94623,-1.2961315 -106.78658,-1.3281654 -103.25587,-1.2842186 -97.898096,-1.2175304 -96.79498,-1.1386785 -96.585874,-0.80744054 -96.187555,-0.17646542 -96.245115,45.571271 -96.644733,45.97089 -96.988877,46.315034 -110.36562,46.449304 -110.70293,46.112 Z M -91.12376,46.112 C -91.220775,46.014988 -91.30015,35.442239 -91.30015,22.617002 -91.30015,4.833084 -91.224791,-0.7769661 -90.98265,-1.0191072 -90.503413,-1.4983451 -78.768025,-1.4666848 -78.286195,-0.98485424 -78.092729,-0.79139012 -75.211642,3.9115784 -71.883776,9.4661868 -68.555911,15.020795 -65.698037,19.565475 -65.532945,19.565475 -65.235104,19.565475 -64.521158,18.459202 -56.543877,5.6367476 -54.267506,1.9777701 -52.216998,-1.0880891 -51.987194,-1.1762729 -51.254828,-1.4573085 -40.236202,-1.3555654 -39.689006,-1.0627148 -39.188994,-0.79511651 -39.177233,-0.25472149 -39.177233,22.452804 -39.177233,41.834723 -39.237566,45.744502 -39.540535,45.995944 -39.7968,46.208624 -41.921052,46.276635 -46.750431,46.226779 L -53.597025,46.156098 -53.666618,36.773172 C -53.704896,31.612562 -53.843574,27.282884 -53.974797,27.151661 -54.116524,27.009934 -56.262879,29.98452 -59.261722,34.4787 -64.430136,42.224277 -64.785183,42.6252 -66.105033,42.206298 -66.39803,42.113302 -68.659931,38.862232 -71.45431,34.517682 -74.117203,30.377559 -76.397663,27.053061 -76.522001,27.129904 -76.646337,27.20675 -76.748067,31.40597 -76.748067,36.461506 -76.748067,43.257972 -76.830807,45.736131 -77.065567,45.97089 -77.40971,46.315034 -90.786456,46.449304 -91.12376,46.112 Z M -36.434938,45.89355 C -36.518271,45.676385 -33.409378,36.478807 -29.526284,25.454488 -25.64319,14.430166 -21.984386,4.0410488 -21.395606,2.3675593 -20.806826,0.69406979 -20.138761,-0.823977 -19.911013,-1.005878 -19.317473,-1.4799357 -5.5946895,-1.4799357 -4.9894736,-1.005878 -4.7572435,-0.823977 -3.4141974,2.5395384 -2.004926,6.4686007 3.8810954,22.87886 9.8724765,39.490723 11.004533,42.538967 11.758535,44.569239 12.1223,45.89469 11.967881,46.049109 11.822165,46.194826 8.778935,46.268097 4.5936659,46.226658 L -2.5324417,46.156098 -3.398923,43.642557 C -3.8754852,42.260109 -4.4637889,40.980187 -4.706261,40.798286 -5.2313954,40.404338 -18.117263,40.318713 -19.117821,40.702526 -19.607629,40.890412 -19.883915,41.444359 -20.49674,43.467223 -20.91825,44.858574 -21.434002,46.062526 -21.642859,46.142671 -21.851713,46.222816 -25.231281,46.28839 -29.15301,46.28839 -35.230759,46.28839 -36.305792,46.2301 -36.434938,45.89355 Z M -8.3533147,29.090541 C -8.2634013,28.945054 -8.9171259,26.534039 -9.8060359,23.732728 -11.745972,17.619219 -11.921943,17.151012 -12.212265,17.330442 -12.629743,17.588458 -15.972833,28.503147 -15.784616,28.993634 -15.676878,29.274394 -14.850386,29.355058 -12.08136,29.355058 -9.9909744,29.355058 -8.4491865,29.245663 -8.3533147,29.090541 Z M 18.942906,46.112 C 18.845892,46.014988 18.766517,38.290505 18.766517,28.946483 18.766517,15.149724 18.700524,11.902583 18.415314,11.665879 18.190804,11.479553 16.06711,11.348558 12.528335,11.302753 L 6.9925583,11.2311 V 5.1456841 -0.9397322 L 25.88102,-1.0076513 C 39.614374,-1.0570339 44.867729,-0.99403369 45.129457,-0.77681714 45.647731,-0.34668933 45.65574,10.63141 45.138093,11.061018 44.912665,11.248108 42.755539,11.378241 39.118822,11.424143 L 33.450892,11.495684 33.313806,28.825891 C 33.238407,38.357505 33.149111,46.185864 33.115368,46.222244 32.969781,46.379206 19.102239,46.271335 18.942906,46.112 Z M 48.578166,46.113929 C 48.480093,46.015856 48.39985,35.371632 48.39985,22.460101 48.39985,1.297582 48.441085,-1.0312325 48.818365,-1.176008 49.578032,-1.4675196 81.995557,-1.3586351 82.548483,-1.0627148 83.031612,-0.80416341 83.060267,-0.449372 83.060267,5.27167 83.060267,9.111578 82.961233,11.393364 82.789995,11.499197 82.641352,11.591066 78.315891,11.653562 73.177867,11.638077 68.039844,11.622592 63.637098,11.686254 63.393973,11.779548 62.7572,12.023899 62.73598,16.515575 63.370451,16.759042 63.600639,16.847373 67.351108,16.919642 71.704826,16.919642 H 79.620683 V 22.608183 28.296724 L 71.617037,28.300775 C 67.215032,28.303003 63.459431,28.4025 63.271259,28.521877 63.024985,28.678108 62.950849,29.362736 63.006676,30.965219 L 63.084225,33.191516 72.873808,33.323808 82.663392,33.456099 V 39.806099 46.156098 L 65.70995,46.224173 C 56.385539,46.261614 48.676242,46.212005 48.578166,46.113929 Z"
         style="fill:#0ba0f5;stroke-width:0.26458332" />
      <path
         id="path3179"
         d="M -81.245983,156.45741 C -90.593234,155.31749 -97.130858,149.74934 -99.539206,140.87693 -100.02168,139.09947 -100.11474,138.03944 -100.1199,134.26234 -100.12511,130.43987 -100.0391,129.44872 -99.547112,127.66204 -97.486058,120.17725 -92.433077,115.04141 -85.234799,113.11502 -76.430813,110.75892 -67.221357,113.33777 -62.021853,119.61515 -60.484698,121.47097 -58.623571,125.25947 -57.945804,127.91234 -57.239525,130.67683 -57.01436,134.94822 -57.415801,137.96651 -58.087808,143.01906 -60.018418,147.03664 -63.391527,150.40193 -66.440387,153.44372 -69.470739,155.09457 -73.603676,155.96521 -75.639195,156.39401 -79.648527,156.65223 -81.245983,156.45741 Z M -76.067595,144.00539 C -74.219764,143.377 -71.998219,141.10475 -71.196285,139.02289 -70.060329,136.0739 -70.197245,131.40868 -71.491939,128.94897 -72.912627,126.2499 -75.080535,124.84209 -78.093468,124.66204 -81.949336,124.43162 -84.472244,125.79054 -85.9905,128.91564 -88.43126,133.93956 -87.048732,140.76423 -83.083102,143.26762 -81.139872,144.49433 -78.36384,144.78626 -76.067595,144.00539 Z M -166.5949,155.86631 C -167.97615,155.22234 -168.72624,154.25602 -169.25396,152.44073 -170.03284,149.76148 -169.16102,146.61764 -167.2971,145.38416 -165.48121,144.18246 -162.15038,144.04573 -160.13098,145.09001 -158.33573,146.01837 -157.24927,148.55181 -157.52029,151.17771 -157.71733,153.08689 -158.55337,154.61732 -159.87863,155.49486 -160.82971,156.12462 -161.28382,156.23265 -163.24684,156.2961 -165.03348,156.35384 -165.74516,156.26249 -166.5949,155.86631 Z M -147.61399,155.36286 C -147.90371,154.80575 -148.82489,151.77657 -155.07664,130.82276 -157.7251,121.94599 -159.90721,114.32599 -159.92577,113.88943 L -159.95953,113.09568 -153.53481,113.02481 C -149.88057,112.9845 -146.90975,113.06116 -146.64549,113.20259 -146.32437,113.37445 -145.9902,114.29518 -145.56347,116.18388 -145.2239,117.68683 -144.37448,121.23823 -143.67587,124.07589 -142.97726,126.91354 -142.14698,130.34272 -141.83079,131.69629 -141.48984,133.15588 -141.13787,134.11797 -140.96583,134.06063 -140.80628,134.00744 -139.25766,129.38764 -137.52444,123.79439 -135.79122,118.20114 -134.25166,113.47602 -134.1032,113.29412 -133.79898,112.92137 -126.33846,112.81543 -125.77133,113.1758 -125.5945,113.28817 -124.03454,117.95955 -122.30477,123.55664 -120.18998,130.39956 -119.0422,133.73318 -118.80095,133.73318 -118.54799,133.73318 -118.07089,132.01641 -117.18331,127.91234 -116.49093,124.71089 -115.50156,120.13271 -114.98471,117.73861 -114.46785,115.34452 -113.89824,113.29251 -113.71891,113.1786 -113.53958,113.06469 -110.50186,112.96966 -106.96841,112.96744 -101.34263,112.96389 -100.52392,113.01559 -100.38281,113.38333 -100.29418,113.61429 -101.42801,117.87077 -102.90242,122.84218 -104.37683,127.81358 -107.13577,137.1122 -109.0334,143.50577 -110.93102,149.89934 -112.61348,155.28692 -112.7722,155.47817 -112.9928,155.74397 -114.29461,155.82588 -118.29841,155.82588 -121.1791,155.82588 -123.7227,155.75425 -123.95085,155.66671 -124.22298,155.56228 -125.28621,152.67263 -127.0418,147.26618 -128.51367,142.73345 -129.81489,138.92186 -129.9334,138.79601 -130.29286,138.41424 -130.81768,139.76549 -133.36212,147.6238 -134.70498,151.77114 -135.92528,155.31325 -136.0739,155.49515 -136.27436,155.74052 -137.76752,155.82588 -141.85865,155.82588 -146.84248,155.82588 -147.39637,155.78132 -147.61399,155.36286 Z M -53.60755,155.49515 C -53.676966,155.31325 -53.702993,145.69896 -53.665393,134.13005 L -53.597025,113.09568 -42.616817,113.11451 C -32.193993,113.13239 -31.529161,113.1626 -29.519942,113.70963 -23.101306,115.45715 -19.068969,119.36945 -17.881164,125.00193 -17.15229,128.4582 -17.456341,131.0034 -18.971618,134.13005 -19.730234,135.69539 -20.431885,136.60159 -22.294377,138.42146 L -24.655442,140.7285 -20.788866,147.91507 C -18.662251,151.86769 -16.984822,155.2646 -17.06125,155.46376 -17.25475,155.96802 -29.3447,155.99746 -29.948929,155.49515 -30.167737,155.31325 -30.802644,154.15239 -31.359833,152.91547 -31.917022,151.67854 -33.150668,149.02521 -34.101268,147.01917 L -35.829632,143.37183 -38.231036,143.44729 -40.632442,143.52276 -40.703874,149.32285 C -40.749869,153.0575 -40.879179,155.24811 -41.067001,155.47441 -41.478315,155.97002 -53.418802,155.98977 -53.60755,155.49515 Z M -33.205286,131.45188 C -31.498173,131.02202 -30.710567,129.98809 -30.710567,128.17693 -30.710567,127.04322 -30.845787,126.60162 -31.391525,125.95305 -32.346335,124.81832 -33.516407,124.56257 -37.32515,124.65612 L -40.632442,124.73734 -40.707422,127.89694 C -40.748663,129.63472 -40.722633,131.2123 -40.649581,131.40267 -40.479055,131.84705 -34.920598,131.8838 -33.205286,131.45188 Z M -13.19515,155.50838 C -13.695895,155.00764 -13.650477,113.67173 -13.148724,113.25531 -12.893649,113.04362 -10.974574,112.97458 -6.7325777,113.02448 L -0.68035833,113.09568 -0.54264271,128.30922 C -0.46690044,136.67667 -0.37760356,143.55253 -0.34420521,143.58891 -0.3108095,143.62529 3.278655,143.65505 7.6323764,143.65505 11.9861,143.65505 15.736569,143.72732 15.966751,143.81565 16.330662,143.9553 16.385267,144.72833 16.385267,149.74047 16.385267,154.7526 16.330662,155.52564 15.966751,155.66528 15.736569,155.75362 9.1524129,155.82588 1.3352931,155.82588 -9.3664413,155.82588 -12.956086,155.74745 -13.19515,155.50838 Z M 20.749563,155.51912 C 20.675089,155.32404 20.644923,145.69896 20.682523,134.13005 L 20.750892,113.09568 28.5561,113.01893 C 32.848965,112.97671 37.492402,113.06275 38.87485,113.21013 48.683912,114.2558 55.056391,119.10105 57.701539,127.52479 58.259156,129.30058 58.321431,129.99367 58.318828,134.39464 58.316293,138.67563 58.241366,139.54793 57.721314,141.35092 56.609672,145.20491 54.407233,148.86161 51.978554,150.8856 50.07009,152.47605 46.583978,154.19188 43.722543,154.94913 41.189594,155.61945 40.867639,155.63986 31.004387,155.75534 22.705774,155.8525 20.860606,155.81 20.749563,155.51912 Z M 40.747036,142.8144 C 42.746146,141.89918 43.984031,140.74114 44.725129,139.09292 45.282344,137.85364 45.350919,137.31234 45.35385,134.13005 45.357025,130.6843 45.330175,130.50952 44.593467,129.1801 43.744228,127.64762 42.542155,126.69389 40.465192,125.90471 38.971336,125.33709 35.406681,124.95121 34.276744,125.23481 L 33.583183,125.40888 V 134.35558 C 33.583183,139.27626 33.67248,143.39448 33.781621,143.50717 33.890761,143.61986 35.174298,143.6604 36.633922,143.59727 38.74485,143.50596 39.586325,143.3458 40.747036,142.8144 Z M -151.31816,102.23281 C -158.92323,100.84422 -164.7174,96.612209 -167.96111,90.076929 -171.58862,82.768397 -171.47715,72.505052 -167.69124,65.22805 -165.3474,60.722889 -162.1683,57.633985 -157.57828,55.402005 -148.68185,51.075962 -136.74258,52.590683 -129.91525,58.911578 -127.67561,60.985094 -125.81973,63.619492 -126.12519,64.291533 -126.40034,64.896884 -136.44934,72.217555 -137.00515,72.217555 -137.21556,72.217555 -138.19787,71.35005 -139.18805,70.28977 -141.97873,67.301539 -144.77185,66.114261 -147.70326,66.670193 -152.42153,67.564995 -155.33806,71.708756 -155.32472,77.498665 -155.31257,82.774213 -153.20276,86.759864 -149.52193,88.460741 -148.59195,88.890474 -147.80592,89.015717 -146.0689,89.010928 -144.02653,89.005298 -143.66808,88.923013 -142.16674,88.115139 -141.25748,87.625866 -139.7914,86.527658 -138.90879,85.674678 -138.02617,84.821699 -137.14685,84.123805 -136.95474,84.123805 -136.63657,84.123805 -127.8584,90.891483 -126.62848,92.085011 -126.11296,92.585285 -126.11267,92.605063 -126.60794,93.524722 -127.43127,95.053543 -131.18413,98.444369 -133.23661,99.513923 -138.36607,102.18691 -145.60664,103.27566 -151.31816,102.23281 Z M -10.734525,102.08748 C -12.515951,101.98615 -14.803557,101.66861 -15.946412,101.36403 -26.708424,98.495846 -33.098029,89.539796 -33.08942,77.335369 -33.082913,68.112119 -29.050777,60.266964 -22.174873,56.099402 -18.414784,53.820371 -15.147317,52.880547 -10.345238,52.696842 -2.8375803,52.409634 3.120196,54.374559 7.6433831,58.629651 9.8150487,60.672597 11.358183,62.76447 11.358183,63.665431 11.358183,64.049217 9.991793,65.180637 6.3972458,67.77327 3.6687302,69.741259 1.1736591,71.488165 0.85264279,71.655279 0.32049162,71.932305 0.08907646,71.771928 -1.7693595,69.838139 -4.4831326,67.014329 -5.9798567,66.26319 -8.8836826,66.267772 -10.6562,66.270569 -11.245634,66.390515 -12.498036,67.003256 -14.355589,67.912073 -15.706668,69.38045 -16.778868,71.655744 -17.521114,73.230849 -17.614816,73.712536 -17.704875,76.415887 -17.827062,80.083678 -17.449933,82.046434 -16.23376,84.072264 -14.99184,86.140977 -14.190296,86.918725 -12.355048,87.835808 -11.040354,88.492768 -10.4641,88.621721 -8.8430187,88.621721 -5.8312799,88.621721 -3.9334475,87.717703 -0.90022179,84.838238 -0.03503165,84.016905 0.33582423,83.827924 0.81956988,83.961861 1.1587763,84.055778 3.5794333,85.828737 6.1988083,87.901769 9.5254754,90.534566 10.987372,91.853802 11.047764,92.277532 11.239843,93.62528 6.9419965,97.86105 3.8175583,99.403306 1.5126062,100.54105 -3.4169067,101.84801 -6.6334833,102.17418 -7.1428063,102.22583 -8.988275,102.18682 -10.734525,102.08748 Z M -122.9854,77.841925 -122.91786,53.829015 -115.96339,53.758458 C -111.46919,53.712863 -108.82496,53.786356 -108.48891,53.966204 -107.98034,54.238386 -107.9689,54.613809 -107.9689,71.036238 V 87.827971 L -99.039213,87.832022 C -94.127884,87.83425 -89.958607,87.931865 -89.774152,88.048946 -89.514641,88.213665 -89.454792,89.783784 -89.509569,94.990204 L -89.580358,101.7186 -106.31665,101.78671 -123.05295,101.85483 Z M 14.370102,101.20253 C 14.311936,101.0498 14.295066,90.268752 14.332619,77.244638 L 14.400892,53.564431 21.658637,53.493946 C 27.288664,53.439268 28.96408,53.498608 29.129063,53.75853 29.246041,53.942817 29.343571,57.22891 29.345799,61.060958 29.348858,66.32411 29.426778,68.002677 29.664358,67.923484 29.837337,67.865824 32.025594,64.611449 34.527151,60.691539 L 39.075433,53.564431 H 48.298081 C 56.288873,53.564431 57.529962,53.617441 57.589866,53.961306 57.62789,54.179588 54.078787,59.299275 49.702968,65.338389 45.327146,71.377503 41.636933,76.518307 41.502491,76.762398 41.310797,77.110436 41.847251,77.966819 43.988587,80.731148 45.490378,82.669869 49.39707,87.708909 52.670124,91.929013 59.510389,100.7485 59.648081,100.94202 59.255424,101.1847 59.098301,101.28181 54.954407,101.36005 50.046775,101.35858 41.725061,101.35608 41.101938,101.32355 40.799217,100.87579 38.775753,97.882822 30.99283,87.435856 30.797698,87.450813 30.656225,87.461658 30.272584,87.866219 29.945163,88.349838 29.3719,89.196576 29.34985,89.447607 29.34985,95.127526 29.34985,98.491465 29.243792,101.09145 29.103025,101.17845 28.62768,101.47223 14.481629,101.49535 14.370102,101.20253 Z M -69.736608,71.245479 C -72.938067,68.2473 -77.015957,64.431019 -78.798588,62.764851 -80.581218,61.098685 -82.039733,59.580191 -82.039733,59.390421 -82.039733,58.881146 -78.997739,56.154131 -76.955347,54.832492 -75.977944,54.200011 -74.3706,53.316959 -73.383472,52.870154 -71.279124,51.917662 -67.060747,50.786307 -65.61363,50.786307 -64.676328,50.786307 -64.590894,50.850106 -64.462158,51.646202 -64.38568,52.119145 -64.142213,57.268598 -63.92112,63.089431 -63.700028,68.910264 -63.473796,74.208545 -63.418382,74.863388 -63.315208,76.08258 -63.426724,76.722719 -63.739385,76.706092 -63.8364,76.700933 -66.53515,74.243658 -69.736608,71.245479 Z"
         style="fill:#01db71;stroke-width:0.26458332" />
      <path
         id="path3177"
         d="M -151.31816,102.23281 C -158.92323,100.84422 -164.7174,96.612209 -167.96111,90.076929 -171.58862,82.768397 -171.47715,72.505052 -167.69124,65.22805 -165.3474,60.722889 -162.1683,57.633985 -157.57828,55.402005 -148.68185,51.075962 -136.74258,52.590683 -129.91525,58.911578 -127.67561,60.985094 -125.81973,63.619492 -126.12519,64.291533 -126.40034,64.896884 -136.44934,72.217555 -137.00515,72.217555 -137.21556,72.217555 -138.19787,71.35005 -139.18805,70.28977 -141.97873,67.301539 -144.77185,66.114261 -147.70326,66.670193 -152.42153,67.564995 -155.33806,71.708756 -155.32472,77.498665 -155.31257,82.774213 -153.20276,86.759864 -149.52193,88.460741 -148.59195,88.890474 -147.80592,89.015717 -146.0689,89.010928 -144.02653,89.005298 -143.66808,88.923013 -142.16674,88.115139 -141.25748,87.625866 -139.7914,86.527658 -138.90879,85.674678 -138.02617,84.821699 -137.14685,84.123805 -136.95474,84.123805 -136.63657,84.123805 -127.8584,90.891483 -126.62848,92.085011 -126.11296,92.585285 -126.11267,92.605063 -126.60794,93.524722 -127.43127,95.053543 -131.18413,98.444369 -133.23661,99.513923 -138.36607,102.18691 -145.60664,103.27566 -151.31816,102.23281 Z M -10.734525,102.08748 C -12.515951,101.98615 -14.803557,101.66861 -15.946412,101.36403 -26.708424,98.495846 -33.098029,89.539796 -33.08942,77.335369 -33.082913,68.112119 -29.050777,60.266964 -22.174873,56.099402 -18.414784,53.820371 -15.147317,52.880547 -10.345238,52.696842 -2.8375803,52.409634 3.120196,54.374559 7.6433831,58.629651 9.8150487,60.672597 11.358183,62.76447 11.358183,63.665431 11.358183,64.049217 9.991793,65.180637 6.3972458,67.77327 3.6687302,69.741259 1.1736591,71.488165 0.85264279,71.655279 0.32049162,71.932305 0.08907646,71.771928 -1.7693595,69.838139 -4.4831326,67.014329 -5.9798567,66.26319 -8.8836826,66.267772 -10.6562,66.270569 -11.245634,66.390515 -12.498036,67.003256 -14.355589,67.912073 -15.706668,69.38045 -16.778868,71.655744 -17.521114,73.230849 -17.614816,73.712536 -17.704875,76.415887 -17.827062,80.083678 -17.449933,82.046434 -16.23376,84.072264 -14.99184,86.140977 -14.190296,86.918725 -12.355048,87.835808 -11.040354,88.492768 -10.4641,88.621721 -8.8430187,88.621721 -5.8312799,88.621721 -3.9334475,87.717703 -0.90022179,84.838238 -0.03503165,84.016905 0.33582423,83.827924 0.81956988,83.961861 1.1587763,84.055778 3.5794333,85.828737 6.1988083,87.901769 9.5254754,90.534566 10.987372,91.853802 11.047764,92.277532 11.239843,93.62528 6.9419965,97.86105 3.8175583,99.403306 1.5126062,100.54105 -3.4169067,101.84801 -6.6334833,102.17418 -7.1428063,102.22583 -8.988275,102.18682 -10.734525,102.08748 Z M -122.9854,77.841925 -122.91786,53.829015 -115.96339,53.758458 C -111.46919,53.712863 -108.82496,53.786356 -108.48891,53.966204 -107.98034,54.238386 -107.9689,54.613809 -107.9689,71.036238 V 87.827971 L -99.039213,87.832022 C -94.127884,87.83425 -89.958607,87.931865 -89.774152,88.048946 -89.514641,88.213665 -89.454792,89.783784 -89.509569,94.990204 L -89.580358,101.7186 -106.31665,101.78671 -123.05295,101.85483 Z M 14.370102,101.20253 C 14.311936,101.0498 14.295066,90.268752 14.332619,77.244638 L 14.400892,53.564431 21.658637,53.493946 C 27.288664,53.439268 28.96408,53.498608 29.129063,53.75853 29.246041,53.942817 29.343571,57.22891 29.345799,61.060958 29.348858,66.32411 29.426778,68.002677 29.664358,67.923484 29.837337,67.865824 32.025594,64.611449 34.527151,60.691539 L 39.075433,53.564431 H 48.298081 C 56.288873,53.564431 57.529962,53.617441 57.589866,53.961306 57.62789,54.179588 54.078787,59.299275 49.702968,65.338389 45.327146,71.377503 41.636933,76.518307 41.502491,76.762398 41.310797,77.110436 41.847251,77.966819 43.988587,80.731148 45.490378,82.669869 49.39707,87.708909 52.670124,91.929013 59.510389,100.7485 59.648081,100.94202 59.255424,101.1847 59.098301,101.28181 54.954407,101.36005 50.046775,101.35858 41.725061,101.35608 41.101938,101.32355 40.799217,100.87579 38.775753,97.882822 30.99283,87.435856 30.797698,87.450813 30.656225,87.461658 30.272584,87.866219 29.945163,88.349838 29.3719,89.196576 29.34985,89.447607 29.34985,95.127526 29.34985,98.491465 29.243792,101.09145 29.103025,101.17845 28.62768,101.47223 14.481629,101.49535 14.370102,101.20253 Z M -69.736608,71.245479 C -72.938067,68.2473 -77.015957,64.431019 -78.798588,62.764851 -80.581218,61.098685 -82.039733,59.580191 -82.039733,59.390421 -82.039733,58.881146 -78.997739,56.154131 -76.955347,54.832492 -75.977944,54.200011 -74.3706,53.316959 -73.383472,52.870154 -71.279124,51.917662 -67.060747,50.786307 -65.61363,50.786307 -64.676328,50.786307 -64.590894,50.850106 -64.462158,51.646202 -64.38568,52.119145 -64.142213,57.268598 -63.92112,63.089431 -63.700028,68.910264 -63.473796,74.208545 -63.418382,74.863388 -63.315208,76.08258 -63.426724,76.722719 -63.739385,76.706092 -63.8364,76.700933 -66.53515,74.243658 -69.736608,71.245479 Z"
         style="fill:#fa0506;stroke-width:0.26458332" />
    </g>
  </g>
</svg>
