<?xml version="1.0" encoding="UTF-8" standalone="no"?>
<svg
   xmlns:dc="http://purl.org/dc/elements/1.1/"
   xmlns:cc="http://creativecommons.org/ns#"
   xmlns:rdf="http://www.w3.org/1999/02/22-rdf-syntax-ns#"
   xmlns:svg="http://www.w3.org/2000/svg"
   xmlns="http://www.w3.org/2000/svg"
   xmlns:sodipodi="http://sodipodi.sourceforge.net/DTD/sodipodi-0.dtd"
   xmlns:inkscape="http://www.inkscape.org/namespaces/inkscape"
   inkscape:version="1.0.1 (3bc2e813f5, 2020-09-07)"
   sodipodi:docname="climate-clock-logo.svg"
   viewBox="0 0 421.21066 421.21066"
   height="421.21066"
   width="421.21066"
   xml:space="preserve"
   id="svg867"
   version="1.1"><metadata
     id="metadata873"><rdf:RDF><cc:Work
         rdf:about=""><dc:format>image/svg+xml</dc:format><dc:type
           rdf:resource="http://purl.org/dc/dcmitype/StillImage" /><dc:title></dc:title></cc:Work></rdf:RDF></metadata><defs
     id="defs871"><clipPath
       id="clipPath885"
       clipPathUnits="userSpaceOnUse"><path
         id="path883"
         d="M 0,0 H 1224 V 792 H 0 Z" /></clipPath><clipPath
       id="clipPath945"
       clipPathUnits="userSpaceOnUse"><path
         id="path943"
         d="M 612,613.827 V 396 L 800.176,72 796.954,613.827 Z" /></clipPath><clipPath
       id="clipPath951"
       clipPathUnits="userSpaceOnUse"><path
         id="path949"
         d="M 0,0 H 1224 V 792 H 0 Z" /></clipPath><clipPath
       id="clipPath1007"
       clipPathUnits="userSpaceOnUse"><path
         id="path1005"
         d="M 0,0 H 1224 V 792 H 0 Z" /></clipPath></defs><sodipodi:namedview
     inkscape:current-layer="g875"
     inkscape:window-maximized="1"
     inkscape:window-y="12"
     inkscape:window-x="161"
     inkscape:cy="178.58728"
     inkscape:cx="89.590081"
     inkscape:zoom="1.1807598"
     showgrid="false"
     id="namedview869"
     inkscape:window-height="1399"
     inkscape:window-width="2387"
     inkscape:pageshadow="2"
     inkscape:pageopacity="0"
     guidetolerance="10"
     gridtolerance="10"
     objecttolerance="10"
     borderopacity="1"
     bordercolor="#666666"
     pagecolor="#ffffff"
     inkscape:document-rotation="0"
     fit-margin-top="0"
     fit-margin-left="0"
     fit-margin-right="0"
     fit-margin-bottom="0" /><g
     transform="matrix(1.3333333,0,0,-1.3333333,-605.5037,739.23585)"
     inkscape:label="logo 01"
     inkscape:groupmode="layer"
     id="g875"><g
       id="g877" /><g
       id="g879"><g
         clip-path="url(#clipPath885)"
         id="g881" /></g><g
       inkscape:export-ydpi="116.69"
       inkscape:export-xdpi="116.69"
       inkscape:export-filename="/home/adrian/icon.png"
       transform="translate(0.08198711,0.47280039)"
       id="g1174"><path
         d="M 769.9538,396.0001 C 769.9538,308.7651 699.2358,238.0461 611.9998,238.0461 524.7648,238.0461 454.0458,308.7651 454.0458,396.0001 454.0458,483.2351 524.7648,553.9541 611.9998,553.9541 699.2358,553.9541 769.9538,483.2351 769.9538,396.0001"
         style="fill:#00dd72;fill-opacity:1;fill-rule:nonzero;stroke:none"
         id="path891" /><path
         d="M 612.1276,330.3917 C 610.0896,328.5297 606.6646,329.7977 604.1956,328.5627 602.0116,327.4717 601.2206,324.8087 600.6486,322.4357 599.8696,319.2027 599.0916,315.9687 598.3126,312.7347 597.6736,310.0817 597.2466,306.7667 599.4036,305.0947 600.6486,304.1287 602.4326,304.0977 603.9056,304.6567 605.3796,305.2167 606.5996,306.2837 607.7196,307.3917 612.6756,312.2927 616.2086,318.3817 618.3286,324.9997 619.1016,327.4127 619.8746,329.6827 618.2626,332.0017 615.4666,336.0267 614.3926,332.4617 612.1276,330.3917"
         style="fill:#008040;fill-opacity:1;fill-rule:nonzero;stroke:none"
         id="path893" /><path
         d="M 611.8718,268.8116 C 606.5818,267.8476 601.5278,265.4926 596.1518,265.3666 590.5648,265.2366 585.2398,267.5226 579.7588,268.6176 570.1048,270.5466 556.4318,269.1446 548.1098,263.8806 566.3028,255.7816 586.4468,251.2726 607.6468,251.2726 629.0758,251.2726 649.4278,255.8736 667.7748,264.1386 655.5908,264.6086 646.2998,265.7716 634.2478,267.6206 626.8278,268.7586 619.2568,270.1576 611.8718,268.8116"
         style="fill:#008040;fill-opacity:1;fill-rule:nonzero;stroke:none"
         id="path895" /><path
         d="M 753.8412,388.8527 C 752.9522,390.2627 750.8522,390.3777 749.3442,389.6697 747.8352,388.9617 746.7002,387.6657 745.3942,386.6297 744.0882,385.5937 742.3732,384.7837 740.7872,385.2957 736.8602,386.5667 737.9232,393.9097 733.9282,394.9467 732.2182,395.3917 730.4022,394.2217 729.5942,392.6507 728.7862,391.0797 728.7802,389.2227 728.9592,387.4647 729.5372,381.8107 731.8262,376.4507 732.5402,370.8127 732.8872,368.0757 733.0822,364.8777 735.3612,363.3227 736.5762,362.4927 738.2332,362.2857 739.1522,361.1357 739.9452,360.1437 739.9362,358.7607 740.1752,357.5127 740.7852,354.3247 743.4092,351.8057 746.5662,351.0567 750.5942,363.0277 753.1092,375.6927 753.9042,388.8217 Z"
         style="fill:#008040;fill-opacity:1;fill-rule:nonzero;stroke:none"
         id="path897" /><path
         d="M 696.8278,514.0865 C 696.8808,514.0455 696.9348,514.0045 696.9888,513.9635 696.9348,514.0045 696.8808,514.0455 696.8278,514.0865"
         style="fill:#008040;fill-opacity:1;fill-rule:nonzero;stroke:none"
         id="path899" /><path
         d="M 714.5451,498.0323 C 714.5491,498.0283 714.5531,498.0233 714.5571,498.0193 714.5531,498.0233 714.5491,498.0283 714.5451,498.0323"
         style="fill:#008040;fill-opacity:1;fill-rule:nonzero;stroke:none"
         id="path901" /><path
         d="M 693.6535,516.4576 C 693.7135,516.4146 693.7725,516.3716 693.8315,516.3286 693.7725,516.3716 693.7135,516.4146 693.6535,516.4576"
         style="fill:#008040;fill-opacity:1;fill-rule:nonzero;stroke:none"
         id="path903" /><path
         d="M 690.477,518.7023 C 690.484,518.6983 690.49,518.6933 690.497,518.6883 690.49,518.6933 690.484,518.6983 690.477,518.7023"
         style="fill:#008040;fill-opacity:1;fill-rule:nonzero;stroke:none"
         id="path905" /><path
         d="M 717.1789,495.1471 C 717.2109,495.1101 717.2439,495.0741 717.2759,495.0371 717.2439,495.0741 717.2109,495.1101 717.1789,495.1471"
         style="fill:#008040;fill-opacity:1;fill-rule:nonzero;stroke:none"
         id="path907" /><path
         d="M 665.9221,532.2955 C 666.0001,532.2615 666.0781,532.2275 666.1561,532.1935 666.0781,532.2275 666.0001,532.2615 665.9221,532.2955"
         style="fill:#008040;fill-opacity:1;fill-rule:nonzero;stroke:none"
         id="path909" /><path
         d="M 673.2263,528.8834 C 673.2633,528.8644 673.3003,528.8464 673.3373,528.8284 673.3003,528.8464 673.2633,528.8644 673.2263,528.8834"
         style="fill:#008040;fill-opacity:1;fill-rule:nonzero;stroke:none"
         id="path911" /><path
         d="M 669.5515,530.6608 C 669.6355,530.6218 669.7195,530.5828 669.8035,530.5428 669.7195,530.5828 669.6355,530.6218 669.5515,530.6608"
         style="fill:#008040;fill-opacity:1;fill-rule:nonzero;stroke:none"
         id="path913" /><path
         d="M 719.7971,492.1217 C 719.8121,492.1037 719.8271,492.0867 719.8411,492.0687 719.8271,492.0867 719.8121,492.1037 719.7971,492.1217"
         style="fill:#008040;fill-opacity:1;fill-rule:nonzero;stroke:none"
         id="path915" /><path
         d="M 735.6401,469.2003 C 735.6461,469.1903 735.6521,469.1793 735.6581,469.1693 735.6521,469.1793 735.6461,469.1903 735.6401,469.2003"
         style="fill:#008040;fill-opacity:1;fill-rule:nonzero;stroke:none"
         id="path917" /><path
         d="M 673.3373,528.8282 C 679.2943,525.8352 685.0193,522.4492 690.4773,518.7022 685.0183,522.4492 679.2943,525.8352 673.3373,528.8282"
         style="fill:#008040;fill-opacity:1;fill-rule:nonzero;stroke:none"
         id="path919" /><path
         d="M 669.8039,530.5426 C 670.9529,530.0036 672.0939,529.4516 673.2259,528.8836 672.0939,529.4516 670.9529,530.0036 669.8039,530.5426"
         style="fill:#008040;fill-opacity:1;fill-rule:nonzero;stroke:none"
         id="path921" /><path
         d="M 690.4965,518.6886 C 691.5595,517.9596 692.6115,517.2146 693.6535,516.4576 692.6115,517.2146 691.5595,517.9596 690.4965,518.6886"
         style="fill:#008040;fill-opacity:1;fill-rule:nonzero;stroke:none"
         id="path923" /><path
         d="M 717.2761,495.0372 C 718.1291,494.0762 718.9691,493.1042 719.7971,492.1212 718.9691,493.1042 718.1291,494.0762 717.2761,495.0372"
         style="fill:#008040;fill-opacity:1;fill-rule:nonzero;stroke:none"
         id="path925" /><path
         d="M 666.1557,532.1935 C 667.2957,531.6965 668.4267,531.1855 669.5517,530.6605 668.4267,531.1855 667.2957,531.6965 666.1557,532.1935"
         style="fill:#008040;fill-opacity:1;fill-rule:nonzero;stroke:none"
         id="path927" /><path
         d="M 719.8415,492.069 C 725.7975,484.986 731.0945,477.333 735.6405,469.2 731.0945,477.333 725.7975,484.986 719.8415,492.069"
         style="fill:#008040;fill-opacity:1;fill-rule:nonzero;stroke:none"
         id="path929" /><path
         d="M 714.5573,498.0192 C 715.4443,497.0732 716.3173,496.1162 717.1793,495.1472 716.3173,496.1162 715.4443,497.0732 714.5573,498.0192"
         style="fill:#008040;fill-opacity:1;fill-rule:nonzero;stroke:none"
         id="path931" /><path
         d="M 693.8317,516.3282 C 694.8407,515.5932 695.8387,514.8462 696.8277,514.0862 695.8387,514.8462 694.8407,515.5932 693.8317,516.3282"
         style="fill:#008040;fill-opacity:1;fill-rule:nonzero;stroke:none"
         id="path933" /><path
         d="M 714.5451,498.0323 C 709.1351,503.8013 703.2631,509.1303 696.9891,513.9633 703.2631,509.1303 709.1351,503.8013 714.5451,498.0323"
         style="fill:#008040;fill-opacity:1;fill-rule:nonzero;stroke:none"
         id="path935" /><path
         d="M 624.9423,470.4449 C 622.8343,469.3519 619.9583,469.6549 618.4293,471.4719 617.1533,472.9869 617.0153,475.1279 616.9363,477.1079 616.8073,480.3839 616.6763,483.6609 616.5463,486.9379 616.5003,488.1209 616.4553,489.3269 616.7713,490.4689 617.0863,491.6109 617.8263,492.6989 618.9293,493.1309 620.4203,493.7149 622.1683,492.9279 623.1873,491.6929 625.5943,488.7709 624.1033,485.5349 625.7433,482.4559 626.5773,480.8889 627.7163,479.4509 628.1703,477.7339 628.9043,474.9589 627.4903,471.7669 624.9423,470.4449 M 589.5853,484.1229 C 587.6723,484.7149 585.6733,485.3119 583.6993,484.9809 581.8413,484.6689 580.2193,483.5679 578.4333,482.9679 576.6483,482.3679 574.3523,482.4359 573.2643,483.9739 572.4423,485.1369 572.6213,486.7829 573.3323,488.0159 574.0443,489.2489 575.1923,490.1579 576.3243,491.0219 578.7593,492.8819 581.3883,494.7359 584.4283,495.1159 590.6893,495.8999 597.7123,487.8919 597.4213,481.8029 594.7943,482.3289 592.1663,483.3259 589.5853,484.1229 M 633.8353,528.3409 C 625.5933,525.3729 614.7143,531.6369 614.7143,531.6369 614.7143,531.6369 607.6473,531.9669 607.6473,526.0329 607.6473,520.0989 593.9453,517.4619 598.2313,526.0329 602.5163,534.6039 589.6593,534.6039 573.5053,532.9559 557.3523,531.3069 552.0773,522.4059 552.0773,522.4059 552.0773,522.4059 555.7033,516.4719 561.3083,519.4399 566.9123,522.4059 576.4733,525.3729 573.8353,516.4719 571.1983,507.5709 561.3083,512.1869 561.3083,512.1869 L 551.7473,510.8679 539.5503,505.5929 536.9123,516.4719 529.6603,508.2309 533.2863,501.9669 526.0333,503.2859 522.0773,493.3959 C 522.0773,493.3959 509.5503,491.0879 507.9023,483.5059 506.2533,475.9239 516.3083,481.3629 521.4183,486.4729 526.5283,491.5829 537.5723,493.3959 537.5723,493.3959 L 543.5063,478.5609 547.7913,481.1979 542.5173,492.0769 546.1433,493.3959 552.0773,480.8679 553.7253,473.2859 557.0223,478.8899 556.6923,482.1869 C 556.6923,482.1869 565.2643,484.1649 565.2643,479.5499 565.2643,474.9339 573.1763,470.9779 573.1763,470.9779 L 584.7143,471.6369 C 584.7143,471.6369 583.0663,462.4069 578.7803,455.4839 574.4943,448.5609 559.5383,458.9029 550.6373,461.8689 541.7363,464.8369 536.5833,459.1099 536.5833,459.1099 V 463.0669 L 532.6273,464.0549 528.6713,466.3629 531.6383,474.6049 C 531.6383,474.6049 504.2753,470.6489 497.6823,468.3409 491.0893,466.0329 488.7813,455.8139 488.7813,455.8139 480.5393,455.8139 477.5723,435.7089 477.5723,435.7089 469.9903,418.2419 477.9023,400.7589 482.1883,393.8359 486.4733,386.9129 500.6493,397.8119 500.6493,397.8119 500.6493,397.8119 501.3083,389.8799 508.2313,389.8799 515.1543,389.8799 511.1983,371.9109 511.1983,371.9109 518.3703,364.7399 524.0563,346.3639 522.0773,336.4739 529.6603,316.6939 545.1543,294.2769 554.7143,290.6499 564.2753,287.0239 569.8793,293.2869 573.5053,310.1009 577.1323,326.9139 591.9673,328.2319 591.9673,328.2319 591.9673,328.2319 582.7363,367.7919 593.9453,367.7919 605.1543,367.7919 623.2853,391.8579 623.2853,391.8579 L 621.6373,400.0999 597.2423,402.0779 591.3073,411.6379 585.7033,422.8469 579.7693,442.9569 582.0773,446.9129 C 582.0773,446.9129 585.0443,432.4069 592.2963,429.7699 599.5493,427.1319 598.5603,412.2979 602.5163,405.7039 606.4723,399.1109 622.9563,412.9569 622.9563,412.9569 L 637.7913,419.8799 646.6923,428.7809 634.8243,438.3409 627.2413,434.3849 625.2633,441.3079 621.6373,440.9789 614.3843,450.5389 619.6593,454.1649 628.8903,443.6159 638.4503,445.2639 640.7583,439.6599 662.5163,440.3189 C 667.4613,435.3739 678.9993,429.1109 678.9993,429.1109 L 692.6313,394.8249 699.4393,399.1109 C 697.4613,426.1439 716.2523,434.0549 716.2523,434.0549 716.2523,434.0549 715.9223,418.5609 725.1533,418.5609 734.3833,418.5609 736.6913,400.0999 736.6913,400.0999 745.5923,413.6159 733.3943,429.4399 733.3943,429.4399 736.0233,432.0689 746.8723,443.3269 746.9443,443.4029 743.9993,452.4069 740.2053,461.0279 735.6573,469.1689 735.6513,469.1799 735.6463,469.1899 735.6403,469.1999 731.0953,477.3329 725.7973,484.9869 719.8413,492.0689 719.8263,492.0869 719.8113,492.1039 719.7973,492.1219 718.9693,493.1049 718.1293,494.0759 717.2763,495.0369 717.2443,495.0739 717.2113,495.1109 717.1793,495.1469 716.3173,496.1159 715.4443,497.0729 714.5573,498.0189 714.5533,498.0239 714.5493,498.0279 714.5453,498.0319 709.1353,503.8009 703.2633,509.1299 696.9883,513.9639 696.9353,514.0049 696.8813,514.0459 696.8273,514.0869 695.8393,514.8459 694.8403,515.5929 693.8313,516.3279 693.7723,516.3709 693.7133,516.4149 693.6533,516.4579 692.6113,517.2149 691.5593,517.9589 690.4963,518.6889 690.4903,518.6939 690.4833,518.6979 690.4773,518.7019 685.0193,522.4489 679.2943,525.8359 673.3373,528.8279 673.3003,528.8469 673.2633,528.8649 673.2263,528.8829 672.0943,529.4509 670.9523,530.0039 669.8043,530.5429 669.7203,530.5829 669.6353,530.6219 669.5513,530.6609 668.4273,531.1859 667.2953,531.6959 666.1553,532.1939 666.0773,532.2269 666.0003,532.2619 665.9223,532.2959 664.7233,532.8159 663.5163,533.3219 662.3013,533.8109 646.6413,535.6429 642.0723,531.3059 633.8353,528.3409"
         style="fill:#008040;fill-opacity:1;fill-rule:nonzero;stroke:none"
         id="path937" /><g
         id="g939"><g
           id="g941"
           clip-path="url(#clipPath945)"><g
             id="g947"
             clip-path="url(#clipPath951)"><path
               d="M 769.9538,396.0001 C 769.9538,308.7651 699.2358,238.0461 611.9998,238.0461 524.7648,238.0461 454.0458,308.7651 454.0458,396.0001 454.0458,483.2351 524.7648,553.9541 611.9998,553.9541 699.2358,553.9541 769.9538,483.2351 769.9538,396.0001"
               style="fill:#ff0000;fill-opacity:1;fill-rule:nonzero;stroke:none"
               id="path953" /><path
               d="M 612.1276,330.3917 C 610.0896,328.5297 606.6646,329.7977 604.1956,328.5627 602.0116,327.4717 601.2206,324.8087 600.6486,322.4357 599.8696,319.2027 599.0916,315.9687 598.3126,312.7347 597.6736,310.0817 597.2466,306.7667 599.4036,305.0947 600.6486,304.1287 602.4326,304.0977 603.9056,304.6567 605.3796,305.2167 606.5996,306.2837 607.7196,307.3917 612.6756,312.2927 616.2086,318.3817 618.3286,324.9997 619.1016,327.4127 619.8746,329.6827 618.2626,332.0017 615.4666,336.0267 614.3926,332.4617 612.1276,330.3917"
               style="fill:#940000;fill-opacity:1;fill-rule:nonzero;stroke:none"
               id="path955" /><path
               d="M 611.8718,268.8116 C 606.5818,267.8476 601.5278,265.4926 596.1518,265.3666 590.5648,265.2366 585.2398,267.5226 579.7588,268.6176 570.1048,270.5466 556.4318,269.1446 548.1098,263.8806 566.3028,255.7816 586.4468,251.2726 607.6468,251.2726 629.0758,251.2726 649.4278,255.8736 667.7748,264.1386 655.5908,264.6086 646.2998,265.7716 634.2478,267.6206 626.8278,268.7586 619.2568,270.1576 611.8718,268.8116"
               style="fill:#940000;fill-opacity:1;fill-rule:nonzero;stroke:none"
               id="path957" /><path
               d="M 753.8412,388.8527 C 752.9522,390.2627 750.8522,390.3777 749.3442,389.6697 747.8352,388.9617 746.7002,387.6657 745.3942,386.6297 744.0882,385.5937 742.3732,384.7837 740.7872,385.2957 736.8602,386.5667 737.9232,393.9097 733.9282,394.9467 732.2182,395.3917 730.4022,394.2217 729.5942,392.6507 728.7862,391.0797 728.7802,389.2227 728.9592,387.4647 729.5372,381.8107 731.8262,376.4507 732.5402,370.8127 732.8872,368.0757 733.0822,364.8777 735.3612,363.3227 736.5762,362.4927 738.2332,362.2857 739.1522,361.1357 739.9452,360.1437 739.9362,358.7607 740.1752,357.5127 740.7852,354.3247 743.4092,351.8057 746.5662,351.0567 750.5942,363.0277 753.1092,375.6927 753.9042,388.8217 Z"
               style="fill:#940000;fill-opacity:1;fill-rule:nonzero;stroke:none"
               id="path959" /><path
               d="M 696.8278,514.0865 C 696.8808,514.0455 696.9348,514.0045 696.9888,513.9635 696.9348,514.0045 696.8808,514.0455 696.8278,514.0865"
               style="fill:#940000;fill-opacity:1;fill-rule:nonzero;stroke:none"
               id="path961" /><path
               d="M 714.5451,498.0323 C 714.5491,498.0283 714.5531,498.0233 714.5571,498.0193 714.5531,498.0233 714.5491,498.0283 714.5451,498.0323"
               style="fill:#940000;fill-opacity:1;fill-rule:nonzero;stroke:none"
               id="path963" /><path
               d="M 693.6535,516.4576 C 693.7135,516.4146 693.7725,516.3716 693.8315,516.3286 693.7725,516.3716 693.7135,516.4146 693.6535,516.4576"
               style="fill:#940000;fill-opacity:1;fill-rule:nonzero;stroke:none"
               id="path965" /><path
               d="M 690.477,518.7023 C 690.484,518.6983 690.49,518.6933 690.497,518.6883 690.49,518.6933 690.484,518.6983 690.477,518.7023"
               style="fill:#940000;fill-opacity:1;fill-rule:nonzero;stroke:none"
               id="path967" /><path
               d="M 717.1789,495.1471 C 717.2109,495.1101 717.2439,495.0741 717.2759,495.0371 717.2439,495.0741 717.2109,495.1101 717.1789,495.1471"
               style="fill:#940000;fill-opacity:1;fill-rule:nonzero;stroke:none"
               id="path969" /><path
               d="M 665.9221,532.2955 C 666.0001,532.2615 666.0781,532.2275 666.1561,532.1935 666.0781,532.2275 666.0001,532.2615 665.9221,532.2955"
               style="fill:#940000;fill-opacity:1;fill-rule:nonzero;stroke:none"
               id="path971" /><path
               d="M 673.2263,528.8834 C 673.2633,528.8644 673.3003,528.8464 673.3373,528.8284 673.3003,528.8464 673.2633,528.8644 673.2263,528.8834"
               style="fill:#940000;fill-opacity:1;fill-rule:nonzero;stroke:none"
               id="path973" /><path
               d="M 669.5515,530.6608 C 669.6355,530.6218 669.7195,530.5828 669.8035,530.5428 669.7195,530.5828 669.6355,530.6218 669.5515,530.6608"
               style="fill:#940000;fill-opacity:1;fill-rule:nonzero;stroke:none"
               id="path975" /><path
               d="M 719.7971,492.1217 C 719.8121,492.1037 719.8271,492.0867 719.8411,492.0687 719.8271,492.0867 719.8121,492.1037 719.7971,492.1217"
               style="fill:#940000;fill-opacity:1;fill-rule:nonzero;stroke:none"
               id="path977" /><path
               d="M 735.6401,469.2003 C 735.6461,469.1903 735.6521,469.1793 735.6581,469.1693 735.6521,469.1793 735.6461,469.1903 735.6401,469.2003"
               style="fill:#940000;fill-opacity:1;fill-rule:nonzero;stroke:none"
               id="path979" /><path
               d="M 673.3373,528.8282 C 679.2943,525.8352 685.0193,522.4492 690.4773,518.7022 685.0183,522.4492 679.2943,525.8352 673.3373,528.8282"
               style="fill:#940000;fill-opacity:1;fill-rule:nonzero;stroke:none"
               id="path981" /><path
               d="M 669.8039,530.5426 C 670.9529,530.0036 672.0939,529.4516 673.2259,528.8836 672.0939,529.4516 670.9529,530.0036 669.8039,530.5426"
               style="fill:#940000;fill-opacity:1;fill-rule:nonzero;stroke:none"
               id="path983" /><path
               d="M 690.4965,518.6886 C 691.5595,517.9596 692.6115,517.2146 693.6535,516.4576 692.6115,517.2146 691.5595,517.9596 690.4965,518.6886"
               style="fill:#940000;fill-opacity:1;fill-rule:nonzero;stroke:none"
               id="path985" /><path
               d="M 717.2761,495.0372 C 718.1291,494.0762 718.9691,493.1042 719.7971,492.1212 718.9691,493.1042 718.1291,494.0762 717.2761,495.0372"
               style="fill:#940000;fill-opacity:1;fill-rule:nonzero;stroke:none"
               id="path987" /><path
               d="M 666.1557,532.1935 C 667.2957,531.6965 668.4267,531.1855 669.5517,530.6605 668.4267,531.1855 667.2957,531.6965 666.1557,532.1935"
               style="fill:#940000;fill-opacity:1;fill-rule:nonzero;stroke:none"
               id="path989" /><path
               d="M 719.8415,492.069 C 725.7975,484.986 731.0945,477.333 735.6405,469.2 731.0945,477.333 725.7975,484.986 719.8415,492.069"
               style="fill:#940000;fill-opacity:1;fill-rule:nonzero;stroke:none"
               id="path991" /><path
               d="M 714.5573,498.0192 C 715.4443,497.0732 716.3173,496.1162 717.1793,495.1472 716.3173,496.1162 715.4443,497.0732 714.5573,498.0192"
               style="fill:#940000;fill-opacity:1;fill-rule:nonzero;stroke:none"
               id="path993" /><path
               d="M 693.8317,516.3282 C 694.8407,515.5932 695.8387,514.8462 696.8277,514.0862 695.8387,514.8462 694.8407,515.5932 693.8317,516.3282"
               style="fill:#940000;fill-opacity:1;fill-rule:nonzero;stroke:none"
               id="path995" /><path
               d="M 714.5451,498.0323 C 709.1351,503.8013 703.2631,509.1303 696.9891,513.9633 703.2631,509.1303 709.1351,503.8013 714.5451,498.0323"
               style="fill:#940000;fill-opacity:1;fill-rule:nonzero;stroke:none"
               id="path997" /><path
               d="M 624.9423,470.4449 C 622.8343,469.3519 619.9583,469.6549 618.4293,471.4719 617.1533,472.9869 617.0153,475.1279 616.9363,477.1079 616.8073,480.3839 616.6763,483.6609 616.5463,486.9379 616.5003,488.1209 616.4553,489.3269 616.7713,490.4689 617.0863,491.6109 617.8263,492.6989 618.9293,493.1309 620.4203,493.7149 622.1683,492.9279 623.1873,491.6929 625.5943,488.7709 624.1033,485.5349 625.7433,482.4559 626.5773,480.8889 627.7163,479.4509 628.1703,477.7339 628.9043,474.9589 627.4903,471.7669 624.9423,470.4449 M 589.5853,484.1229 C 587.6723,484.7149 585.6733,485.3119 583.6993,484.9809 581.8413,484.6689 580.2193,483.5679 578.4333,482.9679 576.6483,482.3679 574.3523,482.4359 573.2643,483.9739 572.4423,485.1369 572.6213,486.7829 573.3323,488.0159 574.0443,489.2489 575.1923,490.1579 576.3243,491.0219 578.7593,492.8819 581.3883,494.7359 584.4283,495.1159 590.6893,495.8999 597.7123,487.8919 597.4213,481.8029 594.7943,482.3289 592.1663,483.3259 589.5853,484.1229 M 633.8353,528.3409 C 625.5933,525.3729 614.7143,531.6369 614.7143,531.6369 614.7143,531.6369 607.6473,531.9669 607.6473,526.0329 607.6473,520.0989 593.9453,517.4619 598.2313,526.0329 602.5163,534.6039 589.6593,534.6039 573.5053,532.9559 557.3523,531.3069 552.0773,522.4059 552.0773,522.4059 552.0773,522.4059 555.7033,516.4719 561.3083,519.4399 566.9123,522.4059 576.4733,525.3729 573.8353,516.4719 571.1983,507.5709 561.3083,512.1869 561.3083,512.1869 L 551.7473,510.8679 539.5503,505.5929 536.9123,516.4719 529.6603,508.2309 533.2863,501.9669 526.0333,503.2859 522.0773,493.3959 C 522.0773,493.3959 509.5503,491.0879 507.9023,483.5059 506.2533,475.9239 516.3083,481.3629 521.4183,486.4729 526.5283,491.5829 537.5723,493.3959 537.5723,493.3959 L 543.5063,478.5609 547.7913,481.1979 542.5173,492.0769 546.1433,493.3959 552.0773,480.8679 553.7253,473.2859 557.0223,478.8899 556.6923,482.1869 C 556.6923,482.1869 565.2643,484.1649 565.2643,479.5499 565.2643,474.9339 573.1763,470.9779 573.1763,470.9779 L 584.7143,471.6369 C 584.7143,471.6369 583.0663,462.4069 578.7803,455.4839 574.4943,448.5609 559.5383,458.9029 550.6373,461.8689 541.7363,464.8369 536.5833,459.1099 536.5833,459.1099 V 463.0669 L 532.6273,464.0549 528.6713,466.3629 531.6383,474.6049 C 531.6383,474.6049 504.2753,470.6489 497.6823,468.3409 491.0893,466.0329 488.7813,455.8139 488.7813,455.8139 480.5393,455.8139 477.5723,435.7089 477.5723,435.7089 469.9903,418.2419 477.9023,400.7589 482.1883,393.8359 486.4733,386.9129 500.6493,397.8119 500.6493,397.8119 500.6493,397.8119 501.3083,389.8799 508.2313,389.8799 515.1543,389.8799 511.1983,371.9109 511.1983,371.9109 518.3703,364.7399 524.0563,346.3639 522.0773,336.4739 529.6603,316.6939 545.1543,294.2769 554.7143,290.6499 564.2753,287.0239 569.8793,293.2869 573.5053,310.1009 577.1323,326.9139 591.9673,328.2319 591.9673,328.2319 591.9673,328.2319 582.7363,367.7919 593.9453,367.7919 605.1543,367.7919 623.2853,391.8579 623.2853,391.8579 L 621.6373,400.0999 597.2423,402.0779 591.3073,411.6379 585.7033,422.8469 579.7693,442.9569 582.0773,446.9129 C 582.0773,446.9129 585.0443,432.4069 592.2963,429.7699 599.5493,427.1319 598.5603,412.2979 602.5163,405.7039 606.4723,399.1109 622.9563,412.9569 622.9563,412.9569 L 637.7913,419.8799 646.6923,428.7809 634.8243,438.3409 627.2413,434.3849 625.2633,441.3079 621.6373,440.9789 614.3843,450.5389 619.6593,454.1649 628.8903,443.6159 638.4503,445.2639 640.7583,439.6599 662.5163,440.3189 C 667.4613,435.3739 678.9993,429.1109 678.9993,429.1109 L 692.6313,394.8249 699.4393,399.1109 C 697.4613,426.1439 716.2523,434.0549 716.2523,434.0549 716.2523,434.0549 715.9223,418.5609 725.1533,418.5609 734.3833,418.5609 736.6913,400.0999 736.6913,400.0999 745.5923,413.6159 733.3943,429.4399 733.3943,429.4399 736.0233,432.0689 746.8723,443.3269 746.9443,443.4029 743.9993,452.4069 740.2053,461.0279 735.6573,469.1689 735.6513,469.1799 735.6463,469.1899 735.6403,469.1999 731.0953,477.3329 725.7973,484.9869 719.8413,492.0689 719.8263,492.0869 719.8113,492.1039 719.7973,492.1219 718.9693,493.1049 718.1293,494.0759 717.2763,495.0369 717.2443,495.0739 717.2113,495.1109 717.1793,495.1469 716.3173,496.1159 715.4443,497.0729 714.5573,498.0189 714.5533,498.0239 714.5493,498.0279 714.5453,498.0319 709.1353,503.8009 703.2633,509.1299 696.9883,513.9639 696.9353,514.0049 696.8813,514.0459 696.8273,514.0869 695.8393,514.8459 694.8403,515.5929 693.8313,516.3279 693.7723,516.3709 693.7133,516.4149 693.6533,516.4579 692.6113,517.2149 691.5593,517.9589 690.4963,518.6889 690.4903,518.6939 690.4833,518.6979 690.4773,518.7019 685.0193,522.4489 679.2943,525.8359 673.3373,528.8279 673.3003,528.8469 673.2633,528.8649 673.2263,528.8829 672.0943,529.4509 670.9523,530.0039 669.8043,530.5429 669.7203,530.5829 669.6353,530.6219 669.5513,530.6609 668.4273,531.1859 667.2953,531.6959 666.1553,532.1939 666.0773,532.2269 666.0003,532.2619 665.9223,532.2959 664.7233,532.8159 663.5163,533.3219 662.3013,533.8109 646.6413,535.6429 642.0723,531.3059 633.8353,528.3409"
               style="fill:#940000;fill-opacity:1;fill-rule:nonzero;stroke:none"
               id="path999" /></g></g></g><g
         id="g1001"><g
           id="g1003"
           clip-path="url(#clipPath1007)"><g
             id="g1009"
             transform="translate(611.9999,541.2081)"><path
               d="M 0,0 V -25.94"
               style="fill:none;stroke:#000000;stroke-width:10;stroke-linecap:butt;stroke-linejoin:miter;stroke-miterlimit:10;stroke-dasharray:none;stroke-opacity:1"
               id="path1011" /></g><g
             id="g1013"
             transform="translate(611.9999,276.7316)"><path
               d="M 0,0 V -25.94"
               style="fill:none;stroke:#000000;stroke-width:10;stroke-linecap:butt;stroke-linejoin:miter;stroke-miterlimit:10;stroke-dasharray:none;stroke-opacity:1"
               id="path1015" /></g><g
             id="g1017"
             transform="translate(539.3959,521.754)"><path
               d="M 0,0 12.97,-22.465"
               style="fill:none;stroke:#000000;stroke-width:10;stroke-linecap:butt;stroke-linejoin:miter;stroke-miterlimit:10;stroke-dasharray:none;stroke-opacity:1"
               id="path1019" /></g><g
             id="g1021"
             transform="translate(671.6342,292.7106)"><path
               d="M 0,0 12.97,-22.465"
               style="fill:none;stroke:#000000;stroke-width:10;stroke-linecap:butt;stroke-linejoin:miter;stroke-miterlimit:10;stroke-dasharray:none;stroke-opacity:1"
               id="path1023" /></g><g
             id="g1025"
             transform="translate(486.2459,468.6041)"><path
               d="M 0,0 22.465,-12.97"
               style="fill:none;stroke:#000000;stroke-width:10;stroke-linecap:butt;stroke-linejoin:miter;stroke-miterlimit:10;stroke-dasharray:none;stroke-opacity:1"
               id="path1027" /></g><g
             id="g1029"
             transform="translate(715.2895,336.3658)"><path
               d="M 0,0 22.465,-12.97"
               style="fill:none;stroke:#000000;stroke-width:10;stroke-linecap:butt;stroke-linejoin:miter;stroke-miterlimit:10;stroke-dasharray:none;stroke-opacity:1"
               id="path1031" /></g><g
             id="g1033"
             transform="translate(466.7917,396.0001)"><path
               d="M 0,0 H 25.94"
               style="fill:none;stroke:#000000;stroke-width:10;stroke-linecap:butt;stroke-linejoin:miter;stroke-miterlimit:10;stroke-dasharray:none;stroke-opacity:1"
               id="path1035" /></g><g
             id="g1037"
             transform="translate(731.2682,396.0001)"><path
               d="M 0,0 H 25.94"
               style="fill:none;stroke:#000000;stroke-width:10;stroke-linecap:butt;stroke-linejoin:miter;stroke-miterlimit:10;stroke-dasharray:none;stroke-opacity:1"
               id="path1039" /></g><g
             id="g1041"
             transform="translate(486.2459,323.3956)"><path
               d="M 0,0 22.465,12.97"
               style="fill:none;stroke:#000000;stroke-width:10;stroke-linecap:butt;stroke-linejoin:miter;stroke-miterlimit:10;stroke-dasharray:none;stroke-opacity:1"
               id="path1043" /></g><g
             id="g1045"
             transform="translate(715.2895,455.6339)"><path
               d="M 0,0 22.465,12.97"
               style="fill:none;stroke:#000000;stroke-width:10;stroke-linecap:butt;stroke-linejoin:miter;stroke-miterlimit:10;stroke-dasharray:none;stroke-opacity:1"
               id="path1047" /></g><g
             id="g1049"
             transform="translate(539.3959,270.2457)"><path
               d="M 0,0 12.97,22.465"
               style="fill:none;stroke:#000000;stroke-width:10;stroke-linecap:butt;stroke-linejoin:miter;stroke-miterlimit:10;stroke-dasharray:none;stroke-opacity:1"
               id="path1051" /></g><g
             id="g1053"
             transform="translate(671.6342,499.2892)"><path
               d="M 0,0 12.97,22.465"
               style="fill:none;stroke:#000000;stroke-width:10;stroke-linecap:butt;stroke-linejoin:miter;stroke-miterlimit:10;stroke-dasharray:none;stroke-opacity:1"
               id="path1055" /></g><g
             id="g1057"
             transform="translate(595.6196,424.0909)"><path
               d="M 0,0 83.102,-142.258"
               style="fill:none;stroke:#ffffff;stroke-width:20;stroke-linecap:butt;stroke-linejoin:miter;stroke-miterlimit:10;stroke-dasharray:none;stroke-opacity:1"
               id="path1059" /></g><g
             id="g1061"
             transform="translate(604.7895,364.172)"><path
               d="M 0,0 27.227,124.891"
               style="fill:none;stroke:#ffffff;stroke-width:20;stroke-linecap:butt;stroke-linejoin:miter;stroke-miterlimit:10;stroke-dasharray:none;stroke-opacity:1"
               id="path1063" /></g></g></g></g></g></svg>
