<?xml version="1.0" encoding="UTF-8" standalone="no"?>
<svg
   xmlns:dc="http://purl.org/dc/elements/1.1/"
   xmlns:cc="http://creativecommons.org/ns#"
   xmlns:rdf="http://www.w3.org/1999/02/22-rdf-syntax-ns#"
   xmlns:svg="http://www.w3.org/2000/svg"
   xmlns="http://www.w3.org/2000/svg"
   xmlns:sodipodi="http://sodipodi.sourceforge.net/DTD/sodipodi-0.dtd"
   xmlns:inkscape="http://www.inkscape.org/namespaces/inkscape"
   width="79.664871mm"
   height="58.826496mm"
   viewBox="0 0 79.664872 58.826494"
   version="1.1"
   id="svg8"
   sodipodi:docname="climateclocktrio.svg"
   inkscape:version="0.92.4 5da689c313, 2019-01-14">
  <sodipodi:namedview
     pagecolor="#ffffff"
     bordercolor="#666666"
     borderopacity="1"
     objecttolerance="10"
     gridtolerance="10"
     guidetolerance="10"
     inkscape:pageopacity="0"
     inkscape:pageshadow="2"
     inkscape:window-width="2461"
     inkscape:window-height="1276"
     id="namedview1799"
     showgrid="false"
     fit-margin-top="0"
     fit-margin-left="0"
     fit-margin-right="0"
     fit-margin-bottom="0"
     inkscape:zoom="2.3450617"
     inkscape:cx="130.70916"
     inkscape:cy="34.82131"
     inkscape:window-x="0"
     inkscape:window-y="0"
     inkscape:window-maximized="0"
     inkscape:current-layer="svg8" />
  <defs
     id="defs2" />
  <metadata
     id="metadata5">
    <rdf:RDF>
      <cc:Work
         rdf:about="">
        <dc:format>image/svg+xml</dc:format>
        <dc:type
           rdf:resource="http://purl.org/dc/dcmitype/StillImage" />
        <dc:title></dc:title>
      </cc:Work>
    </rdf:RDF>
  </metadata>
  <g
     id="layer1"
     transform="translate(-56.505117,-157.3952)">
    <g
       style="fill:#009dff;fill-opacity:1"
       id="g4690">
      <path
         id="path852"
         style="fill:#009dff;fill-opacity:1"
         d="M 68.366287,169.04745 Q 67.397912,169.04745 66.397787,168.71407 65.397662,168.3807 64.588037,167.6822 63.794287,166.96782 63.286287,165.87245 62.778287,164.7612 62.778287,163.22132 62.778287,161.85607 63.222787,160.77657 63.683162,159.6812 64.445162,158.93507 65.207162,158.18895 66.223162,157.79207 67.239162,157.3952 68.366287,157.3952 69.953787,157.3952 71.207912,158.04607 72.462037,158.68107 73.239912,159.96695 L 70.636412,161.85607 Q 70.207787,161.15757 69.636287,160.80832 69.080662,160.4432 68.398037,160.4432 68.064662,160.4432 67.683662,160.58607 67.302662,160.71307 66.969287,161.03057 66.651787,161.34807 66.429537,161.88782 66.223162,162.42757 66.223162,163.22132 66.223162,163.9992 66.445412,164.53895 66.667662,165.0787 66.985162,165.41207 67.318537,165.72957 67.715412,165.87245 68.128162,166.01532 68.477412,166.01532 69.144162,166.01532 69.668037,165.68195 70.191912,165.34857 70.699912,164.80882 L 73.176412,166.76145 Q 72.303287,168.0632 70.985662,168.55532 69.683912,169.04745 68.366287,169.04745 Z"
         inkscape:connector-curvature="0" />
      <path
         id="path854"
         style="fill:#009dff;fill-opacity:1"
         d="M 74.033649,168.87282 V 157.60157 H 77.446774 V 165.72957 H 81.891774 V 168.87282 Z"
         inkscape:connector-curvature="0" />
      <path
         id="path856"
         style="fill:#009dff;fill-opacity:1"
         d="M 83.003,168.87282 V 157.60157 H 86.416125 V 168.87282 Z"
         inkscape:connector-curvature="0" />
      <path
         id="path858"
         style="fill:#009dff;fill-opacity:1"
         d="M 87.686096,168.87282 V 157.60157 H 90.749971 L 93.797971,162.69745 96.972971,157.60157 H 100.02097 V 168.87282 H 96.607846 V 164.03095 L 94.036096,167.88857 H 93.591596 L 91.099221,164.01507 V 168.87282 Z"
         inkscape:connector-curvature="0" />
      <path
         id="path860"
         style="fill:#009dff;fill-opacity:1"
         d="M 108.79982,168.87282 108.3712,167.50757 H 104.70407 L 104.27545,168.87282 H 100.65595 L 104.6247,157.60157 H 108.22832 L 112.29232,168.87282 Z M 106.49795,161.66557 105.5137,164.85645 H 107.51395 Z"
         inkscape:connector-curvature="0" />
      <path
         id="path862"
         style="fill:#009dff;fill-opacity:1"
         d="M 113.87982,168.87282 V 160.53845 H 111.02232 V 157.61745 H 120.13457 V 160.53845 H 117.27707 V 168.87282 Z"
         inkscape:connector-curvature="0" />
      <path
         id="path864"
         style="fill:#009dff;fill-opacity:1"
         d="M 120.92832,168.87282 V 157.60157 H 129.11982 V 160.6337 H 124.34144 V 161.88782 H 128.35782 V 164.58657 H 124.34144 V 165.8407 H 129.08807 V 168.87282 Z"
         inkscape:connector-curvature="0" />
    </g>
    <g
       style="fill:#00dd72;fill-opacity:1"
       id="g4681">
      <path
         id="path867"
         style="fill:#00dd72;fill-opacity:1"
         d="M 75.150962,182.18212 Q 74.182587,182.18212 73.182462,181.84875 72.182337,181.51537 71.372712,180.81687 70.578962,180.1025 70.070962,179.00712 69.562962,177.89587 69.562962,176.356 69.562962,174.99075 70.007462,173.91125 70.467837,172.81587 71.229837,172.06975 71.991837,171.32362 73.007837,170.92675 74.023837,170.52987 75.150962,170.52987 76.738462,170.52987 77.992587,171.18075 79.246712,171.81575 80.024587,173.10162 L 77.421087,174.99075 Q 76.992462,174.29225 76.420962,173.943 75.865337,173.57787 75.182712,173.57787 74.849337,173.57787 74.468337,173.72075 74.087337,173.84775 73.753962,174.16525 73.436462,174.48275 73.214212,175.0225 73.007837,175.56225 73.007837,176.356 73.007837,177.13387 73.230087,177.67362 73.452337,178.21337 73.769837,178.54675 74.103212,178.86425 74.500087,179.00712 74.912837,179.15 75.262087,179.15 75.928837,179.15 76.452712,178.81662 76.976587,178.48325 77.484587,177.9435 L 79.961087,179.89612 Q 79.087962,181.19787 77.770337,181.69 76.468587,182.18212 75.150962,182.18212 Z"
         inkscape:connector-curvature="0" />
      <path
         id="path869"
         style="fill:#00dd72;fill-opacity:1"
         d="M 80.818324,182.0075 V 170.73625 H 84.231449 V 178.86425 H 88.676449 V 182.0075 Z"
         inkscape:connector-curvature="0" />
      <path
         id="path871"
         style="fill:#00dd72;fill-opacity:1"
         d="M 94.756526,182.198 Q 93.565901,182.198 92.518151,181.80112 91.486276,181.40425 90.724276,180.65812 89.962276,179.89612 89.517776,178.81662 89.073276,177.72125 89.073276,176.34012 89.073276,174.94312 89.517776,173.86362 89.962276,172.76825 90.724276,172.038 91.486276,171.29187 92.518151,170.91087 93.565901,170.514 94.756526,170.514 95.931276,170.514 96.963151,170.91087 98.010901,171.29187 98.772901,172.038 99.550776,172.76825 99.995276,173.86362 100.45565,174.94312 100.45565,176.34012 100.45565,177.72125 99.995276,178.81662 99.550776,179.89612 98.772901,180.65812 98.010901,181.40425 96.963151,181.80112 95.931276,182.198 94.756526,182.198 Z M 94.756526,179.05475 Q 95.105776,179.05475 95.486776,178.91187 95.883651,178.769 96.217026,178.4515 96.550401,178.134 96.772651,177.61012 96.994901,177.08625 96.994901,176.34012 96.994901,175.57812 96.772651,175.07012 96.550401,174.56212 96.217026,174.2605 95.883651,173.95887 95.486776,173.84775 95.105776,173.72075 94.756526,173.72075 94.391401,173.72075 93.994526,173.84775 93.597651,173.95887 93.264276,174.2605 92.946776,174.56212 92.724526,175.07012 92.518151,175.57812 92.518151,176.34012 92.518151,177.08625 92.724526,177.61012 92.930901,178.134 93.248401,178.4515 93.581776,178.769 93.978651,178.91187 94.391401,179.05475 94.756526,179.05475 Z"
         inkscape:connector-curvature="0" />
      <path
         id="path873"
         style="fill:#00dd72;fill-opacity:1"
         d="M 106.67865,182.18212 Q 105.71028,182.18212 104.71015,181.84875 103.71003,181.51537 102.9004,180.81687 102.10665,180.1025 101.59865,179.00712 101.09065,177.89587 101.09065,176.356 101.09065,174.99075 101.53515,173.91125 101.99553,172.81587 102.75753,172.06975 103.51953,171.32362 104.53553,170.92675 105.55153,170.52987 106.67865,170.52987 108.26615,170.52987 109.52028,171.18075 110.7744,171.81575 111.55228,173.10162 L 108.94878,174.99075 Q 108.52015,174.29225 107.94865,173.943 107.39303,173.57787 106.7104,173.57787 106.37703,173.57787 105.99603,173.72075 105.61503,173.84775 105.28165,174.16525 104.96415,174.48275 104.7419,175.0225 104.53553,175.56225 104.53553,176.356 104.53553,177.13387 104.75778,177.67362 104.98003,178.21337 105.29753,178.54675 105.6309,178.86425 106.02778,179.00712 106.44053,179.15 106.78978,179.15 107.45653,179.15 107.9804,178.81662 108.50428,178.48325 109.01228,177.9435 L 111.48878,179.89612 Q 110.61565,181.19787 109.29803,181.69 107.99628,182.18212 106.67865,182.18212 Z"
         inkscape:connector-curvature="0" />
      <path
         id="path875"
         style="fill:#00dd72;fill-opacity:1"
         d="M 112.34602,182.0075 V 170.73625 H 115.75914 V 174.68912 L 118.28327,170.73625 H 122.56952 L 118.55314,176.2925 122.98227,182.0075 H 118.77539 L 116.20364,178.4515 115.75914,179.15 V 182.0075 Z"
         inkscape:connector-curvature="0" />
    </g>
    <g
       id="flowRoot943"
       style="font-style:normal;font-variant:normal;font-weight:bold;font-stretch:normal;font-size:68.15733337px;line-height:1.25;font-family:Helvetica;-inkscape-font-specification:'Helvetica, Bold';font-variant-ligatures:normal;font-variant-caps:normal;font-variant-numeric:normal;font-feature-settings:normal;text-align:start;letter-spacing:0px;word-spacing:0px;writing-mode:lr-tb;text-anchor:start;fill:#ff0000;fill-opacity:1;stroke:none"
       transform="matrix(0.2029972,0,0,0.2029972,95.587602,189.7498)"
       aria-label=".WORLD">
      <path
         id="path838"
         style="font-style:normal;font-variant:normal;font-weight:normal;font-stretch:normal;font-family:'Klima Ultra';-inkscape-font-specification:'Klima Ultra';fill:#ff0000;fill-opacity:1"
         d="M -128.2341,21.998053 Q -131.50566,21.998053 -133.27775,20.294119 -134.98168,18.522029 -134.98168,15.182319 -134.98168,11.774453 -133.27775,10.070519 -131.50566,8.3665859 -128.2341,8.3665859 -125.03071,8.3665859 -123.25862,10.070519 -121.41837,11.774453 -121.41837,15.182319 -121.41837,18.522029 -123.25862,20.294119 -125.03071,21.998053 -128.2341,21.998053 Z"
         inkscape:connector-curvature="0" />
      <path
         id="path840"
         style="font-style:normal;font-variant:normal;font-weight:normal;font-stretch:normal;font-family:'Klima Ultra';-inkscape-font-specification:'Klima Ultra';fill:#ff0000;fill-opacity:1"
         d="M -104.58357,21.248322 -119.03293,-27.143385 H -103.22043 L -97.154423,-1.9933288 -89.384487,-27.143385 H -79.637988 L -71.868052,-1.9933288 -66.415465,-27.143385 H -50.671121 L -65.052319,21.248322 H -78.070369 L -84.817945,0.66480724 -91.565521,21.248322 Z"
         inkscape:connector-curvature="0" />
      <path
         id="path842"
         style="font-style:normal;font-variant:normal;font-weight:normal;font-stretch:normal;font-family:'Klima Ultra';-inkscape-font-specification:'Klima Ultra';fill:#ff0000;fill-opacity:1"
         d="M -26.611803,22.06621 Q -31.723603,22.06621 -36.221987,20.362277 -40.652213,18.658343 -43.923765,15.454949 -47.195317,12.183397 -49.103723,7.5486979 -51.012128,2.8458419 -51.012128,-3.0838461 -51.012128,-9.0816914 -49.103723,-13.71639 -47.195317,-18.419246 -43.923765,-21.554483 -40.652213,-24.757878 -36.221987,-26.393654 -31.723603,-28.097587 -26.611803,-28.097587 -21.56816,-28.097587 -17.137933,-26.393654 -12.639549,-24.757878 -9.3679973,-21.554483 -6.028288,-18.419246 -4.1198826,-13.71639 -2.14332,-9.0816914 -2.14332,-3.0838461 -2.14332,2.8458419 -4.1198826,7.5486979 -6.028288,12.183397 -9.3679973,15.454949 -12.639549,18.658343 -17.137933,20.362277 -21.56816,22.06621 -26.611803,22.06621 Z M -26.611803,8.5710579 Q -25.112341,8.5710579 -23.476565,7.9576419 -21.772632,7.3442259 -20.341328,5.9810792 -18.910024,4.6179326 -17.955821,2.3687406 -17.001619,0.11954857 -17.001619,-3.0838461 -17.001619,-6.3553981 -17.955821,-8.5364328 -18.910024,-10.717467 -20.341328,-12.012457 -21.772632,-13.307446 -23.476565,-13.784547 -25.112341,-14.329806 -26.611803,-14.329806 -28.179421,-14.329806 -29.883355,-13.784547 -31.587288,-13.307446 -33.018592,-12.012457 -34.381739,-10.717467 -35.335941,-8.5364328 -36.221987,-6.3553981 -36.221987,-3.0838461 -36.221987,0.11954857 -35.335941,2.3687406 -34.449896,4.6179326 -33.086749,5.9810792 -31.655445,7.3442259 -29.951512,7.9576419 -28.179421,8.5710579 -26.611803,8.5710579 Z"
         inkscape:connector-curvature="0" />
      <path
         id="path844"
         style="font-style:normal;font-variant:normal;font-weight:normal;font-stretch:normal;font-family:'Klima Ultra';-inkscape-font-specification:'Klima Ultra';fill:#ff0000;fill-opacity:1"
         d="M 1.9461267,21.248322 V -27.143385 H 22.734113 Q 28.050385,-27.143385 31.867196,-25.643923 35.752164,-24.144462 38.205828,-21.690798 40.659492,-19.305291 41.818167,-16.170054 42.976841,-13.102974 42.976841,-9.8995794 42.976841,-6.0146114 40.795807,-2.2659581 38.682929,1.4145379 34.661647,3.8682019 L 43.999201,21.248322 H 28.868273 L 22.257012,6.9352819 H 16.531796 V 21.248322 Z M 16.531796,-14.261649 V -5.8782968 H 22.257012 Q 24.233575,-5.8782968 26.210137,-6.5598701 28.1867,-7.2414434 28.1867,-10.172209 28.1867,-11.67167 27.505127,-12.489558 26.891711,-13.307446 26.005665,-13.71639 25.11962,-14.125334 24.09726,-14.193491 23.0749,-14.261651 22.257012,-14.261651 Z"
         inkscape:connector-curvature="0" />
      <path
         id="path846"
         style="font-style:normal;font-variant:normal;font-weight:normal;font-stretch:normal;font-family:'Klima Ultra';-inkscape-font-specification:'Klima Ultra';fill:#ff0000;fill-opacity:1"
         d="M 47.747778,21.248322 V -27.143385 H 62.401604 V 7.7531699 H 81.485658 V 21.248322 Z"
         inkscape:connector-curvature="0" />
      <path
         id="path848"
         style="font-style:normal;font-variant:normal;font-weight:normal;font-stretch:normal;font-family:'Klima Ultra';-inkscape-font-specification:'Klima Ultra';fill:#ff0000;fill-opacity:1"
         d="M 86.256582,21.248322 V -27.143385 H 103.77302 Q 109.36192,-27.143385 114.06477,-25.507609 118.83579,-23.871833 122.1755,-20.804753 125.51521,-17.737673 127.35545,-13.307446 129.26386,-8.8772194 129.26386,-3.3564754 129.26386,2.9821566 127.42361,7.6168552 125.58336,12.251554 122.24365,15.318634 118.90394,18.317557 114.13293,19.817018 109.43008,21.248322 103.77302,21.248322 Z M 100.91041,7.6850126 H 103.70486 Q 108.47587,7.6850126 111.54295,5.1631912 114.67819,2.6413699 114.67819,-3.3564754 114.67819,-9.0816914 111.54295,-11.330883 108.40772,-13.580075 103.70486,-13.580075 H 100.91041 Z"
         inkscape:connector-curvature="0" />
    </g>
  </g>
  <g
     aria-label="#ActInTime"
     transform="matrix(0.20794158,0,0,0.20794158,-0.02313582,15.87454)"
     style="font-style:normal;font-variant:normal;font-weight:normal;font-stretch:normal;font-size:68.15733337px;line-height:0.80000001;font-family:'Klima Ultra', Ultra;-inkscape-font-specification:'Klima Ultra, Ultra';font-variant-ligatures:normal;font-variant-caps:normal;font-variant-numeric:normal;font-feature-settings:normal;text-align:start;letter-spacing:0px;word-spacing:0px;writing-mode:lr-tb;text-anchor:start;fill:#00dd72;fill-opacity:1;stroke:none"
     id="flowRoot2344">
    <path
       d="M 5.0185892,206.01253 5.9727918,196.74313 H 0.11126117 V 186.38322 H 7.0633092 L 8.0175118,177.11382 H 0.11126117 V 167.63995 H 9.0398718 L 10.062232,157.62082 H 20.694776 L 19.672416,167.63995 H 27.919453 L 28.941813,157.62082 H 39.5062 L 38.48384,167.63995 H 44.822472 V 177.11382 H 37.46148 L 36.507277,186.38322 H 44.822472 V 196.74313 H 35.41676 L 34.462557,206.01253 H 23.898171 L 24.852373,196.74313 H 16.605336 L 15.651133,206.01253 Z M 17.695853,186.38322 H 25.942891 L 26.897093,177.11382 H 18.650056 Z"
       id="path2398"
       inkscape:connector-curvature="0" />
    <path
       d="M 83.535791,206.01253 81.695543,200.151 H 65.951199 L 64.110951,206.01253 H 48.571079 L 65.610413,157.62082 H 81.082127 L 98.530405,206.01253 Z M 73.652978,175.0691 69.427223,188.76873 H 78.015047 Z"
       id="path2400"
       inkscape:connector-curvature="0" />
    <path
       d="M 117.47808,206.55779 Q 113.18417,206.55779 109.50368,205.2628 105.89134,203.96781 103.30136,201.51415 100.71138,198.99233 99.280077,195.44815 97.848773,191.90396 97.848773,187.40558 97.848773,182.97535 99.280077,179.43117 100.71138,175.81883 103.30136,173.36517 105.89134,170.84335 109.50368,169.4802 113.18417,168.11705 117.47808,168.11705 122.79436,168.11705 126.54301,170.22993 130.29166,172.27465 133.4269,176.43225 L 123.54409,184.06587 Q 122.86251,182.77088 121.15858,181.54405 119.45465,180.31722 117.47808,180.31722 115.29705,180.31722 113.66127,182.02115 112.0255,183.65693 112.0255,187.40558 112.0255,190.94976 113.66127,192.65369 115.29705,194.28947 117.47808,194.28947 119.79543,194.28947 121.36305,193.40343 122.93067,192.51738 123.6804,191.08608 L 133.63137,198.51523 Q 131.5185,201.92309 127.3609,204.24044 123.27146,206.55779 117.47808,206.55779 Z"
       id="path2402"
       inkscape:connector-curvature="0" />
    <path
       d="M 138.53865,195.85709 V 179.7038 H 134.65368 V 168.79863 H 139.08391 L 140.44705,159.12029 H 153.39695 V 168.79863 H 158.64506 V 179.7038 H 153.39695 V 190.4045 Q 153.39695,193.53974 154.35115,194.01684 155.30535,194.49394 157.41823,194.49394 H 158.37243 V 205.67175 Q 157.48639,205.87622 155.7143,206.01253 154.01036,206.217 151.89749,206.217 145.01359,206.217 141.74204,203.49071 138.53865,200.76442 138.53865,195.85709 Z"
       id="path2404"
       inkscape:connector-curvature="0" />
    <path
       d="M 163.2116,206.01253 V 157.62082 H 177.86543 V 206.01253 Z"
       id="path2406"
       inkscape:connector-curvature="0" />
    <path
       d="M 183.38603,206.01253 V 168.79863 H 195.51804 L 196.19961,172.34281 Q 197.4946,170.57072 200.35721,169.27573 203.28798,167.91258 206.35506,167.91258 208.87688,167.91258 211.33054,168.59416 213.7842,169.27573 215.69261,170.97966 217.66917,172.6836 218.896,175.5462 220.12284,178.40881 220.12284,182.77088 V 206.01253 H 205.3327 V 183.72508 Q 205.3327,181.74852 204.03771,180.72616 202.81087,179.7038 201.72036,179.7038 200.2209,179.7038 199.19854,180.79432 198.17618,181.81668 198.17618,183.72508 V 206.01253 Z"
       id="path2408"
       inkscape:connector-curvature="0" />
    <path
       d="M 235.32186,206.01253 V 170.22993 H 223.05354 V 157.68898 H 262.17585 V 170.22993 H 249.90753 V 206.01253 Z"
       id="path2410"
       inkscape:connector-curvature="0" />
    <path
       d="M 272.60392,164.77734 Q 269.46868,164.77734 267.21949,163.14157 264.9703,161.50579 264.9703,158.3024 264.9703,155.099 267.21949,153.46323 269.46868,151.82745 272.60392,151.82745 275.73916,151.82745 278.05651,153.46323 280.37386,155.099 280.37386,158.3024 280.37386,161.50579 278.05651,163.14157 275.73916,164.77734 272.60392,164.77734 Z M 265.51556,206.01253 V 168.79863 H 279.62413 V 206.01253 Z"
       id="path2412"
       inkscape:connector-curvature="0" />
    <path
       d="M 285.28105,206.01253 V 168.79863 H 298.09463 L 298.70805,172.41097 Q 299.04883,171.79755 300.00304,170.97966 301.0254,170.09362 302.38854,169.34389 303.75169,168.59416 305.45562,168.11705 307.15956,167.5718 308.99981,167.5718 311.86241,167.5718 314.31608,168.79863 316.8379,169.9573 318.20105,171.86571 319.56419,170.63888 322.49496,169.13941 325.42572,167.5718 329.71963,167.5718 332.30961,167.5718 334.76328,168.73047 337.2851,169.82099 339.12535,171.93386 341.03375,174.04674 342.12427,177.11382 343.28294,180.11275 343.28294,183.92956 V 206.01253 H 328.4928 V 183.72508 Q 328.4928,182.02115 327.40229,181.20326 326.31177,180.31722 325.15309,180.31722 323.92626,180.31722 322.76759,181.13511 321.67707,181.95299 321.67707,183.72508 V 206.01253 H 306.88693 V 184.13403 Q 306.81877,182.29378 305.79641,181.33958 304.77405,180.31722 303.4109,180.31722 302.04776,180.31722 301.0254,181.33958 300.07119,182.36194 300.07119,184.13403 V 206.01253 Z"
       id="path2414"
       inkscape:connector-curvature="0" />
    <path
       d="M 365.36582,206.55779 Q 361.27638,206.55779 357.80036,205.33096 354.39249,204.10413 351.93883,201.71862 349.48516,199.33311 348.12201,195.78893 346.75887,192.24475 346.75887,187.74637 346.75887,182.83904 348.19017,179.15854 349.68963,175.40989 352.1433,173.02438 354.66512,170.57072 358.07299,169.34389 361.54901,168.11705 365.43398,168.11705 373.61286,168.11705 378.38387,173.02438 383.22304,177.93171 383.22304,187.74637 V 191.42686 H 360.11771 Q 360.39033,193.6079 361.95795,194.76657 363.59373,195.85709 365.84292,195.85709 368.22843,195.85709 369.93236,195.10736 371.63629,194.28947 372.72681,192.38107 L 382.06437,199.53759 Q 379.88333,202.33204 375.86205,204.44491 371.90892,206.55779 365.36582,206.55779 Z M 360.11771,183.11167 H 370.40946 Q 370.27315,180.72616 369.11447,179.63564 367.9558,178.54513 365.43398,178.54513 363.04847,178.54513 361.68532,179.7038 360.39033,180.79432 360.11771,183.11167 Z"
       id="path2416"
       inkscape:connector-curvature="0" />
  </g>
</svg>
