<?xml version="1.0" encoding="UTF-8" standalone="no"?>
<svg
   xmlns:dc="http://purl.org/dc/elements/1.1/"
   xmlns:cc="http://creativecommons.org/ns#"
   xmlns:rdf="http://www.w3.org/1999/02/22-rdf-syntax-ns#"
   xmlns:svg="http://www.w3.org/2000/svg"
   xmlns="http://www.w3.org/2000/svg"
   id="svg8"
   version="1.1"
   viewBox="0 0 66.34153 24.802797"
   height="24.802797mm"
   width="66.34153mm">
  <defs
     id="defs2" />
  <metadata
     id="metadata5">
    <rdf:RDF>
      <cc:Work
         rdf:about="">
        <dc:format>image/svg+xml</dc:format>
        <dc:type
           rdf:resource="http://purl.org/dc/dcmitype/StillImage" />
        <dc:title></dc:title>
      </cc:Work>
    </rdf:RDF>
  </metadata>
  <g
     transform="translate(-62.778286,-157.3952)"
     id="layer1">
    <g
       transform="translate(2.2678571,48.758929)"
       id="g850">
      <path
         d="m 66.09843,120.28852 q -0.968375,0 -1.9685,-0.33338 -1.000125,-0.33337 -1.80975,-1.03187 -0.79375,-0.71438 -1.30175,-1.80975 -0.508,-1.11125 -0.508,-2.65113 0,-1.36525 0.4445,-2.44475 0.460375,-1.09537 1.222375,-1.8415 0.762,-0.74612 1.778,-1.143 1.016,-0.39687 2.143125,-0.39687 1.5875,0 2.841625,0.65087 1.254125,0.635 2.032,1.92088 l -2.6035,1.88912 q -0.428625,-0.6985 -1.000125,-1.04775 -0.555625,-0.36512 -1.23825,-0.36512 -0.333375,0 -0.714375,0.14287 -0.381,0.127 -0.714375,0.4445 -0.3175,0.3175 -0.53975,0.85725 -0.206375,0.53975 -0.206375,1.3335 0,0.77788 0.22225,1.31763 0.22225,0.53975 0.53975,0.87312 0.333375,0.3175 0.73025,0.46038 0.41275,0.14287 0.762,0.14287 0.66675,0 1.190625,-0.33337 0.523875,-0.33338 1.031875,-0.87313 l 2.4765,1.95263 q -0.873125,1.30175 -2.19075,1.79387 -1.30175,0.49213 -2.619375,0.49213 z"
         style="fill:#00dd72;"
         id="path852" />
      <path
         d="m 71.765792,120.11389 v -11.27125 h 3.413125 v 8.128 h 4.445 v 3.14325 z"
         style="fill:#00dd72;"
         id="path854" />
      <path
         d="m 80.735143,120.11389 v -11.27125 h 3.413125 v 11.27125 z"
         style="fill:#00dd72;"
         id="path856" />
      <path
         d="m 85.418239,120.11389 v -11.27125 h 3.063875 l 3.048,5.09588 3.175,-5.09588 h 3.048 v 11.27125 h -3.413125 v -4.84187 l -2.57175,3.85762 h -0.4445 l -2.492375,-3.8735 v 4.85775 z"
         style="fill:#00dd72;"
         id="path858" />
      <path
         d="m 106.53196,120.11389 -0.42862,-1.36525 h -3.66713 l -0.42862,1.36525 h -3.6195 l 3.96875,-11.27125 h 3.60362 l 4.064,11.27125 z m -2.30187,-7.20725 -0.98425,3.19088 h 2.00025 z"
         style="fill:#00dd72;"
         id="path860" />
      <path
         d="m 111.61196,120.11389 v -8.33437 h -2.8575 v -2.921 h 9.11225 v 2.921 h -2.8575 v 8.33437 z"
         style="fill:#00dd72;"
         id="path862" />
      <path
         d="m 118.66046,120.11389 v -11.27125 h 8.1915 v 3.03213 h -4.77838 v 1.25412 h 4.01638 v 2.69875 h -4.01638 v 1.25413 h 4.74663 v 3.03212 z"
         style="fill:#00dd72;"
         id="path864" />
      <path
         d="m 72.883105,133.42319 q -0.968375,0 -1.9685,-0.33337 -1.000125,-0.33338 -1.80975,-1.03188 -0.79375,-0.71437 -1.30175,-1.80975 -0.508,-1.11125 -0.508,-2.65112 0,-1.36525 0.4445,-2.44475 0.460375,-1.09538 1.222375,-1.8415 0.762,-0.74613 1.778,-1.143 1.016,-0.39688 2.143125,-0.39688 1.5875,0 2.841625,0.65088 1.254125,0.635 2.032,1.92087 l -2.6035,1.88913 q -0.428625,-0.6985 -1.000125,-1.04775 -0.555625,-0.36513 -1.23825,-0.36513 -0.333375,0 -0.714375,0.14288 -0.381,0.127 -0.714375,0.4445 -0.3175,0.3175 -0.53975,0.85725 -0.206375,0.53975 -0.206375,1.3335 0,0.77787 0.22225,1.31762 0.22225,0.53975 0.53975,0.87313 0.333375,0.3175 0.73025,0.46037 0.41275,0.14288 0.762,0.14288 0.66675,0 1.190625,-0.33338 0.523875,-0.33337 1.031875,-0.87312 l 2.4765,1.95262 q -0.873125,1.30175 -2.19075,1.79388 -1.30175,0.49212 -2.619375,0.49212 z"
         style="fill:#ff0000;"
         id="path867" />
      <path
         d="m 78.550467,133.24857 v -11.27125 h 3.413125 v 8.128 h 4.445 v 3.14325 z"
         style="fill:#ff0000;"
         id="path869" />
      <path
         d="m 92.488669,133.43907 q -1.190625,0 -2.238375,-0.39688 -1.031875,-0.39687 -1.793875,-1.143 -0.762,-0.762 -1.2065,-1.8415 -0.4445,-1.09537 -0.4445,-2.4765 0,-1.397 0.4445,-2.4765 0.4445,-1.09537 1.2065,-1.82562 0.762,-0.74613 1.793875,-1.12713 1.04775,-0.39687 2.238375,-0.39687 1.17475,0 2.206625,0.39687 1.04775,0.381 1.80975,1.12713 0.777875,0.73025 1.222375,1.82562 0.460375,1.0795 0.460375,2.4765 0,1.38113 -0.460375,2.4765 -0.4445,1.0795 -1.222375,1.8415 -0.762,0.74613 -1.80975,1.143 -1.031875,0.39688 -2.206625,0.39688 z m 0,-3.14325 q 0.34925,0 0.73025,-0.14288 0.396875,-0.14287 0.73025,-0.46037 0.333375,-0.3175 0.555625,-0.84138 0.22225,-0.52387 0.22225,-1.27 0,-0.762 -0.22225,-1.27 -0.22225,-0.508 -0.555625,-0.80962 -0.333375,-0.30163 -0.73025,-0.41275 -0.381,-0.127 -0.73025,-0.127 -0.365125,0 -0.762,0.127 -0.396875,0.11112 -0.73025,0.41275 -0.3175,0.30162 -0.53975,0.80962 -0.206375,0.508 -0.206375,1.27 0,0.74613 0.206375,1.27 0.206375,0.52388 0.523875,0.84138 0.333375,0.3175 0.73025,0.46037 0.41275,0.14288 0.777875,0.14288 z"
         style="fill:#ff0000;"
         id="path871" />
      <path
         d="m 104.41079,133.42319 q -0.96837,0 -1.9685,-0.33337 -1.00012,-0.33338 -1.80975,-1.03188 -0.793746,-0.71437 -1.301746,-1.80975 -0.508,-1.11125 -0.508,-2.65112 0,-1.36525 0.4445,-2.44475 0.460375,-1.09538 1.222376,-1.8415 0.762,-0.74613 1.778,-1.143 1.016,-0.39688 2.14312,-0.39688 1.5875,0 2.84163,0.65088 1.25412,0.635 2.032,1.92087 l -2.6035,1.88913 q -0.42863,-0.6985 -1.00013,-1.04775 -0.55562,-0.36513 -1.23825,-0.36513 -0.33337,0 -0.71437,0.14288 -0.381,0.127 -0.71438,0.4445 -0.3175,0.3175 -0.53975,0.85725 -0.20637,0.53975 -0.20637,1.3335 0,0.77787 0.22225,1.31762 0.22225,0.53975 0.53975,0.87313 0.33337,0.3175 0.73025,0.46037 0.41275,0.14288 0.762,0.14288 0.66675,0 1.19062,-0.33338 0.52388,-0.33337 1.03188,-0.87312 l 2.4765,1.95262 q -0.87313,1.30175 -2.19075,1.79388 -1.30175,0.49212 -2.61938,0.49212 z"
         style="fill:#ff0000;"
         id="path873" />
      <path
         d="m 110.07816,133.24857 v -11.27125 h 3.41312 v 3.95287 l 2.52413,-3.95287 h 4.28625 l -4.01638,5.55625 4.42913,5.715 h -4.20688 l -2.57175,-3.556 -0.4445,0.6985 v 2.8575 z"
         style="fill:#ff0000;"
         id="path875" />
    </g>
  </g>
</svg>
