<?xml version="1.0" encoding="UTF-8" standalone="no"?>
<svg
   xmlns:dc="http://purl.org/dc/elements/1.1/"
   xmlns:cc="http://creativecommons.org/ns#"
   xmlns:rdf="http://www.w3.org/1999/02/22-rdf-syntax-ns#"
   xmlns:svg="http://www.w3.org/2000/svg"
   xmlns="http://www.w3.org/2000/svg"
   version="1.1"
   id="svg4537"
   xml:space="preserve"
   width="613.15863"
   height="573.38599"
   viewBox="0 0 613.15863 573.38599"><metadata
     id="metadata4543"><rdf:RDF><cc:Work
         rdf:about=""><dc:format>image/svg+xml</dc:format><dc:type
           rdf:resource="http://purl.org/dc/dcmitype/StillImage" /><dc:title></dc:title></cc:Work></rdf:RDF></metadata><defs
     id="defs4541"><clipPath
       clipPathUnits="userSpaceOnUse"
       id="clipPath4555"><path
         d="M 0,792 H 1224 V 0 H 0 Z"
         id="path4553" /></clipPath><clipPath
       clipPathUnits="userSpaceOnUse"
       id="clipPath4663"><path
         d="m 381.495,399.038 c -0.006,-0.716 -0.029,-1.423 -0.029,-2.143 v 0 c 0,-9.453 0.41,-18.594 1.21,-27.436 v 0 h -0.01 c 3.092,-34.707 12.513,-65.075 28.252,-91.114 v 0 c 10.025,-16.981 22.172,-31.648 36.456,-43.982 v 0 c 11.91,-10.295 25.141,-19.096 39.675,-26.428 v 0 c 33.05,-17.157 72.278,-26.11 117.664,-26.878 v 0 c 1.475,-0.029 2.958,-0.042 4.442,-0.053 v 0 c 0.653,-0.003 1.295,-0.022 1.951,-0.022 v 0 c 0.077,0 0.152,0.002 0.228,0.002 v 0 c 32.522,0.022 62.866,4.894 91.029,14.61 v 0 c 28.238,9.748 52.589,23.858 73.065,42.348 v 0 c 20.483,18.49 36.588,40.959 48.312,67.399 v 0 c 8.222,18.531 13.549,38.771 16.009,60.712 v 0 c 1.051,9.375 1.587,19.054 1.587,29.053 v 0 c 0,1.322 -0.027,2.623 -0.043,3.932 v 0 z"
         id="path4661" /></clipPath></defs><g
     id="g4545"
     transform="matrix(1.3333333,0,0,-1.3333333,-508.62225,814.69438)"><g
       id="g4857"><g
         id="g4549"><g
           clip-path="url(#clipPath4555)"
           id="g4551"><g
             transform="translate(840.1259,422.5428)"
             id="g4557"><path
               id="path4559"
               style="fill:#00dd72;fill-opacity:1;fill-rule:nonzero;stroke:none"
               d="m 0,0 h 0.01 c -3.092,34.707 -12.513,65.076 -28.253,91.116 -10.024,16.98 -22.171,31.646 -36.454,43.98 -11.908,10.292 -25.136,19.092 -39.667,26.423 -33.058,17.164 -72.301,26.119 -117.703,26.884 -1.403,0.027 -2.814,0.038 -4.225,0.05 -0.716,0.004 -1.419,0.025 -2.138,0.025 -0.082,0 -0.163,-0.003 -0.244,-0.003 -32.516,-0.024 -62.855,-4.896 -91.013,-14.611 -28.237,-9.748 -52.589,-23.858 -73.065,-42.347 -20.483,-18.49 -36.588,-40.959 -48.312,-67.399 -8.221,-18.532 -13.549,-38.772 -16.008,-60.714 -0.975,-8.699 -1.487,-17.673 -1.559,-26.908 H 1.167 C 1.069,-15.448 0.688,-7.606 0,0" /></g><g
             transform="translate(609.2941,312.9637)"
             id="g4561"><path
               id="path4563"
               style="fill:#231f1f;fill-opacity:1;fill-rule:nonzero;stroke:none"
               d="m 0,0 c -2.713,-2.479 -7.273,-0.792 -10.561,-2.435 -2.907,-1.453 -3.961,-4.998 -4.722,-8.157 -1.037,-4.305 -2.073,-8.611 -3.11,-12.916 -0.851,-3.532 -1.419,-7.946 1.452,-10.172 1.658,-1.286 4.033,-1.328 5.995,-0.583 1.961,0.745 3.586,2.165 5.078,3.641 6.597,6.525 11.301,14.631 14.124,23.443 1.029,3.213 2.058,6.235 -0.087,9.323 C 4.446,7.503 3.016,2.757 0,0" /></g><g
             transform="translate(608.9536,230.9768)"
             id="g4565"><path
               id="path4567"
               style="fill:#231f1f;fill-opacity:1;fill-rule:nonzero;stroke:none"
               d="m 0,0 c -7.042,-1.283 -13.772,-4.419 -20.929,-4.586 -7.439,-0.174 -14.529,2.87 -21.825,4.328 -12.855,2.568 -31.058,0.701 -42.139,-6.306 24.223,-10.785 51.043,-16.788 79.268,-16.788 28.53,0 55.627,6.126 80.053,17.131 C 58.207,-5.596 45.837,-4.048 29.791,-1.586 19.911,-0.071 9.833,1.792 0,0" /></g><g
             transform="translate(797.9699,390.7981)"
             id="g4569"><path
               id="path4571"
               style="fill:#231f1f;fill-opacity:1;fill-rule:nonzero;stroke:none"
               d="m 0,0 c -1.184,1.877 -3.979,2.03 -5.988,1.087 -2.009,-0.942 -3.519,-2.668 -5.258,-4.047 -1.739,-1.379 -4.023,-2.458 -6.134,-1.776 -5.229,1.692 -3.813,11.468 -9.132,12.85 -2.276,0.591 -4.694,-0.966 -5.77,-3.058 -1.076,-2.092 -1.084,-4.564 -0.845,-6.905 0.769,-7.527 3.816,-14.664 4.768,-22.17 0.462,-3.643 0.721,-7.902 3.755,-9.972 1.618,-1.105 3.824,-1.38 5.047,-2.911 1.055,-1.322 1.044,-3.163 1.362,-4.825 0.813,-4.243 4.305,-7.598 8.509,-8.595 5.363,15.939 8.712,32.8 9.77,50.28 z" /></g><g
             transform="translate(722.0629,557.533)"
             id="g4573"><path
               id="path4575"
               style="fill:#231f1f;fill-opacity:1;fill-rule:nonzero;stroke:none"
               d="M 0,0 C 0.071,-0.055 0.143,-0.109 0.214,-0.164 0.143,-0.109 0.071,-0.055 0,0" /></g><g
             transform="translate(745.6513,536.1585)"
             id="g4577"><path
               id="path4579"
               style="fill:#231f1f;fill-opacity:1;fill-rule:nonzero;stroke:none"
               d="M 0,0 C 0.006,-0.006 0.011,-0.012 0.017,-0.018 0.011,-0.012 0.006,-0.006 0,0" /></g><g
             transform="translate(717.8369,560.6898)"
             id="g4581"><path
               id="path4583"
               style="fill:#231f1f;fill-opacity:1;fill-rule:nonzero;stroke:none"
               d="M 0,0 C 0.079,-0.058 0.158,-0.115 0.237,-0.173 0.158,-0.115 0.079,-0.058 0,0" /></g><g
             transform="translate(713.6074,563.6785)"
             id="g4585"><path
               id="path4587"
               style="fill:#231f1f;fill-opacity:1;fill-rule:nonzero;stroke:none"
               d="M 0,0 C 0.009,-0.006 0.017,-0.012 0.026,-0.019 0.017,-0.012 0.009,-0.006 0,0" /></g><g
             transform="translate(749.1581,532.3167)"
             id="g4589"><path
               id="path4591"
               style="fill:#231f1f;fill-opacity:1;fill-rule:nonzero;stroke:none"
               d="M 0,0 C 0.043,-0.049 0.086,-0.097 0.129,-0.146 0.086,-0.097 0.043,-0.049 0,0" /></g><g
             transform="translate(680.9152,581.7757)"
             id="g4593"><path
               id="path4595"
               style="fill:#231f1f;fill-opacity:1;fill-rule:nonzero;stroke:none"
               d="M 0,0 C 0.104,-0.045 0.208,-0.091 0.311,-0.136 0.208,-0.091 0.104,-0.045 0,0" /></g><g
             transform="translate(690.6401,577.2332)"
             id="g4597"><path
               id="path4599"
               style="fill:#231f1f;fill-opacity:1;fill-rule:nonzero;stroke:none"
               d="M 0,0 C 0.049,-0.025 0.099,-0.049 0.148,-0.074 0.099,-0.049 0.049,-0.025 0,0" /></g><g
             transform="translate(685.7473,579.5994)"
             id="g4601"><path
               id="path4603"
               style="fill:#231f1f;fill-opacity:1;fill-rule:nonzero;stroke:none"
               d="M 0,0 C 0.112,-0.052 0.224,-0.104 0.336,-0.157 0.224,-0.104 0.112,-0.052 0,0" /></g><g
             transform="translate(752.6437,528.2889)"
             id="g4605"><path
               id="path4607"
               style="fill:#231f1f;fill-opacity:1;fill-rule:nonzero;stroke:none"
               d="M 0,0 C 0.02,-0.023 0.04,-0.047 0.059,-0.07 0.04,-0.047 0.02,-0.023 0,0" /></g><g
             transform="translate(773.737,497.7718)"
             id="g4609"><path
               id="path4611"
               style="fill:#231f1f;fill-opacity:1;fill-rule:nonzero;stroke:none"
               d="M 0,0 C 0.008,-0.014 0.016,-0.028 0.023,-0.042 0.016,-0.028 0.008,-0.014 0,0" /></g><g
             transform="translate(690.7878,577.1595)"
             id="g4613"><path
               id="path4615"
               style="fill:#231f1f;fill-opacity:1;fill-rule:nonzero;stroke:none"
               d="M 0,0 C 7.931,-3.984 15.553,-8.493 22.82,-13.481 15.552,-8.493 7.931,-3.984 0,0" /></g><g
             transform="translate(686.0837,579.4422)"
             id="g4617"><path
               id="path4619"
               style="fill:#231f1f;fill-opacity:1;fill-rule:nonzero;stroke:none"
               d="M 0,0 C 1.53,-0.717 3.049,-1.453 4.556,-2.209 3.049,-1.453 1.53,-0.717 0,0" /></g><g
             transform="translate(713.6335,563.66)"
             id="g4621"><path
               id="path4623"
               style="fill:#231f1f;fill-opacity:1;fill-rule:nonzero;stroke:none"
               d="M 0,0 C 1.415,-0.972 2.816,-1.962 4.203,-2.97 2.816,-1.962 1.415,-0.972 0,0" /></g><g
             transform="translate(749.2875,532.1707)"
             id="g4625"><path
               id="path4627"
               style="fill:#231f1f;fill-opacity:1;fill-rule:nonzero;stroke:none"
               d="M 0,0 C 1.135,-1.279 2.254,-2.573 3.356,-3.882 2.254,-2.573 1.135,-1.279 0,0" /></g><g
             transform="translate(681.2265,581.64)"
             id="g4629"><path
               id="path4631"
               style="fill:#231f1f;fill-opacity:1;fill-rule:nonzero;stroke:none"
               d="M 0,0 C 1.517,-0.662 3.024,-1.342 4.521,-2.041 3.024,-1.342 1.517,-0.662 0,0" /></g><g
             transform="translate(752.7031,528.2191)"
             id="g4633"><path
               id="path4635"
               style="fill:#231f1f;fill-opacity:1;fill-rule:nonzero;stroke:none"
               d="M 0,0 C 7.929,-9.43 14.982,-19.62 21.034,-30.447 14.982,-19.62 7.93,-9.43 0,0" /></g><g
             transform="translate(745.6679,536.1404)"
             id="g4637"><path
               id="path4639"
               style="fill:#231f1f;fill-opacity:1;fill-rule:nonzero;stroke:none"
               d="M 0,0 C 1.18,-1.259 2.343,-2.534 3.49,-3.824 2.343,-2.534 1.18,-1.259 0,0" /></g><g
             transform="translate(718.0739,560.5169)"
             id="g4641"><path
               id="path4643"
               style="fill:#231f1f;fill-opacity:1;fill-rule:nonzero;stroke:none"
               d="M 0,0 C 1.343,-0.978 2.672,-1.973 3.989,-2.984 2.672,-1.973 1.343,-0.978 0,0" /></g><g
             transform="translate(745.6513,536.1585)"
             id="g4645"><path
               id="path4647"
               style="fill:#231f1f;fill-opacity:1;fill-rule:nonzero;stroke:none"
               d="M 0,0 C -7.203,7.68 -15.021,14.775 -23.374,21.21 -15.021,14.775 -7.203,7.68 0,0" /></g><g
             transform="translate(626.3554,499.429)"
             id="g4649"><path
               id="path4651"
               d="M 0,0 C -15.520182,-6.3234641 -16.364476,36.647155 -2.336,28.288 -1.8773508,19.156757 10.600062,6.9344255 0,0 Z m -47.074,18.211 c -7.18793,3.799947 -28.804961,-8.3306208 -19.856875,7.368125 8.715284,16.82124 36.262661,-0.87501 27.667328,-9.828078 -2.633776,0.7228 -5.202578,1.653537 -7.810453,2.459953 z m 58.914,58.87 c -13.8838002,-5.289289 -33.846283,14.721335 -37.627312,-8.010047 -11.889204,-7.823887 -9.86704,4.318775 -9.487641,11.50075 -16.221874,7.649569 -37.896052,3.682964 -53.742379,-3.969889 -16.928888,-6.844066 1.851014,-18.157024 10.543191,-8.655627 21.687042,5.186927 4.825525,-22.651492 -9.145675,-12.77198 -9.43746,-0.119302 -17.591994,-4.82761 -26.070184,-8.378207 -2.04094,3.178767 -1.39856,17.230233 -5.4437,12.288127 -3.96101,-4.644834 -10.65464,-9.019657 -4.30464,-14.683325 3.60872,-6.30256 -11.36315,4.32965 -10.05829,-5.203559 -0.57139,-14.580182 -26.58077,-9.897853 -21.40034,-26.406556 13.58585,-1.1626 28.64544,25.400017 40.02162,14.143965 2.58597,-4.727263 3.915,-13.255998 7.28282,-15.618651 8.674506,2.207667 0.9894,9.187985 -0.65503,14.406033 -3.009,7.87935 7.50926,3.413477 7.09252,-3.096973 3.312236,-5.872552 5.278787,-12.203332 6.33804,-18.843061 5.309044,5.9070071 2.211248,16.944284 13.579031,11.481016 2.485555,-9.6793472 11.708008,-17.0461599 22.051999,-13.9972536 12.495854,2.7125708 -0.757612,-27.8936234 -11.105016,-24.0928814 -15.632379,2.241271 -32.140584,20.8129654 -47.349014,7.736119 2.52442,7.6086093 -6.74226,5.5462259 -10.534,9.656 8.8829,14.1683926 -3.85446,10.7029288 -15.36225,7.9555 -16.6356,-0.8308595 -34.48127,-6.4418043 -39.72264,-22.301117 -12.69456,-8.396549 -11.8844,-26.335912 -16.61764,-39.457723 -1.76724,-15.642587 1.86514,-33.45488 12.50991,-45.1768 11.81679,-4.64163 22.21515,16.270217 26.51385,-1.1987 20.54975,-2.77979 2.73327,-28.21074 17.53649,-38.09464 9.65934,-17.51716 2.82752,-38.43785 15.62162,-54.62332 9.49747,-15.62907 18.89024,-34.27564 36.520256,-41.79593 20.946688,-3.18173 19.572176,24.35592 26.7535,37.18698 6.621889,13.1094 27.529414,10.22397 17.766037,27.99279 -1.055803,13.21926 -8.497449,38.3676 11.348888,39.65372 13.692803,6.7986 23.617984,19.04452 33.099979,30.66424 -1.1650559,5.902608 -0.7551647,13.575092 -8.997282,11.524719 -8.558906,0.694094 -17.117812,1.388187 -25.676718,2.082281 -9.091733,13.671676 -16.753555,28.361171 -20.329102,44.485075 -3.384657,3.543406 -2.49324,18.812379 0.907165,12.13455 0.908724,-16.720739 21.456118,-19.791351 21.842022,-36.248421 -1.690132,-19.772408 17.254672,-21.233681 28.3037119,-8.630501 9.2853164,7.572248 22.8617871,8.615519 30.1578261,18.855502 8.336613,4.40349 1.523504,7.993087 -3.397664,11.684325 -4.602566,5.433979 -9.591641,6.960816 -15.2284305,1.94006 -5.30053532,-2.330439 -2.4744744,11.703276 -10.3648693,8.348246 -1.4777868,4.416798 -11.9016382,10.274844 -6.6561792,13.608498 5.4585217,6.954243 8.8060892,-2.917108 12.9590608,-6.368895 2.9437668,-7.085947 9.8418142,-3.015356 15.4734582,-2.517773 3.249091,-3.132969 4.47504,-10.263016 12.067125,-7.018341 7.056959,0.213892 14.113917,0.427783 21.170876,0.641675 7.461772,-9.125114 22.877782,-10.334519 25.188423,-23.077829 4.969193,-12.497724 9.938385,-24.995447 14.907577,-37.493171 13.49501,3.804179 6.985075,17.83096 11.44928,28.159234 2.4775,11.126977 23.26335,36.343025 21.92463,11.83337 7.14634,-10.677276 25.42138,-11.361574 24.61406,-29.129135 3.56505,-7.403616 7.50285,16.594302 2.92166,22.439656 -14.96282,14.421768 7.14893,21.679281 10.6538,33.614606 C 143.84017,19.377505 101.83595,63.676549 49.74,84.364 36.323345,86.899598 23.810225,82.664344 11.84,77.081 Z"
               style="fill:#231f1f;fill-opacity:1;fill-rule:nonzero;stroke:none" /></g><g
             transform="translate(382.6767,369.4593)"
             id="g4653"><path
               id="path4655"
               style="fill:#ff0000;fill-opacity:1;fill-rule:nonzero;stroke:none"
               d="m 0,0 h -0.011 c 3.093,-34.707 12.513,-65.075 28.253,-91.114 10.024,-16.981 22.172,-31.648 36.455,-43.983 11.91,-10.294 25.141,-19.095 39.676,-26.427 33.049,-17.157 72.278,-26.11 117.663,-26.878 1.475,-0.03 2.958,-0.042 4.442,-0.053 0.654,-0.003 1.295,-0.023 1.951,-0.023 0.077,0 0.152,0.002 0.228,0.002 32.522,0.023 62.866,4.895 91.029,14.611 28.238,9.748 52.59,23.858 73.065,42.348 20.484,18.49 36.589,40.959 48.312,67.399 8.222,18.531 13.549,38.771 16.009,60.712 1.051,9.375 1.587,19.054 1.587,29.053 0,1.322 -0.026,2.623 -0.043,3.933 H -1.182 C -1.187,28.862 -1.21,28.156 -1.21,27.436 -1.21,17.982 -0.8,8.842 0,0" /></g></g></g><g
         id="g4657"><g
           clip-path="url(#clipPath4663)"
           id="g4659"><g
             transform="translate(609.2941,312.9637)"
             id="g4665"><path
               id="path4667"
               style="fill:#940000;fill-opacity:1;fill-rule:nonzero;stroke:none"
               d="m 0,0 c -2.713,-2.479 -7.273,-0.792 -10.561,-2.435 -2.907,-1.453 -3.961,-4.998 -4.722,-8.157 -1.037,-4.305 -2.073,-8.611 -3.11,-12.916 -0.851,-3.532 -1.419,-7.946 1.452,-10.172 1.658,-1.286 4.033,-1.328 5.995,-0.583 1.961,0.745 3.586,2.165 5.078,3.641 6.597,6.525 11.301,14.631 14.124,23.443 1.029,3.213 2.058,6.235 -0.087,9.323 C 4.446,7.503 3.016,2.757 0,0" /></g><g
             transform="translate(608.9536,230.9768)"
             id="g4669"><path
               id="path4671"
               style="fill:#940000;fill-opacity:1;fill-rule:nonzero;stroke:none"
               d="m 0,0 c -7.042,-1.283 -13.772,-4.419 -20.929,-4.586 -7.439,-0.174 -14.529,2.87 -21.825,4.328 -12.855,2.568 -31.058,0.701 -42.139,-6.306 24.223,-10.785 51.043,-16.788 79.268,-16.788 28.53,0 55.627,6.126 80.053,17.131 C 58.207,-5.596 45.837,-4.048 29.791,-1.586 19.911,-0.071 9.833,1.792 0,0" /></g><g
             transform="translate(797.9699,390.7981)"
             id="g4673"><path
               id="path4675"
               style="fill:#940000;fill-opacity:1;fill-rule:nonzero;stroke:none"
               d="m 0,0 c -1.184,1.877 -3.979,2.03 -5.988,1.087 -2.009,-0.942 -3.519,-2.668 -5.258,-4.047 -1.739,-1.379 -4.023,-2.458 -6.134,-1.776 -5.229,1.692 -3.813,11.468 -9.132,12.85 -2.276,0.591 -4.694,-0.966 -5.77,-3.058 -1.076,-2.092 -1.084,-4.564 -0.845,-6.905 0.769,-7.527 3.816,-14.664 4.768,-22.17 0.462,-3.643 0.721,-7.902 3.755,-9.972 1.618,-1.105 3.824,-1.38 5.047,-2.911 1.055,-1.322 1.044,-3.163 1.362,-4.825 0.813,-4.243 4.305,-7.598 8.509,-8.595 5.363,15.939 8.712,32.8 9.77,50.28 z" /></g><g
             transform="translate(722.0629,557.533)"
             id="g4677"><path
               id="path4679"
               style="fill:#940000;fill-opacity:1;fill-rule:nonzero;stroke:none"
               d="M 0,0 C 0.071,-0.055 0.143,-0.109 0.214,-0.164 0.143,-0.109 0.071,-0.055 0,0" /></g><g
             transform="translate(745.6513,536.1585)"
             id="g4681"><path
               id="path4683"
               style="fill:#940000;fill-opacity:1;fill-rule:nonzero;stroke:none"
               d="M 0,0 C 0.006,-0.006 0.011,-0.012 0.017,-0.018 0.011,-0.012 0.006,-0.006 0,0" /></g><g
             transform="translate(717.8369,560.6898)"
             id="g4685"><path
               id="path4687"
               style="fill:#940000;fill-opacity:1;fill-rule:nonzero;stroke:none"
               d="M 0,0 C 0.079,-0.058 0.158,-0.115 0.237,-0.173 0.158,-0.115 0.079,-0.058 0,0" /></g><g
             transform="translate(713.6074,563.6785)"
             id="g4689"><path
               id="path4691"
               style="fill:#940000;fill-opacity:1;fill-rule:nonzero;stroke:none"
               d="M 0,0 C 0.009,-0.006 0.017,-0.012 0.026,-0.019 0.017,-0.012 0.009,-0.006 0,0" /></g><g
             transform="translate(749.1581,532.3167)"
             id="g4693"><path
               id="path4695"
               style="fill:#940000;fill-opacity:1;fill-rule:nonzero;stroke:none"
               d="M 0,0 C 0.043,-0.049 0.086,-0.097 0.129,-0.146 0.086,-0.097 0.043,-0.049 0,0" /></g><g
             transform="translate(680.9152,581.7757)"
             id="g4697"><path
               id="path4699"
               style="fill:#940000;fill-opacity:1;fill-rule:nonzero;stroke:none"
               d="M 0,0 C 0.104,-0.045 0.208,-0.091 0.311,-0.136 0.208,-0.091 0.104,-0.045 0,0" /></g><g
             transform="translate(690.6401,577.2332)"
             id="g4701"><path
               id="path4703"
               style="fill:#940000;fill-opacity:1;fill-rule:nonzero;stroke:none"
               d="M 0,0 C 0.049,-0.025 0.099,-0.049 0.148,-0.074 0.099,-0.049 0.049,-0.025 0,0" /></g><g
             transform="translate(685.7473,579.5994)"
             id="g4705"><path
               id="path4707"
               style="fill:#940000;fill-opacity:1;fill-rule:nonzero;stroke:none"
               d="M 0,0 C 0.112,-0.052 0.224,-0.104 0.336,-0.157 0.224,-0.104 0.112,-0.052 0,0" /></g><g
             transform="translate(752.6437,528.2889)"
             id="g4709"><path
               id="path4711"
               style="fill:#940000;fill-opacity:1;fill-rule:nonzero;stroke:none"
               d="M 0,0 C 0.02,-0.023 0.04,-0.047 0.059,-0.07 0.04,-0.047 0.02,-0.023 0,0" /></g><g
             transform="translate(773.737,497.7718)"
             id="g4713"><path
               id="path4715"
               style="fill:#940000;fill-opacity:1;fill-rule:nonzero;stroke:none"
               d="M 0,0 C 0.008,-0.014 0.016,-0.028 0.023,-0.042 0.016,-0.028 0.008,-0.014 0,0" /></g><g
             transform="translate(690.7878,577.1595)"
             id="g4717"><path
               id="path4719"
               style="fill:#940000;fill-opacity:1;fill-rule:nonzero;stroke:none"
               d="M 0,0 C 7.931,-3.984 15.553,-8.493 22.82,-13.481 15.552,-8.493 7.931,-3.984 0,0" /></g><g
             transform="translate(686.0837,579.4422)"
             id="g4721"><path
               id="path4723"
               style="fill:#940000;fill-opacity:1;fill-rule:nonzero;stroke:none"
               d="M 0,0 C 1.53,-0.717 3.049,-1.453 4.556,-2.209 3.049,-1.453 1.53,-0.717 0,0" /></g><g
             transform="translate(713.6335,563.66)"
             id="g4725"><path
               id="path4727"
               style="fill:#940000;fill-opacity:1;fill-rule:nonzero;stroke:none"
               d="M 0,0 C 1.415,-0.972 2.816,-1.962 4.203,-2.97 2.816,-1.962 1.415,-0.972 0,0" /></g><g
             transform="translate(749.2875,532.1707)"
             id="g4729"><path
               id="path4731"
               style="fill:#940000;fill-opacity:1;fill-rule:nonzero;stroke:none"
               d="M 0,0 C 1.135,-1.279 2.254,-2.573 3.356,-3.882 2.254,-2.573 1.135,-1.279 0,0" /></g><g
             transform="translate(681.2265,581.64)"
             id="g4733"><path
               id="path4735"
               style="fill:#940000;fill-opacity:1;fill-rule:nonzero;stroke:none"
               d="M 0,0 C 1.517,-0.662 3.024,-1.342 4.521,-2.041 3.024,-1.342 1.517,-0.662 0,0" /></g><g
             transform="translate(752.7031,528.2191)"
             id="g4737"><path
               id="path4739"
               style="fill:#940000;fill-opacity:1;fill-rule:nonzero;stroke:none"
               d="M 0,0 C 7.929,-9.43 14.982,-19.62 21.034,-30.447 14.982,-19.62 7.93,-9.43 0,0" /></g><g
             transform="translate(745.6679,536.1404)"
             id="g4741"><path
               id="path4743"
               style="fill:#940000;fill-opacity:1;fill-rule:nonzero;stroke:none"
               d="M 0,0 C 1.18,-1.259 2.343,-2.534 3.49,-3.824 2.343,-2.534 1.18,-1.259 0,0" /></g><g
             transform="translate(718.0739,560.5169)"
             id="g4745"><path
               id="path4747"
               style="fill:#940000;fill-opacity:1;fill-rule:nonzero;stroke:none"
               d="M 0,0 C 1.343,-0.978 2.672,-1.973 3.989,-2.984 2.672,-1.973 1.343,-0.978 0,0" /></g><g
             transform="translate(745.6513,536.1585)"
             id="g4749"><path
               id="path4751"
               style="fill:#940000;fill-opacity:1;fill-rule:nonzero;stroke:none"
               d="M 0,0 C -7.203,7.68 -15.021,14.775 -23.374,21.21 -15.021,14.775 -7.203,7.68 0,0" /></g><g
             transform="translate(626.3554,499.429)"
             id="g4753"><path
               id="path4755"
               style="fill:#940000;fill-opacity:1;fill-rule:nonzero;stroke:none"
               d="m 0,0 c -2.806,-1.456 -6.635,-1.052 -8.671,1.367 -1.699,2.018 -1.883,4.867 -1.987,7.503 -0.174,4.363 -0.347,8.726 -0.52,13.088 -0.062,1.576 -0.122,3.181 0.299,4.702 0.42,1.519 1.404,2.968 2.873,3.543 1.986,0.778 4.313,-0.269 5.67,-1.915 C 0.868,24.399 -1.117,20.091 1.066,15.992 2.177,13.905 3.694,11.99 4.298,9.705 5.275,6.01 3.393,1.759 0,0 m -47.074,18.211 c -2.546,0.787 -5.207,1.582 -7.836,1.142 -2.474,-0.415 -4.634,-1.881 -7.011,-2.68 -2.378,-0.799 -5.434,-0.708 -6.883,1.34 -1.094,1.547 -0.855,3.738 0.092,5.381 0.946,1.641 2.476,2.852 3.983,4.002 3.242,2.475 6.742,4.944 10.789,5.451 8.336,1.043 17.687,-9.618 17.299,-17.725 -3.498,0.701 -6.996,2.027 -10.433,3.089 m 58.914,58.87 c -10.973,-3.95 -25.457,4.389 -25.457,4.389 0,0 -9.409,0.439 -9.409,-7.461 0,-7.901 -18.243,-11.412 -12.537,0 5.706,11.411 -11.412,11.411 -32.919,9.217 -21.507,-2.195 -28.529,-14.045 -28.529,-14.045 0,0 4.828,-7.901 12.289,-3.951 7.462,3.951 20.19,7.901 16.679,-3.95 -3.511,-11.85 -16.679,-5.706 -16.679,-5.706 l -12.728,-1.756 -16.24,-7.022 -3.511,14.484 -9.657,-10.972 4.828,-8.34 -9.656,1.756 -5.267,-13.168 c 0,0 -16.678,-3.073 -18.873,-13.167 -2.195,-10.095 11.192,-2.853 17.995,3.95 6.804,6.803 21.507,9.217 21.507,9.217 l 7.901,-19.751 5.706,3.511 -7.023,14.484 4.828,1.756 7.901,-16.679 2.194,-10.095 4.39,7.462 -0.439,4.389 c 0,0 11.411,2.634 11.411,-3.511 0,-6.145 10.534,-11.412 10.534,-11.412 l 15.362,0.877 c 0,0 -2.194,-12.289 -7.9,-21.506 -5.706,-9.217 -25.619,4.551 -37.47,8.501 -11.851,3.951 -18.711,-3.673 -18.711,-3.673 v 5.267 l -5.267,1.317 -5.267,3.072 3.95,10.973 c 0,0 -36.43,-5.267 -45.208,-8.339 -8.779,-3.073 -11.851,-16.679 -11.851,-16.679 -10.973,0 -14.923,-26.768 -14.923,-26.768 -10.095,-23.255 0.439,-46.531 6.145,-55.748 5.706,-9.218 24.579,5.293 24.579,5.293 0,0 0.878,-10.561 10.095,-10.561 9.217,0 3.95,-23.923 3.95,-23.923 9.548,-9.548 17.118,-34.013 14.484,-47.181 10.095,-26.335 30.724,-56.181 43.453,-61.009 12.729,-4.828 20.19,3.511 25.018,25.896 4.828,22.385 24.579,24.141 24.579,24.141 0,0 -12.289,52.669 2.634,52.669 14.923,0 39.063,32.041 39.063,32.041 l -2.194,10.973 -32.48,2.634 -7.901,12.728 -7.461,14.923 -7.9,26.774 3.072,5.267 c 0,0 3.95,-19.312 13.606,-22.824 9.656,-3.511 8.34,-23.262 13.607,-32.04 5.267,-8.779 27.212,9.656 27.212,9.656 l 19.752,9.217 11.85,11.851 -15.801,12.728 -10.095,-5.267 -2.633,9.218 -4.828,-0.439 -9.656,12.728 7.022,4.828 12.29,-14.045 12.728,2.194 3.073,-7.461 28.968,0.878 c 6.584,-6.584 21.946,-14.923 21.946,-14.923 l 18.15,-45.648 9.063,5.706 c -2.634,35.991 22.384,46.525 22.384,46.525 0,0 -0.439,-20.629 11.851,-20.629 12.29,0 15.362,-24.579 15.362,-24.579 11.851,17.995 -4.389,39.064 -4.389,39.064 3.5,3.499 17.944,18.488 18.041,18.589 -3.922,11.988 -8.973,23.465 -15.028,34.305 -0.008,0.014 -0.016,0.028 -0.023,0.042 -6.052,10.827 -13.105,21.017 -21.034,30.447 -0.02,0.023 -0.04,0.046 -0.06,0.07 -1.101,1.308 -2.221,2.602 -3.356,3.882 -0.043,0.049 -0.086,0.097 -0.129,0.146 -1.147,1.29 -2.31,2.565 -3.49,3.823 -0.006,0.006 -0.011,0.013 -0.017,0.019 -7.203,7.679 -15.021,14.775 -23.374,21.21 -0.072,0.055 -0.143,0.109 -0.214,0.164 -1.317,1.011 -2.647,2.006 -3.989,2.984 -0.08,0.058 -0.158,0.115 -0.238,0.173 -1.387,1.008 -2.788,1.998 -4.203,2.97 -0.009,0.006 -0.017,0.012 -0.026,0.019 -7.267,4.988 -14.889,9.497 -22.82,13.48 -0.049,0.025 -0.098,0.049 -0.147,0.074 -1.508,0.756 -3.027,1.492 -4.557,2.209 -0.112,0.053 -0.224,0.105 -0.336,0.157 -1.497,0.699 -3.004,1.379 -4.521,2.041 -0.104,0.045 -0.207,0.091 -0.311,0.136 -1.596,0.693 -3.202,1.366 -4.82,2.017 -20.85,2.44 -26.934,-3.335 -37.9,-7.283" /></g></g></g></g></g></svg>
