<?xml version="1.0" encoding="UTF-8" standalone="no"?>
<svg
   xmlns:dc="http://purl.org/dc/elements/1.1/"
   xmlns:cc="http://creativecommons.org/ns#"
   xmlns:rdf="http://www.w3.org/1999/02/22-rdf-syntax-ns#"
   xmlns:svg="http://www.w3.org/2000/svg"
   xmlns="http://www.w3.org/2000/svg"
   id="svg8"
   version="1.1"
   viewBox="0 0 173.61517 168.47913"
   height="168.47913mm"
   width="173.61517mm">
  <defs
     id="defs2" />
  <metadata
     id="metadata5">
    <rdf:RDF>
      <cc:Work
         rdf:about="">
        <dc:format>image/svg+xml</dc:format>
        <dc:type
           rdf:resource="http://purl.org/dc/dcmitype/StillImage" />
        <dc:title></dc:title>
      </cc:Work>
    </rdf:RDF>
  </metadata>
  <g
     transform="translate(-7.7484996,-69.010214)"
     id="layer1">
    <g
       transform="translate(0,-2.267861)"
       id="g826">
      <path
         id="path832"
         d="M 167.15996,239.50189 C 163.08538,239.38752 152.0721,239.10655 142.686,238.87751 122.90035,238.39471 100.80709,237.84042 79.053711,237.28106 70.613502,237.06403 51.447413,236.58503 36.462404,236.2166 20.65497,235.82795 9.1117997,235.4416 8.9665064,235.29631 8.4985854,234.82839 13.824601,227.30188 18.890252,221.27247 21.775825,217.83791 27.216603,212.43691 30.342605,209.90385 35.32881,205.86344 41.922508,202.03792 47.644757,199.86553 50.544152,198.7648 55.112011,197.60177 58.83853,197.01546 63.373954,196.30187 72.71119,196.37371 77.863086,197.16182 87.615114,198.65364 97.721058,201.68216 109.68877,206.69925 117.13855,209.82234 121.2783,211.77153 139.511,220.74101 148.31502,225.07209 157.92489,229.70441 160.86628,231.03507 166.64867,233.65097 176.08421,237.50285 179.06621,238.46486 180.08486,238.79348 181.09264,239.22681 181.30572,239.42782 181.75173,239.84857 179.86298,239.85846 167.15996,239.50189 Z M 168.74746,226.94823 C 168.3109,226.74154 165.92965,225.66615 163.4558,224.55848 160.98194,223.45081 152.23085,219.23547 144.00892,215.19105 118.13669,202.46433 110.01934,198.86982 98.76517,195.1563 86.809733,191.21138 77.31521,189.52319 67.081314,189.52269 64.437484,189.52256 62.517252,189.41873 62.517252,189.2759 62.517252,188.90286 63.535839,188.25017 68.73496,185.29173 97.021645,169.19581 130.34737,159.01728 164.57976,156.01828 167.963,155.72188 170.02459,155.64175 170.1746,155.80081 170.31054,155.94495 170.49374,171.30203 170.60291,191.70528 L 170.79368,227.35789 170.16745,227.34097 C 169.82302,227.33166 169.18403,227.15493 168.74746,226.94823 Z M 7.7484996,223.0184 C 7.7484996,222.092 9.3963485,214.52399 10.4057,210.81478 19.914873,175.87002 44.491972,138.60665 75.773528,111.7052 101.19459,89.843645 129.01647,76.309223 156.70892,72.332814 161.28705,71.675432 167.05149,71.178539 168.74746,71.295095 L 170.07038,71.386013 170.13863,87.245683 C 170.17616,95.9685 170.11663,103.19189 170.00634,103.29765 169.89604,103.40342 168.43658,103.62267 166.76309,103.78486 156.25052,104.80374 143.63795,107.33156 133.02871,110.54594 106.61746,118.54799 82.826944,131.77906 60.274686,151.00801 55.370866,155.18921 42.840225,167.73388 38.585561,172.72143 24.809268,188.87075 15.214287,204.50926 9.4528423,220.20381 8.4420784,222.95719 7.7484996,224.10258 7.7484996,223.0184 Z M 23.888084,205.62073 C 23.888084,205.11167 27.322288,199.44776 30.532041,194.66308 49.600692,166.23803 78.559858,141.49384 110.00996,126.75309 122.30586,120.98996 135.87207,116.37876 148.63913,113.62289 156.77743,111.86618 169.48828,110.12113 170.05076,110.68334 170.50083,111.13319 170.59309,148.08643 170.14499,148.42465 169.95843,148.56546 167.30548,148.8839 164.24955,149.1323 128.34028,152.05107 91.291931,163.71032 61.59121,181.43923 57.076474,184.13417 49.071931,189.44426 45.583918,192.05824 44.008509,193.23888 41.316715,194.89582 39.366209,195.88557 34.888274,198.15781 31.635981,200.18622 27.724542,203.14633 23.896683,206.04319 23.888084,206.04873 23.888084,205.62073 Z"
         style="fill:#89c36e;stroke-width:0.26458335" />
      <path
         id="path830"
         d="M 169.93809,238.98231 C 166.08179,238.87311 157.62835,238.65056 151.15267,238.48775 144.67699,238.32495 135.09246,238.07556 129.85371,237.93357 124.61496,237.79158 112.70871,237.49648 103.39538,237.2778 94.082045,237.05912 77.294231,236.64347 66.089127,236.35412 54.884022,236.06478 40.953709,235.71155 35.132876,235.56918 29.312042,235.4268 21.245557,235.22915 17.207354,235.12996 12.35761,235.01083 9.8651663,234.85504 9.8651663,234.67105 9.8651663,234.32374 12.493085,230.46037 15.109647,226.96101 27.35068,210.58999 41.60727,200.70929 56.890546,198.00426 65.337835,196.50914 72.245034,196.67563 82.496046,198.62143 86.820391,199.44226 90.020868,200.29703 95.722461,202.1539 107.09764,205.85851 118.30271,210.81057 141.2308,222.26624 148.56292,225.92962 157.81866,230.34682 164.24955,233.25171 166.74225,234.37768 176.25053,238.19487 177.54486,238.58924 177.87228,238.68901 178.14017,238.88167 178.14017,239.01738 178.14017,239.1531 177.87228,239.2454 177.54486,239.22249 177.21744,239.19959 173.79439,239.09151 169.93809,238.98231 Z M 166.10163,225.53386 C 160.8071,223.17582 155.19219,220.48867 143.08288,214.51768 136.971,211.50397 130.24397,208.20798 128.13392,207.19324 101.46827,194.36955 84.066245,189.26255 67.022519,189.25879 62.980138,189.2579 62.935367,189.25152 63.450644,188.74959 65.191091,187.05421 82.137967,178.28134 90.785275,174.5993 113.78575,164.80565 137.94802,158.72532 163.43215,156.31804 165.74747,156.09933 168.19845,155.92039 168.87876,155.92039 H 170.11569 L 170.29147,175.01407 C 170.38815,185.5156 170.46726,201.52951 170.46726,210.60053 170.46726,226.13679 170.4404,227.09251 170.00424,227.07954 169.74957,227.07196 167.9934,226.37641 166.10163,225.53386 Z M 8.2776663,221.44659 C 8.2776663,220.60852 9.6473375,214.31655 10.561812,210.95372 21.2437,171.67282 50.785507,129.96994 87.123503,102.8749 104.29169,90.073621 123.81709,80.321756 141.67996,75.626945 150.7427,73.24503 161.80707,71.519242 168.01986,71.518526 L 169.93809,71.518304 V 86.710206 C 169.93809,95.065753 169.99637,102.06067 170.0676,102.25448 170.34511,103.00949 169.72847,103.26822 167.01358,103.53588 141.06578,106.09404 114.67221,114.84467 90.959961,128.75102 54.457789,150.15818 23.152809,184.65393 10.117939,217.83289 8.6895114,221.46881 8.2776663,222.27754 8.2776663,221.44659 Z M 24.973375,204.00841 C 26.238827,201.49823 30.919672,194.26335 34.431119,189.39018 43.026945,177.46094 55.6589,164.10264 68.268778,153.60682 96.686928,129.95303 131.19386,114.88043 165.66922,111.06241 169.09977,110.68249 169.7708,110.66886 169.96567,110.97513 170.09312,111.17544 170.16833,119.63786 170.1335,129.85893 L 170.07038,148.37976 166.36621,148.69726 C 142.54442,150.73914 121.35215,155.31197 100.35267,162.94157 80.493123,170.157 61.75363,179.9978 46.063097,191.45103 43.695269,193.17941 41.037513,194.83558 38.969334,195.87148 35.000108,197.85957 30.882527,200.43663 27.355133,203.14044 25.925494,204.23629 24.677198,205.13289 24.581141,205.13289 24.485087,205.13289 24.661593,204.62687 24.973375,204.00841 Z"
         style="fill:#7ac059;stroke-width:0.26458335" />
      <path
         id="path828"
         d="M 166.10163,225.53386 C 160.8071,223.17582 155.19219,220.48867 143.08288,214.51768 136.971,211.50397 130.24397,208.20798 128.13392,207.19324 101.46827,194.36955 84.066245,189.26255 67.022519,189.25879 62.980138,189.2579 62.935367,189.25152 63.450644,188.74959 65.191091,187.05421 82.137967,178.28134 90.785275,174.5993 113.78575,164.80565 137.94802,158.72532 163.43215,156.31804 165.74747,156.09933 168.19845,155.92039 168.87876,155.92039 H 170.11569 L 170.29147,175.01407 C 170.38815,185.5156 170.46726,201.52951 170.46726,210.60053 170.46726,226.13679 170.4404,227.09251 170.00424,227.07954 169.74957,227.07196 167.9934,226.37641 166.10163,225.53386 Z M 8.2776663,221.44659 C 8.2776663,220.60852 9.6473375,214.31655 10.561812,210.95372 21.2437,171.67282 50.785507,129.96994 87.123503,102.8749 104.29169,90.073621 123.81709,80.321756 141.67996,75.626945 150.7427,73.24503 161.80707,71.519242 168.01986,71.518526 L 169.93809,71.518304 V 86.710206 C 169.93809,95.065753 169.99637,102.06067 170.0676,102.25448 170.34511,103.00949 169.72847,103.26822 167.01358,103.53588 141.06578,106.09404 114.67221,114.84467 90.959961,128.75102 54.457789,150.15818 23.152809,184.65393 10.117939,217.83289 8.6895114,221.46881 8.2776663,222.27754 8.2776663,221.44659 Z M 24.973375,204.00841 C 26.238827,201.49823 30.919672,194.26335 34.431119,189.39018 43.026945,177.46094 55.6589,164.10264 68.268778,153.60682 96.686928,129.95303 131.19386,114.88043 165.66922,111.06241 169.09977,110.68249 169.7708,110.66886 169.96567,110.97513 170.09312,111.17544 170.16833,119.63786 170.1335,129.85893 L 170.07038,148.37976 166.36621,148.69726 C 142.54442,150.73914 121.35215,155.31197 100.35267,162.94157 80.493123,170.157 61.75363,179.9978 46.063097,191.45103 43.695269,193.17941 41.037513,194.83558 38.969334,195.87148 35.000108,197.85957 30.882527,200.43663 27.355133,203.14044 25.925494,204.23629 24.677198,205.13289 24.581141,205.13289 24.485087,205.13289 24.661593,204.62687 24.973375,204.00841 Z"
         style="fill:#ec1d24;stroke-width:0.26458335" />
    </g>
  </g>
</svg>
