<?xml version="1.0" encoding="UTF-8" standalone="no"?>
<svg
   xmlns:dc="http://purl.org/dc/elements/1.1/"
   xmlns:cc="http://creativecommons.org/ns#"
   xmlns:rdf="http://www.w3.org/1999/02/22-rdf-syntax-ns#"
   xmlns:svg="http://www.w3.org/2000/svg"
   xmlns="http://www.w3.org/2000/svg"
   id="svg8"
   version="1.1"
   viewBox="0 0 398.83334 182.66667"
   height="182.66667mm"
   width="398.83334mm">
  <defs
     id="defs2" />
  <metadata
     id="metadata5">
    <rdf:RDF>
      <cc:Work
         rdf:about="">
        <dc:format>image/svg+xml</dc:format>
        <dc:type
           rdf:resource="http://purl.org/dc/dcmitype/StillImage" />
        <dc:title></dc:title>
      </cc:Work>
    </rdf:RDF>
  </metadata>
  <g
     transform="translate(-21.166667,-39.333333)"
     id="layer1">
    <g
       transform="translate(158.09994,27.805973)"
       id="g826" />
    <g
       transform="translate(6.8035721,-25.324405)"
       id="g1581">
      <path
         id="path1587"
         d="M 16.72545,154.125 V 69.722916 H 96.761908 182.09003 V 154.125 238.52709 H 96.761908 16.72545 Z"
         style="fill:#01d970;stroke-width:0.26458335" />
      <path
         id="path1585"
         d="M 16.72545,69.722916 H 96.761908 182.09003 V 154.125 238.52709 H 96.761908 16.72545 C 16.72545,182.25903 16.72545,125.99097 16.72545,69.722916 Z M 174.41712,234.85502 C 174.41712,234.72715 174.03016,234.46844 173.55722,234.28011 166.30915,231.39384 158.90968,227.96542 143.32857,220.27419 116.87294,207.21502 106.31067,202.77631 94.238722,199.64458 76.674871,195.08813 62.468148,196.12501 49.401491,202.91702 42.329525,206.59301 35.705902,211.97617 29.350975,219.2125 24.240447,225.03184 18.178483,233.49489 18.908262,233.79147 18.944642,233.80625 28.737533,234.0873 40.670241,234.41602 60.423557,234.96018 67.382276,235.017 118.3916,235.0506 150.43655,235.07171 174.41712,234.98799 174.41712,234.85502 Z"
         style="fill:#e91b21;stroke-width:0.26458335" />
      <path
         id="path1583"
         d="M 14.363095,64.657738 H 413.19643 V 247.32441 H 14.363095 Z M 174.41712,234.85502 C 144.69555,222.70523 117.36184,203.88607 85.447687,197.70561 67.722859,194.61839 48.697614,199.76982 35.861663,212.60157 29.123256,218.68971 23.259804,225.80405 18.908262,233.79147 70.724469,235.57618 122.58151,235.09246 174.41712,234.85502 Z M 172.03587,192.25331 C 170.83559,181.55296 174.51293,166.07592 169.96076,158.3721 134.69344,160.81125 99.796273,171.28899 69.708588,189.99842 101.84276,189.20883 130.08951,206.83296 158.14246,220.05784 163.45906,221.64922 174.21253,231.02626 171.94724,219.77178 172.28674,210.60148 171.85855,201.42551 172.03587,192.25331 Z M 20.181934,216.83125 C 37.490438,176.03308 72.063125,144.14623 111.46836,124.90087 130.30804,116.01357 150.69906,110.42135 171.44055,108.48375 170.87846,99.062031 174.20872,84.874812 169.65489,78.473889 143.69424,79.059691 118.91627,90.124777 97.698339,104.52276 63.34101,128.84411 36.145541,163.84162 22.289205,203.68262 20.713095,208.2997 17.820691,220.00332 18.677233,220.59281 19.193153,219.34472 19.680771,218.08526 20.181934,216.83125 Z M 35.03755,204.32641 C 44.620681,197.27806 55.372486,191.99923 64.914729,184.87739 96.904872,164.88026 134.13161,154.01707 171.63899,151.34688 171.6829,139.39705 172.20289,127.44311 171.72613,115.49583 116.61508,119.79743 66.071886,153.56563 36.50224,199.57391 36.358612,200.48701 31.013295,208.09628 35.03755,204.32641 Z"
         style="fill:#030101;stroke-width:0.26458335" />
    </g>
    <g
       id="flowRoot1599"
       style="font-style:normal;font-variant:normal;font-weight:normal;font-stretch:normal;font-size:68.15733337px;line-height:0.80000001;font-family:'Klima Ultra', Ultra;-inkscape-font-specification:'Klima Ultra, Ultra';font-variant-ligatures:normal;font-variant-caps:normal;font-variant-numeric:normal;font-feature-settings:normal;text-align:start;letter-spacing:0px;word-spacing:0px;writing-mode:lr-tb;text-anchor:start;fill:#01d970;fill-opacity:1;stroke:none"
       transform="matrix(0.95767751,0,0,0.95767751,1027.523,433.37487)"
       aria-label="HERE'S
HOW">
      <path
         id="path1609"
         d="M -863.98464,-321.38786 C -863.98464,-337.51843 -863.98464,-353.649 -863.98464,-369.77957 -859.10003,-369.77957 -854.21543,-369.77957 -849.33082,-369.77957 -849.33082,-363.82716 -849.33082,-357.87475 -849.33082,-351.92234 -845.12778,-351.92234 -840.92475,-351.92234 -836.72171,-351.92234 -836.72171,-357.87475 -836.72171,-363.82716 -836.72171,-369.77957 -831.8371,-369.77957 -826.95249,-369.77957 -822.06788,-369.77957 -822.06788,-353.649 -822.06788,-337.51843 -822.06788,-321.38786 -826.95249,-321.38786 -831.8371,-321.38786 -836.72171,-321.38786 -836.72171,-327.06764 -836.72171,-332.74741 -836.72171,-338.42719 -840.92475,-338.42719 -845.12778,-338.42719 -849.33082,-338.42719 -849.33082,-332.74741 -849.33082,-327.06764 -849.33082,-321.38786 -854.21543,-321.38786 -859.10003,-321.38786 -863.98464,-321.38786 Z"
         style="line-height:0.80000001;fill:#01d970;fill-opacity:1" />
      <path
         id="path1611"
         d="M -816.61532,-321.38786 C -816.61532,-337.51843 -816.61532,-353.649 -816.61532,-369.77957 -804.89226,-369.77957 -793.16919,-369.77957 -781.44613,-369.77957 -781.44613,-365.44022 -781.44613,-361.10086 -781.44613,-356.76151 -788.28458,-356.76151 -795.12304,-356.76151 -801.96149,-356.76151 -802.34036,-353.24581 -802.37741,-350.07195 -797.93544,-351.37709 -793.52952,-351.37709 -789.1236,-351.37709 -784.71768,-351.37709 -784.71768,-347.51484 -784.71768,-343.65259 -784.71768,-339.79034 -790.46562,-339.79034 -796.21355,-339.79034 -801.96149,-339.79034 -802.34036,-336.27464 -802.37741,-333.10077 -797.93544,-334.40591 -792.48445,-334.40591 -787.03345,-334.40591 -781.58245,-334.40591 -781.58245,-330.06656 -781.58245,-325.72721 -781.58245,-321.38786 -793.26007,-321.38786 -804.9377,-321.38786 -816.61532,-321.38786 Z"
         style="line-height:0.80000001;fill:#01d970;fill-opacity:1" />
      <path
         id="path1613"
         d="M -776.33436,-321.38786 C -776.33436,-337.51843 -776.33436,-353.649 -776.33436,-369.77957 -767.03366,-369.46938 -757.60817,-370.53614 -748.41541,-368.93612 -737.13193,-366.88661 -731.16272,-352.05728 -738.66039,-343.13857 -743.41106,-340.11376 -744.02623,-337.3304 -740.52252,-333.00475 -738.44211,-329.13245 -736.3617,-325.26016 -734.28129,-321.38786 -739.32493,-321.38786 -744.36857,-321.38786 -749.41221,-321.38786 -751.61597,-326.15887 -753.81972,-330.92989 -756.02348,-335.7009 -759.12536,-335.72011 -763.20561,-336.7177 -761.74869,-332.17811 -761.74869,-328.58136 -761.74869,-324.98461 -761.74869,-321.38786 -766.61058,-321.38786 -771.47247,-321.38786 -776.33436,-321.38786 Z M -761.74869,-356.89783 C -761.13483,-354.38173 -763.01503,-349.37158 -760.74218,-348.51448 -756.26026,-348.14943 -747.48205,-348.30665 -750.77536,-355.12574 -753.53301,-357.99268 -758.17259,-356.54338 -761.74869,-356.89783 Z"
         style="line-height:0.80000001;fill:#01d970;fill-opacity:1" />
      <path
         id="path1615"
         d="M -730.53271,-321.38786 C -730.53271,-337.51843 -730.53271,-353.649 -730.53271,-369.77957 -718.80965,-369.77957 -707.08659,-369.77957 -695.36353,-369.77957 -695.36353,-365.44022 -695.36353,-361.10086 -695.36353,-356.76151 -702.20198,-356.76151 -709.04043,-356.76151 -715.87888,-356.76151 -716.25775,-353.24581 -716.2948,-350.07195 -711.85283,-351.37709 -707.44692,-351.37709 -703.041,-351.37709 -698.63508,-351.37709 -698.63508,-347.51484 -698.63508,-343.65259 -698.63508,-339.79034 -704.38301,-339.79034 -710.13095,-339.79034 -715.87888,-339.79034 -716.25775,-336.27464 -716.2948,-333.10077 -711.85283,-334.40591 -706.40184,-334.40591 -700.95084,-334.40591 -695.49984,-334.40591 -695.49984,-330.06656 -695.49984,-325.72721 -695.49984,-321.38786 -707.17746,-321.38786 -718.85509,-321.38786 -730.53271,-321.38786 Z"
         style="line-height:0.80000001;fill:#01d970;fill-opacity:1" />
      <path
         id="path1617"
         d="M -690.66069,-369.77957 C -686.57125,-369.77957 -682.48181,-369.77957 -678.39237,-369.77957 -679.07394,-364.00891 -679.75552,-358.23826 -680.43709,-352.4676 -682.92698,-353.11103 -687.72215,-351.16088 -688.73403,-353.46716 -689.37625,-358.90463 -690.01847,-364.3421 -690.66069,-369.77957 Z"
         style="line-height:0.80000001;fill:#01d970;fill-opacity:1" />
      <path
         id="path1619"
         d="M -655.08257,-320.50181 C -661.71582,-319.87466 -674.86153,-324.12705 -673.90576,-330.73548 -670.67573,-333.11763 -667.44569,-335.49978 -664.21566,-337.88193 -662.73167,-331.66082 -644.73055,-332.68144 -652.69706,-338.10344 -662.87613,-337.94068 -675.64291,-344.29622 -673.95789,-356.23755 -673.01433,-368.04476 -659.03275,-372.37486 -649.03361,-369.89884 -644.93787,-369.13508 -631.8237,-363.18604 -638.63193,-359.37715 -641.20743,-357.48291 -643.78293,-355.58867 -646.35843,-353.69443 -648.26359,-359.15413 -664.86378,-358.9928 -657.88555,-353.34087 -648.31328,-353.09867 -635.13664,-349.99001 -635.11887,-338.03636 -633.44358,-326.71204 -645.12748,-319.93754 -655.08257,-320.50181 Z"
         style="line-height:0.80000001;fill:#01d970;fill-opacity:1" />
      <path
         id="path1621"
         d="M -863.98464,-266.86198 C -863.98464,-282.99255 -863.98464,-299.12312 -863.98464,-315.25369 -859.10003,-315.25369 -854.21543,-315.25369 -849.33082,-315.25369 -849.33082,-309.30128 -849.33082,-303.34888 -849.33082,-297.39647 -845.12778,-297.39647 -840.92475,-297.39647 -836.72171,-297.39647 -836.72171,-303.34888 -836.72171,-309.30128 -836.72171,-315.25369 -831.8371,-315.25369 -826.95249,-315.25369 -822.06788,-315.25369 -822.06788,-299.12312 -822.06788,-282.99255 -822.06788,-266.86198 -826.95249,-266.86198 -831.8371,-266.86198 -836.72171,-266.86198 -836.72171,-272.54176 -836.72171,-278.22153 -836.72171,-283.90131 -840.92475,-283.90131 -845.12778,-283.90131 -849.33082,-283.90131 -849.33082,-278.22153 -849.33082,-272.54176 -849.33082,-266.86198 -854.21543,-266.86198 -859.10003,-266.86198 -863.98464,-266.86198 Z"
         style="line-height:0.80000001;fill:#01d970;fill-opacity:1" />
      <path
         id="path1623"
         d="M -793.57814,-266.04409 C -806.07912,-265.3435 -817.47047,-275.79174 -817.85919,-288.30598 -819.55118,-300.23505 -812.10532,-313.38406 -799.72827,-315.54229 -787.22073,-318.816 -772.42238,-311.36429 -769.88175,-298.15897 -766.48342,-285.62062 -773.01038,-270.14489 -786.35772,-267.00256 -788.70429,-266.34677 -791.14343,-266.04269 -793.57814,-266.04409 Z M -793.57814,-279.53924 C -780.8462,-279.70468 -780.56279,-302.56289 -793.57814,-302.44011 -806.68787,-302.90361 -806.33301,-279.29625 -793.57814,-279.53924 Z"
         style="line-height:0.80000001;fill:#01d970;fill-opacity:1" />
      <path
         id="path1625"
         d="M -756.02352,-266.86198 C -760.83997,-282.99255 -765.65642,-299.12312 -770.47287,-315.25369 -765.20204,-315.25369 -759.9312,-315.25369 -754.66037,-315.25369 -752.63837,-306.87034 -750.61637,-298.48698 -748.59437,-290.10363 -746.00439,-298.48698 -743.41441,-306.87034 -740.82443,-315.25369 -737.5756,-315.25369 -734.32676,-315.25369 -731.07793,-315.25369 -728.48795,-306.87034 -725.89798,-298.48698 -723.308,-290.10363 -721.49047,-298.48698 -719.67294,-306.87034 -717.85541,-315.25369 -712.60729,-315.25369 -707.35918,-315.25369 -702.11106,-315.25369 -706.90479,-299.12312 -711.69853,-282.99255 -716.49226,-266.86198 -720.83161,-266.86198 -725.17096,-266.86198 -729.51031,-266.86198 -731.7595,-273.72315 -734.0087,-280.58432 -736.25789,-287.44549 -738.50708,-280.58432 -740.75627,-273.72315 -743.00546,-266.86198 -747.34481,-266.86198 -751.68417,-266.86198 -756.02352,-266.86198 Z"
         style="line-height:0.80000001;fill:#01d970;fill-opacity:1" />
    </g>
  </g>
</svg>
